<svg width="46" height="27" viewBox="0 0 46 27" fill="none" xmlns="http://www.w3.org/2000/svg">
<path d="M1.65813 21.239L20.0168 2.16247C20.4419 1.72065 20.8991 1.38098 21.3883 1.14344C21.8775 0.905908 22.4147 0.789516 22.9999 0.794267C23.5852 0.799018 24.1224 0.917781 24.6115 1.15057C25.1007 1.38335 25.5579 1.72303 25.9831 2.1696L44.3418 21.2461C44.5932 21.5122 44.8058 21.8186 44.9795 22.1654C45.1487 22.5122 45.2333 22.8851 45.2333 23.2842C45.2333 24.0823 44.9818 24.7688 44.4789 25.3436C43.9669 25.9185 43.2971 26.2059 42.4695 26.2059L3.5372 26.2059C2.70511 26.2059 2.03532 25.9113 1.52784 25.3223C1.02035 24.7332 0.766608 24.0491 0.766608 23.2699C0.766608 23.0704 1.06378 22.3958 1.65813 21.2461" fill="white"/>
</svg>
