<svg width="16" height="29" viewBox="0 0 16 29" fill="none" xmlns="http://www.w3.org/2000/svg">
<path d="M12.8727 28.4186L0.86155 16.4456C0.583369 16.1683 0.3695 15.8701 0.21994 15.551C0.0703802 15.232 -0.00290322 14.8817 8.79775e-05 14.5C0.00307917 14.1183 0.0778557 13.768 0.224424 13.449C0.370993 13.1299 0.584866 12.8317 0.866039 12.5544L12.8772 0.581428C13.0447 0.417434 13.2376 0.278788 13.456 0.165483C13.6743 0.0551601 13.9092 0 14.1604 0C14.6629 0 15.0952 0.163992 15.4571 0.491979C15.819 0.825929 16 1.26275 16 1.80244V27.1931C16 27.7358 15.8145 28.1726 15.4436 28.5035C15.0727 28.8345 14.642 29 14.1514 29C14.0258 29 13.6011 28.8062 12.8772 28.4186" fill="#5C76A9"/>
</svg>
