<svg width="16" height="29" viewBox="0 0 16 29" fill="none" xmlns="http://www.w3.org/2000/svg">
<path d="M3.1273 28.4186L15.1384 16.4456C15.4166 16.1683 15.6305 15.8701 15.7801 15.551C15.9296 15.232 16.0029 14.8817 15.9999 14.5C15.9969 14.1183 15.9221 13.768 15.7756 13.449C15.629 13.1299 15.4151 12.8317 15.134 12.5544L3.12281 0.581428C2.9553 0.417434 2.76237 0.278788 2.54401 0.165483C2.32566 0.0551601 2.09085 0 1.83959 0C1.33707 0 0.904839 0.163992 0.542903 0.491979C0.180968 0.825929 0 1.26275 0 1.80244V27.1931C0 27.7358 0.185456 28.1726 0.556365 28.5035C0.927274 28.8345 1.35801 29 1.84856 29C1.97419 29 2.39894 28.8062 3.12281 28.4186" fill="#5C76A9"/>
</svg>
