<svg width="72" height="92" viewBox="0 0 72 92" fill="none" xmlns="http://www.w3.org/2000/svg">
<path d="M13.3707 92C9.67363 92 6.52178 90.695 3.91511 88.0849C1.30504 85.4816 0 82.3315 0 78.6344V15.3333C0 11.0468 1.48392 7.41963 4.45178 4.45178C7.41963 1.48393 11.0468 0 15.3333 0H63.3011C65.5841 0 67.5314 0.804148 69.1431 2.41244C70.7514 4.02074 71.5556 5.96978 71.5556 8.25956V67.7529C71.5556 68.4616 71.346 69.0903 70.9269 69.6389C70.5078 70.1909 69.9967 70.5674 69.3936 70.7684C67.6115 71.2353 66.1497 72.1893 65.0082 73.6307C63.8667 75.0788 63.296 76.7467 63.296 78.6344C63.296 80.454 63.8497 82.1066 64.9571 83.5922C66.0645 85.0779 67.511 86.0456 69.2964 86.4953C69.9439 86.727 70.4822 87.0558 70.9116 87.4818C71.3409 87.9077 71.5556 88.4529 71.5556 89.1173V89.4138C71.5556 90.143 71.3119 90.7563 70.8247 91.2538C70.3374 91.7513 69.7292 92 69 92H13.3707ZM27.9067 41.8396H43.5262L46.0818 48.7038C46.2521 49.1024 46.489 49.4074 46.7922 49.6187C47.0955 49.8299 47.4567 49.9339 47.8758 49.9304C48.5709 49.9304 49.1024 49.6527 49.4704 49.0973C49.8384 48.5385 49.9066 47.9541 49.6749 47.3442L38.6298 17.94C38.4594 17.4766 38.1834 17.1239 37.8018 16.882C37.4236 16.6401 36.9908 16.5191 36.5036 16.5191H34.8936C34.4097 16.5191 33.977 16.6401 33.5953 16.882C33.2171 17.1239 32.9428 17.4766 32.7724 17.94L21.7222 47.2778C21.4939 47.9524 21.5672 48.5641 21.942 49.1127C22.3168 49.6613 22.8535 49.9339 23.552 49.9304C23.9711 49.9304 24.3323 49.8265 24.6356 49.6187C24.9422 49.4074 25.1807 49.1007 25.3511 48.6987L27.9067 41.8396ZM29.302 37.9807L35.7216 20.7971H35.8084L42.0951 37.9807H29.302ZM13.3707 86.8889H61.226C60.2549 85.7644 59.5053 84.5173 58.9771 83.1476C58.449 81.7846 58.1849 80.2785 58.1849 78.6293C58.1849 77.0722 58.4438 75.5899 58.9618 74.1827C59.4797 72.7754 60.2344 71.5061 61.226 70.3749H13.3707C11.023 70.3749 9.0603 71.1859 7.48267 72.8078C5.90504 74.4297 5.11452 76.3719 5.11111 78.6344C5.11111 80.9787 5.90163 82.9397 7.48267 84.5173C9.0637 86.095 11.0264 86.8855 13.3707 86.8889Z" fill="white"/>
</svg>
