<svg width="200" height="200" viewBox="0 0 200 200" fill="none" xmlns="http://www.w3.org/2000/svg">
<path d="M20.2 200C14.4417 200 9.6375 198.075 5.7875 194.225C1.9375 190.375 0.00833333 185.567 0 179.8V108.85L17.9375 126.775C19.9542 128.8 22.3083 129.812 25 129.812C27.6917 129.812 30.05 128.8 32.075 126.775L75 83.85L117.937 126.775C119.954 128.8 122.308 129.812 125 129.812C127.692 129.812 130.05 128.8 132.075 126.775L175 83.85L200 108.85V179.812C200 185.562 198.075 190.367 194.225 194.225C190.375 198.083 185.567 200.008 179.8 200H20.2ZM20.2 0H179.812C185.562 0 190.367 1.92916 194.225 5.7875C198.083 9.64583 200.008 14.45 200 20.2V91.075L182.075 73.15C180.05 71.1333 177.692 70.125 175 70.125C172.308 70.125 169.954 71.1333 167.937 73.15L125 116.087L82.075 73.15C80.05 71.1333 77.6917 70.125 75 70.125C72.3083 70.125 69.9542 71.1333 67.9375 73.15L25 116.087L0 91.0875V20.2C0 14.4417 1.92916 9.6375 5.7875 5.7875C9.64583 1.9375 14.45 0.00833333 20.2 0Z" fill="white"/>
</svg>
