<svg width="18" height="18" viewBox="0 0 18 18" fill="none" xmlns="http://www.w3.org/2000/svg">
<path d="M7.562 11.492L5.066 8.996C4.972 8.90267 4.857 8.85267 4.721 8.846C4.585 8.83933 4.464 8.88933 4.358 8.996C4.252 9.10267 4.19867 9.22067 4.198 9.35C4.19733 9.47933 4.25067 9.59733 4.358 9.704L6.996 12.342C7.15733 12.504 7.34567 12.585 7.561 12.585C7.77633 12.585 7.965 12.504 8.127 12.342L13.604 6.866C13.6973 6.772 13.7473 6.657 13.754 6.521C13.7607 6.385 13.7107 6.264 13.604 6.158C13.4973 6.052 13.3793 5.99867 13.25 5.998C13.1207 5.99733 13.0027 6.05067 12.896 6.158L7.562 11.492ZM9.003 18C7.759 18 6.589 17.764 5.493 17.292C4.39767 16.8193 3.44467 16.178 2.634 15.368C1.82333 14.558 1.18167 13.606 0.709 12.512C0.236333 11.418 0 10.2483 0 9.003C0 7.75767 0.236333 6.58767 0.709 5.493C1.181 4.39767 1.82133 3.44467 2.63 2.634C3.43867 1.82333 4.391 1.18167 5.487 0.709C6.583 0.236333 7.753 0 8.997 0C10.241 0 11.411 0.236333 12.507 0.709C13.6023 1.181 14.5553 1.82167 15.366 2.631C16.1767 3.44033 16.8183 4.39267 17.291 5.488C17.7637 6.58333 18 7.753 18 8.997C18 10.241 17.764 11.411 17.292 12.507C16.82 13.603 16.1787 14.556 15.368 15.366C14.5573 16.176 13.6053 16.8177 12.512 17.291C11.4187 17.7643 10.249 18.0007 9.003 18Z" fill="white"/>
</svg>
