<svg width="228" height="92" viewBox="0 0 228 92" fill="none" xmlns="http://www.w3.org/2000/svg">
<path d="M0 92V90.1477C0 81.9944 4.83488 76.654 14.5047 74.1265C24.1744 71.5989 31.9774 70.3351 37.9136 70.3351C43.8498 70.3351 51.6527 71.5989 61.3225 74.1265C70.9923 76.654 75.8272 81.9944 75.8272 90.1477V92H0ZM37.9136 48.6702C33.3423 48.6702 29.4932 47.1031 26.3662 43.9689C23.232 40.8419 21.6649 36.9928 21.6649 32.4215C21.6649 27.8502 23.232 24.0011 26.3662 20.8741C29.5004 17.7472 33.3495 16.1801 37.9136 16.1728C42.4776 16.1656 46.3268 17.7327 49.461 20.8741C52.5952 24.0011 54.1623 27.8502 54.1623 32.4215C54.1623 36.9928 52.5952 40.8419 49.461 43.9689C46.3268 47.0959 42.4776 48.663 37.9136 48.6702ZM92.5091 65.7746C91.2381 65.7746 90.1188 65.2944 89.1511 64.3339C88.1978 63.3734 87.7212 62.2541 87.7212 60.9759C87.7212 60.1743 88.187 59.0441 89.1186 57.5853C90.4185 55.6355 91.2742 53.4437 91.6859 51.01C92.0831 48.5619 92.2816 46.0596 92.2816 43.5031C92.2816 40.9467 92.047 38.4444 91.5775 35.9962C91.1081 33.5481 90.2199 31.4177 88.9128 29.6051C88.5011 29.0779 88.1653 28.5254 87.9053 27.9477C87.6454 27.37 87.5154 26.767 87.5154 26.1387C87.5154 24.7666 87.9703 23.6292 88.8803 22.7265C89.7902 21.8238 90.9673 21.3688 92.4116 21.3616C93.2999 21.3616 94.1051 21.6288 94.8273 22.1632C95.5494 22.6976 96.1524 23.3656 96.6363 24.1672C98.29 26.8609 99.5755 29.8759 100.493 33.2123C101.41 36.5487 101.868 39.9645 101.868 43.4598C101.868 47.0417 101.446 50.5045 100.601 53.8481C99.756 57.1917 98.5067 60.2284 96.8529 62.9582C96.333 63.7093 95.7372 64.3664 95.0656 64.9297C94.394 65.493 93.5454 65.7746 92.52 65.7746M113.654 86.7679C112.304 86.7679 111.155 86.313 110.209 85.403C109.271 84.4931 108.801 83.3376 108.801 81.9367C108.801 81.3011 108.931 80.7018 109.191 80.1385C109.451 79.5752 109.787 79.0336 110.199 78.5136C114.438 73.3212 117.543 67.7245 119.514 61.7233C121.5 55.7293 122.493 49.5729 122.493 43.254C122.493 36.935 121.504 30.7858 119.525 24.8063C117.547 18.8268 114.438 13.3095 110.199 8.25433C109.787 7.71993 109.451 7.18552 109.191 6.65112C108.931 6.11672 108.801 5.52816 108.801 4.88544C108.801 3.49888 109.252 2.33981 110.155 1.40822C111.065 0.469407 112.21 0 113.589 0C114.398 0 115.145 0.169708 115.831 0.509124C116.517 0.84132 117.106 1.31795 117.597 1.93901C122.493 7.92574 126.129 14.4758 128.505 21.5891C130.889 28.6952 132.08 35.9096 132.08 43.2323C132.08 50.555 130.867 57.7514 128.44 64.8214C126.014 71.8914 122.399 78.4919 117.597 84.6231C117.113 85.2514 116.543 85.7641 115.886 86.1613C115.228 86.5585 114.485 86.7607 113.654 86.7679ZM151.654 92V90.1477C151.654 81.9944 156.486 76.654 166.148 74.1265C175.811 71.5989 183.617 70.3351 189.568 70.3351C195.519 70.3351 203.321 71.5989 212.977 74.1265C222.632 76.654 227.467 81.9944 227.481 90.1477V92H151.654ZM189.568 48.6702C184.997 48.6702 181.147 47.1031 178.02 43.9689C174.886 40.8419 173.319 36.9928 173.319 32.4215C173.319 27.8502 174.886 24.0011 178.02 20.8741C181.155 17.7472 185.004 16.1801 189.568 16.1728C194.132 16.1656 197.981 17.7327 201.115 20.8741C204.249 24.0011 205.817 27.8502 205.817 32.4215C205.817 36.9928 204.249 40.8419 201.115 43.9689C197.981 47.0959 194.132 48.663 189.568 48.6702Z" fill="white"/>
</svg>
