<svg width="200" height="200" viewBox="0 0 200 200" fill="none" xmlns="http://www.w3.org/2000/svg">
<path d="M122.778 147.133L110.944 135.511C109.863 134.43 108.578 133.844 107.089 133.756C105.6 133.667 104.241 134.233 103.011 135.456C101.781 136.678 101.17 137.996 101.178 139.411C101.178 140.833 101.789 142.156 103.011 143.378L116.489 156.856C118.289 158.656 120.385 159.556 122.778 159.556C125.17 159.556 127.267 158.656 129.067 156.856L166.222 119.489C167.304 118.407 167.87 117.133 167.922 115.667C167.967 114.2 167.374 112.837 166.144 111.578C164.93 110.43 163.622 109.844 162.222 109.822C160.822 109.8 159.511 110.4 158.289 111.622L122.778 147.133ZM55.5556 127.778H66.6667C68.2444 127.778 69.563 127.244 70.6222 126.178C71.6815 125.111 72.2148 123.789 72.2222 122.211C72.2296 120.633 71.6963 119.315 70.6222 118.256C69.5481 117.196 68.2296 116.667 66.6667 116.667H55.5556C53.9778 116.667 52.6593 117.2 51.6 118.267C50.5407 119.333 50.0074 120.656 50 122.233C49.9926 123.811 50.5259 125.13 51.6 126.189C52.6741 127.248 53.9926 127.778 55.5556 127.778ZM55.5556 94.4444H111.111C112.689 94.4444 114.007 93.9111 115.067 92.8444C116.126 91.7778 116.659 90.4556 116.667 88.8778C116.674 87.3 116.141 85.9815 115.067 84.9222C113.993 83.863 112.674 83.3333 111.111 83.3333H55.5556C53.9778 83.3333 52.6593 83.8667 51.6 84.9333C50.5407 86 50.0074 87.3222 50 88.9C49.9926 90.4778 50.5259 91.7963 51.6 92.8556C52.6741 93.9148 53.9926 94.4444 55.5556 94.4444ZM55.5556 61.1111H111.111C112.689 61.1111 114.007 60.5778 115.067 59.5111C116.126 58.4444 116.659 57.1222 116.667 55.5444C116.674 53.9667 116.141 52.6481 115.067 51.5889C113.993 50.5296 112.674 50 111.111 50H55.5556C53.9778 50 52.6593 50.5333 51.6 51.6C50.5407 52.6667 50.0074 53.9889 50 55.5667C49.9926 57.1444 50.5259 58.463 51.6 59.5222C52.6741 60.5815 53.9926 61.1111 55.5556 61.1111ZM100.033 200C86.2111 200 73.2111 197.378 61.0333 192.133C48.863 186.881 38.2741 179.756 29.2667 170.756C20.2593 161.756 13.1296 151.178 7.87778 139.022C2.62593 126.867 0 113.87 0 100.033C0 86.1963 2.62593 73.1963 7.87778 61.0333C13.1222 48.863 20.237 38.2741 29.2222 29.2667C38.2074 20.2593 48.7889 13.1296 60.9667 7.87778C73.1444 2.62593 86.1444 0 99.9667 0C113.789 0 126.789 2.62593 138.967 7.87778C151.137 13.1222 161.726 20.2407 170.733 29.2333C179.741 38.2259 186.87 48.8074 192.122 60.9778C197.374 73.1481 200 86.1444 200 99.9667C200 113.789 197.378 126.789 192.133 138.967C186.889 151.144 179.763 161.733 170.756 170.733C161.748 179.733 151.17 186.863 139.022 192.122C126.874 197.381 113.878 200.007 100.033 200Z" fill="white"/>
</svg>
