<svg width="93" height="92" viewBox="0 0 93 92" fill="none" xmlns="http://www.w3.org/2000/svg">
<path d="M31.2425 43.6785L43.6893 31.199L32.5013 19.9728L28.1144 24.3543C27.6058 24.8629 26.9882 25.1408 26.2616 25.1881C25.5349 25.2353 24.8683 24.9574 24.2616 24.3543C23.6585 23.7512 23.3569 23.1027 23.3569 22.4088C23.3569 21.7149 23.6585 21.0664 24.2616 20.4633L28.6103 16.1145L17.9727 5.47691L5.49318 17.9565L31.2425 43.6785ZM73.9345 86.4033L86.4141 73.9237L75.782 63.2861L71.4005 67.6349C70.87 68.1653 70.2452 68.4487 69.5258 68.485C68.8065 68.5214 68.1453 68.238 67.5422 67.6349C66.9391 67.0318 66.6394 66.3888 66.643 65.7057C66.6466 65.0227 66.9464 64.3797 67.5422 63.7766L71.8909 59.3951L60.7738 48.3107L48.3215 60.7575L73.9345 86.4033ZM66.2506 16.3979L75.6675 25.8093L85.1825 16.2943L75.7384 6.85021L66.2506 16.3979ZM7.81471 88.594C6.5504 88.594 5.50045 88.1762 4.66485 87.3406C3.82924 86.505 3.40962 85.455 3.40599 84.1907V73.1989C3.40599 72.614 3.50772 72.0672 3.71117 71.5586C3.91462 71.05 4.25249 70.5595 4.72479 70.0872L27.3515 47.4605L1.47684 21.4823C0.492279 20.4978 0 19.3243 0 17.9619C0 16.5995 0.492279 15.4242 1.47684 14.436L14.4523 1.46602C15.4369 0.48146 16.6103 -0.00718627 17.9727 7.98474e-05C19.3351 0.00734596 20.5086 0.505076 21.4932 1.49327L47.613 27.4714L71.9563 3.09544C72.5558 2.49599 73.1879 2.06366 73.8528 1.79844C74.5176 1.53323 75.2261 1.40062 75.9781 1.40062C76.7302 1.40062 77.4386 1.53323 78.1035 1.79844C78.7683 2.06366 79.4023 2.49599 80.0054 3.09544L88.8991 12.3434C89.5022 12.9428 89.92 13.575 90.1525 14.2398C90.385 14.9047 90.4995 15.6131 90.4958 16.3652C90.4922 17.1172 90.3759 17.8039 90.1471 18.4251C89.9182 19.0464 89.504 19.6567 88.9045 20.2562L64.7629 44.5286L90.5394 70.5068C91.5204 71.4914 92.0108 72.6649 92.0108 74.0273C92.0108 75.3897 91.5204 76.5631 90.5394 77.5477L77.564 90.5177C76.5794 91.5059 75.4059 92 74.0435 92C72.6811 92 71.5077 91.5077 70.5231 90.5232L44.5395 64.6485L21.9128 87.2752C21.4405 87.7475 20.95 88.0854 20.4414 88.2888C19.9328 88.4923 19.386 88.594 18.8011 88.594H7.81471Z" fill="white"/>
</svg>
