<svg width="211" height="92" viewBox="0 0 211 92" fill="none" xmlns="http://www.w3.org/2000/svg">
<path d="M105.143 36.4495C112.915 28.2747 121.028 20.1086 129.501 13.6686C139.77 5.85296 151.292 0 164.286 0C189.757 0 210.286 22.9124 210.286 46C210.286 69.0876 189.757 92 164.286 92C151.292 92 139.77 86.147 129.501 78.3314C121.028 71.8914 112.915 63.7253 105.143 55.5505C97.371 63.7253 89.2575 71.8914 80.7848 78.3314C70.5158 86.147 58.9939 92 46 92C20.5291 92 0 69.0876 0 46C0 22.9124 20.5291 0 46 0C58.9939 0 70.5158 5.84419 80.7848 13.6686C89.2575 20.1086 97.371 28.2747 105.143 36.4495ZM46 13.1429C28.1958 13.1429 13.1429 29.7467 13.1429 46C13.1429 62.2533 28.1958 78.8571 46 78.8571C54.9109 78.8571 63.6465 74.853 72.829 67.8785C80.6271 61.9379 88.2324 54.2625 96.0918 46C88.2324 37.7375 80.6271 30.0533 72.829 24.1215C63.6465 17.147 54.9109 13.1429 46 13.1429ZM114.194 46C122.053 54.2625 129.659 61.9467 137.457 67.8785C146.639 74.853 155.375 78.8571 164.286 78.8571C182.09 78.8571 197.143 62.2533 197.143 46C197.143 29.7467 182.09 13.1429 164.286 13.1429C155.375 13.1429 146.639 17.147 137.457 24.1215C129.659 30.0621 122.053 37.7375 114.194 46Z" fill="white"/>
</svg>
