<svg width="200" height="178" viewBox="0 0 200 178" fill="none" xmlns="http://www.w3.org/2000/svg">
<path d="M34.1889 156.239L15.2556 175.255C12.4481 178.075 9.2037 178.722 5.52222 177.197C1.84074 175.672 0 172.9 0 168.883V18.0344C0 12.8934 1.71482 8.60429 5.14444 5.16704C8.57407 1.72979 12.8444 0.00743993 17.9556 0H182.056C187.167 0 191.437 1.72235 194.867 5.16704C198.296 8.61173 200.007 12.9008 200 18.0344V138.215C200 143.349 198.289 147.638 194.867 151.083C191.444 154.527 187.174 156.246 182.056 156.239H34.1889ZM100 86.0205L125.178 111.086C126.215 112.127 127.485 112.611 128.989 112.536C130.5 112.469 131.778 111.912 132.822 110.862C133.867 109.813 134.385 108.571 134.378 107.135C134.37 105.699 133.852 104.457 132.822 103.408L107.867 78.1193L132.822 52.831C133.859 51.7894 134.341 50.5097 134.267 48.992C134.2 47.4742 133.644 46.1946 132.6 45.153C131.556 44.1114 130.319 43.5906 128.889 43.5906C127.459 43.5906 126.222 44.1114 125.178 45.153L100 70.2181L74.8222 45.153C73.7852 44.1114 72.5148 43.6278 71.0111 43.7022C69.5 43.7691 68.2222 44.3271 67.1778 45.3762C66.1333 46.4252 65.6148 47.6677 65.6222 49.1036C65.6296 50.5395 66.1481 51.7857 67.1778 52.8421L92.1333 78.1193L67.1778 103.408C66.1407 104.449 65.6593 105.725 65.7333 107.236C65.8 108.753 66.3555 110.037 67.4 111.086C68.4444 112.135 69.6815 112.655 71.1111 112.648C72.5407 112.641 73.7815 112.12 74.8333 111.086L100 86.0205Z" fill="white"/>
</svg>
