<svg width="126" height="92" viewBox="0 0 126 92" fill="none" xmlns="http://www.w3.org/2000/svg">
<path d="M56.1568 48.6741L45.2947 37.812C44.7222 37.2396 44.0251 36.9268 43.2032 36.8736C42.3813 36.8205 41.631 37.1333 40.9523 37.812C40.298 38.4662 39.9709 39.19 39.9709 39.9832C39.9709 40.7765 40.298 41.5002 40.9523 42.1544L52.6853 53.8077C53.6789 54.7972 54.8361 55.292 56.1568 55.292C57.4775 55.292 58.6326 54.7972 59.6221 53.8077L84.9589 29.1517C85.3515 28.4607 85.5252 27.7227 85.4803 26.9376C85.4312 26.1525 85.0816 25.4329 84.4315 24.7787C83.7527 24.0999 83.0228 23.7605 82.2419 23.7605C81.4568 23.7605 80.7269 24.0999 80.0523 24.7787L56.1568 48.6741ZM0 92V85.8667H122.434C123.305 85.8667 124.032 86.159 124.617 86.7437C125.202 87.3284 125.496 88.0563 125.5 88.9272C125.504 89.7981 125.21 90.528 124.617 91.1168C124.024 91.7056 123.296 92 122.434 92H0ZM17.4616 79.7333C14.6362 79.7333 12.2769 78.7868 10.3837 76.8936C8.49058 75.0005 7.54604 72.6432 7.55013 69.8219V9.90535C7.55013 7.08401 8.49671 4.72677 10.3899 2.83361C12.283 0.940457 14.6382 -0.00407567 17.4555 1.32184e-05H108.045C110.866 1.32184e-05 113.221 0.944546 115.11 2.83361C116.999 4.72268 117.946 7.07993 117.95 9.90535V69.828C117.95 72.6493 117.004 75.0045 115.11 76.8936C113.217 78.7827 110.86 79.7292 108.039 79.7333H17.4616Z" fill="white"/>
</svg>
