<svg width="148" height="92" viewBox="0 0 148 92" fill="none" xmlns="http://www.w3.org/2000/svg">
<path d="M13.4444 85.3188V10.7968C13.4444 7.83035 14.5087 5.28927 16.6374 3.17356C18.7661 1.05785 21.3205 0 24.3007 0H123.587C126.572 0 129.126 1.05785 131.25 3.17356C133.375 5.28927 134.439 7.82812 134.444 10.7901V85.3188H144.527C145.481 85.3188 146.279 85.6395 146.92 86.2809C147.565 86.9178 147.888 87.7106 147.888 88.6594C147.888 89.6081 147.565 90.4032 146.92 91.0445C146.275 91.6859 145.477 92.0044 144.527 92H3.36113C2.40658 92 1.60889 91.6793 0.968039 91.0379C0.327192 90.3965 0.00452749 89.6014 4.60422e-05 88.6527C-0.00443541 87.7039 0.318229 86.9111 0.968039 86.2742C1.61785 85.6372 2.41555 85.3188 3.36113 85.3188H13.4444ZM63.0876 85.3188H84.8003C85.4904 85.3188 86.0954 85.0604 86.6152 84.5437C87.1306 84.0315 87.3883 83.4324 87.3883 82.7465C87.3883 82.0606 87.1306 81.4593 86.6152 80.9426C86.0999 80.4259 85.4949 80.172 84.8003 80.1809H63.0876C62.3975 80.1809 61.7925 80.437 61.2726 80.9493C60.7573 81.4615 60.4996 82.0606 60.4996 82.7465C60.4996 83.4324 60.7595 84.0338 61.2794 84.5504C61.7947 85.0627 62.3975 85.3188 63.0876 85.3188Z" fill="white"/>
</svg>
