<svg width="25" height="24" viewBox="0 0 25 24" fill="none" xmlns="http://www.w3.org/2000/svg">
<path d="M2.31115 23.6209C2.04674 23.8736 1.72734 24 1.35296 24C0.978584 24 0.659805 23.873 0.396628 23.6191C0.133451 23.3651 0.00124415 23.0607 8.58038e-06 22.7059C-0.00122699 22.3511 0.130979 22.0461 0.396628 21.791L8.36608 14.1725L5.43221 13.2469C5.07142 13.1211 4.89226 12.885 4.89474 12.5385C4.89721 12.1919 5.08007 11.9671 5.44333 11.8638L14.3858 9.28636C14.6539 9.21397 14.8973 9.2828 15.116 9.49284C15.3347 9.7017 15.4058 9.93547 15.3292 10.1942L12.6455 18.7828C12.5392 19.1293 12.3051 19.3043 11.9431 19.3079C11.5823 19.3114 11.3364 19.1394 11.2054 18.7917L10.2435 15.9757L2.31115 23.6209ZM25 8.9001C25 10.7834 24.4582 12.4714 23.3746 13.9643C22.291 15.4571 20.8621 16.5328 19.0878 17.1914C18.8543 17.2781 18.6189 17.2781 18.3816 17.1914C18.1432 17.1036 17.9788 16.9482 17.8887 16.7251C17.7985 16.502 17.8003 16.2765 17.8942 16.0487C17.9881 15.8208 18.1518 15.663 18.3854 15.5752C19.7754 15.0708 20.9164 14.2105 21.8085 12.9941C22.7006 11.7778 23.1466 10.4131 23.1466 8.9001C23.1466 6.94208 22.4207 5.26589 20.9689 3.87154C19.5171 2.47719 17.7719 1.78002 15.7332 1.78002C14.1578 1.78002 12.7431 2.20307 11.489 3.04917C10.2337 3.89409 9.34342 4.98405 8.8183 6.31907C8.7281 6.54335 8.56624 6.71186 8.33272 6.82459C8.09796 6.93733 7.86444 6.95038 7.63215 6.86375C7.39863 6.77713 7.22935 6.61396 7.12433 6.37425C7.01931 6.13454 7.01127 5.90314 7.10024 5.68004C7.76127 3.98072 8.87143 2.60951 10.4307 1.56642C11.99 0.523326 13.7569 0.00118668 15.7313 0C18.2989 0 20.4858 0.867463 22.2922 2.60239C24.0986 4.33731 25 6.43655 24.9963 8.9001" fill="white"/>
</svg>
