<svg width="207" height="75" viewBox="0 0 207 75" fill="none" xmlns="http://www.w3.org/2000/svg">
<g clip-path="url(#clip0_10_31)">
<path d="M93.3059 30.8634C91.9431 30.8634 90.6743 30.642 89.499 30.1991C88.3406 29.7393 87.3273 29.1005 86.4587 28.283C85.6068 27.4484 84.9426 26.469 84.4658 25.3448C83.9891 24.2206 83.7504 22.9943 83.7504 21.6657C83.7504 20.3371 83.9891 19.1108 84.4658 17.9866C84.9426 16.8624 85.6155 15.8916 86.4842 15.074C87.3529 14.2394 88.3662 13.6007 89.5246 13.1578C90.683 12.6979 91.9517 12.468 93.3314 12.468C94.7964 12.468 96.1331 12.7235 97.3426 13.2344C98.5521 13.7284 99.5741 14.4693 100.409 15.4572L98.2624 17.4756C97.615 16.7773 96.8914 16.2578 96.0907 15.9171C95.29 15.5594 94.4213 15.3806 93.4847 15.3806C92.5481 15.3806 91.6876 15.5339 90.9042 15.8405C90.1377 16.1471 89.4648 16.5814 88.8858 17.1435C88.3237 17.7056 87.8807 18.3698 87.5573 19.1363C87.2507 19.9028 87.0974 20.7459 87.0974 21.6657C87.0974 22.5855 87.2507 23.4286 87.5573 24.1951C87.8807 24.9615 88.3237 25.6258 88.8858 26.1879C89.4648 26.75 90.1377 27.1843 90.9042 27.4909C91.6876 27.7975 92.5481 27.9508 93.4847 27.9508C94.4213 27.9508 95.29 27.7805 96.0907 27.4398C96.8914 27.0821 97.615 26.5456 98.2624 25.8302L100.409 27.8742C99.5741 28.845 98.5521 29.586 97.3426 30.0969C96.1331 30.6079 94.7877 30.8634 93.3059 30.8634ZM108.892 30.7868C107.495 30.7868 106.252 30.4887 105.162 29.8926C104.072 29.2794 103.212 28.4448 102.582 27.3887C101.951 26.3327 101.636 25.1319 101.636 23.7863C101.636 22.4236 101.951 21.2228 102.582 20.1838C103.212 19.1278 104.072 18.3017 105.162 17.7056C106.252 17.1094 107.495 16.8113 108.892 16.8113C110.306 16.8113 111.558 17.1094 112.648 17.7056C113.755 18.3017 114.615 19.1193 115.229 20.1583C115.859 21.1973 116.174 22.4066 116.174 23.7863C116.174 25.1319 115.859 26.3327 115.229 27.3887C114.615 28.4448 113.755 29.2794 112.648 29.8926C111.558 30.4887 110.306 30.7868 108.892 30.7868ZM108.892 28.053C109.676 28.053 110.374 27.8827 110.987 27.542C111.601 27.2013 112.077 26.7074 112.418 26.0602C112.776 25.4129 112.955 24.655 112.955 23.7863C112.955 22.9006 112.776 22.1426 112.418 21.5124C112.077 20.8651 111.601 20.3712 110.987 20.0305C110.374 19.6899 109.684 19.5196 108.918 19.5196C108.134 19.5196 107.436 19.6899 106.823 20.0305C106.227 20.3712 105.75 20.8651 105.392 21.5124C105.034 22.1426 104.856 22.9006 104.856 23.7863C104.856 24.655 105.034 25.4129 105.392 26.0602C105.75 26.7074 106.227 27.2013 106.823 27.542C107.436 27.8827 108.126 28.053 108.892 28.053ZM125.359 30.7868C123.963 30.7868 122.72 30.4887 121.629 29.8926C120.539 29.2794 119.679 28.4448 119.049 27.3887C118.419 26.3327 118.103 25.1319 118.103 23.7863C118.103 22.4236 118.419 21.2228 119.049 20.1838C119.679 19.1278 120.539 18.3017 121.629 17.7056C122.72 17.1094 123.963 16.8113 125.359 16.8113C126.773 16.8113 128.025 17.1094 129.115 17.7056C130.222 18.3017 131.082 19.1193 131.696 20.1583C132.326 21.1973 132.641 22.4066 132.641 23.7863C132.641 25.1319 132.326 26.3327 131.696 27.3887C131.082 28.4448 130.222 29.2794 129.115 29.8926C128.025 30.4887 126.773 30.7868 125.359 30.7868ZM125.359 28.053C126.143 28.053 126.841 27.8827 127.454 27.542C128.068 27.2013 128.545 26.7074 128.885 26.0602C129.243 25.4129 129.422 24.655 129.422 23.7863C129.422 22.9006 129.243 22.1426 128.885 21.5124C128.545 20.8651 128.068 20.3712 127.454 20.0305C126.841 19.6899 126.151 19.5196 125.385 19.5196C124.602 19.5196 123.903 19.6899 123.29 20.0305C122.694 20.3712 122.217 20.8651 121.859 21.5124C121.501 22.1426 121.323 22.9006 121.323 23.7863C121.323 24.655 121.501 25.4129 121.859 26.0602C122.217 26.7074 122.694 27.2013 123.29 27.542C123.903 27.8827 124.593 28.053 125.359 28.053ZM135.695 30.6079V11.6504H138.889V30.6079H135.695ZM82.4985 61.778L90.5465 43.8935H93.8168L101.89 61.778H98.4157L91.4919 45.6564H92.8204L85.9221 61.778H82.4985ZM86.2032 57.639L87.0974 55.033H96.755L97.6492 57.639H86.2032ZM109.993 61.9569C108.562 61.9569 107.285 61.659 106.161 61.0626C105.053 60.4495 104.185 59.615 103.555 58.5588C102.925 57.5026 102.609 56.3018 102.609 54.9564C102.609 53.5936 102.925 52.3928 103.555 51.3539C104.185 50.2979 105.053 49.4718 106.161 48.8756C107.285 48.2795 108.562 47.9814 109.993 47.9814C111.322 47.9814 112.488 48.2539 113.493 48.799C114.515 49.327 115.29 50.1105 115.818 51.1495L113.366 52.5803C112.957 51.9329 112.455 51.4561 111.858 51.1495C111.279 50.8429 110.649 50.6896 109.968 50.6896C109.184 50.6896 108.477 50.86 107.847 51.2006C107.217 51.5415 106.723 52.0351 106.365 52.6825C106.007 53.3125 105.829 54.0708 105.829 54.9564C105.829 55.8419 106.007 56.6084 106.365 57.2558C106.723 57.8858 107.217 58.3713 107.847 58.7121C108.477 59.0529 109.184 59.2231 109.968 59.2231C110.649 59.2231 111.279 59.0698 111.858 58.7632C112.455 58.4566 112.957 57.9799 113.366 57.3324L115.818 58.7632C115.29 59.7852 114.515 60.5772 113.493 61.1393C112.488 61.6845 111.322 61.9569 109.993 61.9569ZM126.985 61.778V59.0187L126.806 58.4311V53.6023C126.806 52.6656 126.525 51.9416 125.963 51.4306C125.401 50.9026 124.549 50.6385 123.408 50.6385C122.642 50.6385 121.883 50.7578 121.134 50.9962C120.401 51.2349 119.78 51.567 119.269 51.9927L118.017 49.6677C118.749 49.1056 119.618 48.6883 120.623 48.4158C121.645 48.1262 122.701 47.9814 123.791 47.9814C125.767 47.9814 127.291 48.4583 128.365 49.4122C129.454 50.349 130 51.8051 130 53.7811V61.778H126.985ZM122.693 61.9569C121.671 61.9569 120.776 61.7867 120.01 61.4459C119.243 61.0882 118.647 60.6027 118.221 59.9896C117.813 59.3595 117.608 58.6523 117.608 57.869C117.608 57.1025 117.787 56.4127 118.145 55.7995C118.519 55.1863 119.124 54.7009 119.959 54.3432C120.793 53.9855 121.901 53.8066 123.28 53.8066H127.24V55.9272H123.51C122.42 55.9272 121.687 56.1061 121.313 56.4638C120.938 56.8046 120.751 57.2302 120.751 57.7412C120.751 58.3202 120.981 58.7801 121.441 59.1209C121.901 59.4617 122.539 59.6319 123.357 59.6319C124.14 59.6319 124.839 59.453 125.452 59.0953C126.082 58.7377 126.533 58.2098 126.806 57.5113L127.343 59.4275C127.036 60.2282 126.482 60.8496 125.682 61.2926C124.898 61.7356 123.902 61.9569 122.693 61.9569ZM139.897 61.9569C138.586 61.9569 137.402 61.6671 136.346 61.0882C135.307 60.4919 134.489 59.6743 133.893 58.6355C133.297 57.5966 132.999 56.3703 132.999 54.9564C132.999 53.5425 133.297 52.3161 133.893 51.2773C134.489 50.2383 135.307 49.4292 136.346 48.8501C137.402 48.271 138.586 47.9814 139.897 47.9814C141.038 47.9814 142.06 48.2369 142.963 48.7479C143.866 49.2419 144.581 49.9998 145.11 51.0218C145.637 52.0438 145.902 53.3554 145.902 54.9564C145.902 56.5404 145.646 57.8521 145.135 58.8909C144.624 59.9129 143.917 60.6794 143.014 61.1904C142.112 61.7014 141.073 61.9569 139.897 61.9569ZM140.281 59.2231C141.047 59.2231 141.728 59.0529 142.325 58.7121C142.938 58.3713 143.423 57.8777 143.781 57.2302C144.155 56.5828 144.343 55.825 144.343 54.9564C144.343 54.0708 144.155 53.3125 143.781 52.6825C143.423 52.0351 142.938 51.5415 142.325 51.2006C141.728 50.86 141.047 50.6896 140.281 50.6896C139.514 50.6896 138.824 50.86 138.211 51.2006C137.615 51.5415 137.129 52.0351 136.755 52.6825C136.397 53.3125 136.218 54.0708 136.218 54.9564C136.218 55.825 136.397 56.5828 136.755 57.2302C137.129 57.8777 137.615 58.3713 138.211 58.7121C138.824 59.0529 139.514 59.2231 140.281 59.2231ZM144.42 61.778V58.5588L144.547 54.9308L144.292 51.3028V42.8205H147.46V61.778H144.42ZM158.076 61.9569C156.56 61.9569 155.232 61.659 154.091 61.0626C152.966 60.4495 152.089 59.615 151.459 58.5588C150.846 57.5026 150.539 56.3018 150.539 54.9564C150.539 53.5936 150.837 52.3928 151.433 51.3539C152.047 50.2979 152.881 49.4718 153.937 48.8756C155.01 48.2795 156.228 47.9814 157.591 47.9814C158.919 47.9814 160.103 48.271 161.142 48.8501C162.181 49.4292 162.999 50.2468 163.595 51.3028C164.191 52.359 164.489 53.6023 164.489 55.033C164.489 55.1694 164.48 55.3227 164.464 55.4929C164.464 55.6631 164.455 55.825 164.438 55.9783H153.069V53.8577H162.752L161.5 54.522C161.517 53.7387 161.355 53.0489 161.014 52.4525C160.674 51.8562 160.206 51.3882 159.609 51.0473C159.03 50.7067 158.357 50.5363 157.591 50.5363C156.807 50.5363 156.118 50.7067 155.521 51.0473C154.942 51.3882 154.483 51.8649 154.142 52.4781C153.818 53.0744 153.656 53.7811 153.656 54.5987V55.1097C153.656 55.9272 153.844 56.6513 154.218 57.2813C154.593 57.9114 155.121 58.3968 155.802 58.7377C156.484 59.0785 157.267 59.2486 158.153 59.2486C158.919 59.2486 159.609 59.1296 160.222 58.8909C160.836 58.6523 161.381 58.2778 161.858 57.7668L163.569 59.7341C162.956 60.4495 162.181 61.0028 161.244 61.3948C160.325 61.7693 159.268 61.9569 158.076 61.9569ZM184.777 47.9814C185.867 47.9814 186.829 48.1943 187.664 48.6202C188.516 49.046 189.18 49.7018 189.657 50.5874C190.134 51.4561 190.372 52.5803 190.372 53.9599V61.778H187.178V54.3687C187.178 53.1592 186.915 52.2568 186.386 51.6605C185.859 51.0643 185.101 50.7663 184.112 50.7663C183.414 50.7663 182.793 50.9196 182.247 51.2262C181.72 51.5328 181.302 51.984 180.995 52.5803C180.706 53.1766 180.561 53.9344 180.561 54.8542V61.778H177.367V54.3687C177.367 53.1592 177.104 52.2568 176.575 51.6605C176.048 51.0643 175.29 50.7663 174.302 50.7663C173.604 50.7663 172.982 50.9196 172.436 51.2262C171.909 51.5328 171.491 51.984 171.185 52.5803C170.895 53.1766 170.75 53.9344 170.75 54.8542V61.778H167.557V48.1347H170.597V51.7627L170.06 50.6896C170.52 49.804 171.185 49.1311 172.053 48.6712C172.939 48.2114 173.944 47.9814 175.068 47.9814C176.346 47.9814 177.453 48.2965 178.389 48.9267C179.343 49.5569 179.974 50.5108 180.28 51.7883L179.028 51.3539C179.471 50.332 180.203 49.5144 181.225 48.9012C182.247 48.288 183.431 47.9814 184.777 47.9814ZM195.328 66.9134C194.664 66.9134 194 66.8025 193.335 66.5813C192.671 66.36 192.117 66.0534 191.675 65.6615L192.952 63.311C193.275 63.6007 193.642 63.8306 194.051 64.0008C194.459 64.171 194.876 64.2563 195.303 64.2563C195.881 64.2563 196.35 64.1117 196.708 63.822C197.065 63.5322 197.398 63.0468 197.704 62.3656L198.496 60.5772L198.752 60.194L203.913 48.1347H206.979L200.591 62.8766C200.165 63.8986 199.688 64.7075 199.16 65.3038C198.649 65.9001 198.07 66.3171 197.423 66.5557C196.793 66.7944 196.095 66.9134 195.328 66.9134ZM198.139 62.2635L191.981 48.1347H195.303L200.31 59.9129L198.139 62.2635Z" fill="white"/>
<path d="M63.8731 0H10.2197C4.57552 0 0 4.57552 0 10.2197V63.8731C0 69.5173 4.57552 74.0928 10.2197 74.0928H63.8731C69.5173 74.0928 74.0928 69.5173 74.0928 63.8731V10.2197C74.0928 4.57552 69.5173 0 63.8731 0Z" fill="white"/>
<path d="M11.2928 21.2568H74.0928V52.8357H11.2928V21.2568Z" fill="white"/>
<mask id="mask0_10_31" style="mask-type:luminance" maskUnits="userSpaceOnUse" x="11" y="21" width="64" height="32">
<path d="M11.2928 21.2568H74.0928V52.8357H11.2928V21.2568Z" fill="white"/>
</mask>
<g mask="url(#mask0_10_31)">
<path d="M11.2928 21.2571V19.7241H9.75981V21.2571H11.2928ZM11.2928 52.8359H9.75981V54.3689H11.2928V52.8359ZM11.2928 22.79H74.0928V19.7241H11.2928V22.79ZM74.0928 51.303H11.2928V54.3689H74.0928V51.303ZM12.8257 52.8359V21.2571H9.75981V52.8359H12.8257Z" fill="#EAEAEA"/>
</g>
<path opacity="0.2" d="M35.9733 21.2568H11.2928V52.8357H35.9733V21.2568Z" fill="black"/>
<path d="M24.4046 50.0359C22.5208 50.0359 20.7801 49.7258 19.1824 49.1059C17.5847 48.462 16.2016 47.5678 15.0332 46.4232C13.8647 45.2786 12.9467 43.9313 12.279 42.3813C11.6351 40.8313 11.3132 39.1382 11.3132 37.3021C11.3132 35.466 11.6351 33.7729 12.279 32.2229C12.9467 30.6729 13.8647 29.3256 15.0332 28.181C16.2255 27.0364 17.6204 26.1541 19.2181 25.5341C20.8158 24.8903 22.5566 24.5684 24.4404 24.5684C26.2527 24.5684 27.9577 24.8784 29.5554 25.4984C31.1531 26.0945 32.5003 27.0006 33.5973 28.2168L31.9161 29.8979C30.8907 28.8487 29.7581 28.0976 28.5181 27.6445C27.2781 27.1676 25.9427 26.9291 24.5119 26.9291C23.0097 26.9291 21.6147 27.1914 20.327 27.716C19.0393 28.2168 17.9186 28.9441 16.9647 29.8979C16.0108 30.8279 15.2597 31.9249 14.7113 33.1887C14.1866 34.4287 13.9243 35.7998 13.9243 37.3021C13.9243 38.8044 14.1866 40.1875 14.7113 41.4513C15.2597 42.6913 16.0108 43.7882 16.9647 44.742C17.9186 45.672 19.0393 46.3993 20.327 46.924C21.6147 47.4247 23.0097 47.6751 24.5119 47.6751C25.9427 47.6751 27.2781 47.4366 28.5181 46.9597C29.7581 46.4828 30.8907 45.7197 31.9161 44.6705L33.5973 46.3516C32.5003 47.5678 31.1531 48.4859 29.5554 49.1059C27.9577 49.7258 26.2408 50.0359 24.4046 50.0359Z" fill="#343434"/>
<path d="M35.7178 52.8357V21.2568" stroke="black" stroke-width="1.5"/>
</g>
<defs>
<clipPath id="clip0_10_31">
<rect width="207" height="74.0928" fill="white"/>
</clipPath>
</defs>
</svg>
