<svg width="201" height="72" viewBox="0 0 201 72" fill="none" xmlns="http://www.w3.org/2000/svg">
<g clip-path="url(#clip0_8_16)">
<path d="M90.6013 29.9917C89.278 29.9917 88.046 29.7766 86.9048 29.3462C85.78 28.8993 84.7961 28.2786 83.9526 27.4841C83.1255 26.6731 82.4805 25.7214 82.0175 24.629C81.5546 23.5366 81.3229 22.3448 81.3229 21.0538C81.3229 19.7628 81.5546 18.571 82.0175 17.4786C82.4805 16.3862 83.1339 15.4428 83.9774 14.6483C84.8209 13.8373 85.8048 13.2166 86.9296 12.7862C88.0545 12.3393 89.2865 12.1159 90.6261 12.1159C92.0487 12.1159 93.3467 12.3641 94.5211 12.8607C95.6955 13.3407 96.6879 14.0607 97.4981 15.0207L95.4142 16.9821C94.7856 16.3034 94.083 15.7986 93.3055 15.4676C92.528 15.12 91.6845 14.9462 90.775 14.9462C89.8655 14.9462 89.0299 15.0952 88.2693 15.3931C87.5251 15.691 86.8716 16.1131 86.3094 16.6593C85.7636 17.2055 85.3335 17.851 85.0194 18.5959C84.7217 19.3407 84.5728 20.16 84.5728 21.0538C84.5728 21.9476 84.7217 22.7669 85.0194 23.5117C85.3335 24.2566 85.7636 24.9021 86.3094 25.4483C86.8716 25.9945 87.5251 26.4166 88.2693 26.7145C89.0299 27.0124 89.8655 27.1614 90.775 27.1614C91.6845 27.1614 92.528 26.9959 93.3055 26.6648C94.083 26.3172 94.7856 25.7959 95.4142 25.1007L97.4981 27.0869C96.6879 28.0303 95.6955 28.7503 94.5211 29.2469C93.3467 29.7434 92.0402 29.9917 90.6013 29.9917ZM105.736 29.9172C104.38 29.9172 103.172 29.6276 102.114 29.0483C101.055 28.4524 100.22 27.6414 99.6084 26.6152C98.9961 25.5889 98.6905 24.4221 98.6905 23.1145C98.6905 21.7903 98.9961 20.6234 99.6084 19.6138C100.22 18.5876 101.055 17.7848 102.114 17.2055C103.172 16.6262 104.38 16.3366 105.736 16.3366C107.109 16.3366 108.324 16.6262 109.383 17.2055C110.458 17.7848 111.293 18.5793 111.889 19.589C112.5 20.5986 112.807 21.7738 112.807 23.1145C112.807 24.4221 112.5 25.5889 111.889 26.6152C111.293 27.6414 110.458 28.4524 109.383 29.0483C108.324 29.6276 107.109 29.9172 105.736 29.9172ZM105.736 27.2607C106.497 27.2607 107.175 27.0952 107.77 26.7641C108.366 26.4331 108.829 25.9531 109.16 25.3241C109.507 24.6952 109.681 23.9586 109.681 23.1145C109.681 22.2538 109.507 21.5172 109.16 20.9048C108.829 20.2758 108.366 19.7959 107.77 19.4648C107.175 19.1338 106.505 18.9683 105.761 18.9683C105 18.9683 104.322 19.1338 103.727 19.4648C103.148 19.7959 102.685 20.2758 102.337 20.9048C101.99 21.5172 101.816 22.2538 101.816 23.1145C101.816 23.9586 101.99 24.6952 102.337 25.3241C102.685 25.9531 103.148 26.4331 103.727 26.7641C104.322 27.0952 104.992 27.2607 105.736 27.2607ZM121.726 29.9172C120.37 29.9172 119.163 29.6276 118.104 29.0483C117.045 28.4524 116.21 27.6414 115.598 26.6152C114.986 25.5889 114.68 24.4221 114.68 23.1145C114.68 21.7903 114.986 20.6234 115.598 19.6138C116.21 18.5876 117.045 17.7848 118.104 17.2055C119.163 16.6262 120.37 16.3366 121.726 16.3366C123.099 16.3366 124.314 16.6262 125.373 17.2055C126.448 17.7848 127.283 18.5793 127.878 19.589C128.491 20.5986 128.796 21.7738 128.796 23.1145C128.796 24.4221 128.491 25.5889 127.878 26.6152C127.283 27.6414 126.448 28.4524 125.373 29.0483C124.314 29.6276 123.099 29.9172 121.726 29.9172ZM121.726 27.2607C122.487 27.2607 123.165 27.0952 123.76 26.7641C124.356 26.4331 124.819 25.9531 125.149 25.3241C125.497 24.6952 125.67 23.9586 125.67 23.1145C125.67 22.2538 125.497 21.5172 125.149 20.9048C124.819 20.2758 124.356 19.7959 123.76 19.4648C123.165 19.1338 122.495 18.9683 121.751 18.9683C120.99 18.9683 120.312 19.1338 119.716 19.4648C119.138 19.7959 118.674 20.2758 118.327 20.9048C117.98 21.5172 117.806 22.2538 117.806 23.1145C117.806 23.9586 117.98 24.6952 118.327 25.3241C118.674 25.9531 119.138 26.4331 119.716 26.7641C120.312 27.0952 120.982 27.2607 121.726 27.2607ZM131.762 29.7434V11.3214H134.863V29.7434H131.762ZM80.1073 60.0331L87.922 42.6538H91.0975L98.937 60.0331H95.5631L88.8399 44.3669H90.13L83.4316 60.0331H80.1073ZM83.7045 56.011L84.5728 53.4786H93.9505L94.8188 56.011H83.7045ZM106.805 60.2069C105.416 60.2069 104.175 59.9174 103.084 59.3379C102.008 58.7421 101.165 57.9312 100.553 56.9048C99.9413 55.8785 99.6352 54.7116 99.6352 53.4041C99.6352 52.0798 99.9413 50.9129 100.553 49.9034C101.165 48.8772 102.008 48.0745 103.084 47.4952C104.175 46.9158 105.416 46.6262 106.805 46.6262C108.095 46.6262 109.228 46.891 110.204 47.4207C111.196 47.9338 111.949 48.6952 112.461 49.7048L110.08 51.0952C109.683 50.466 109.195 50.0028 108.616 49.7048C108.054 49.4069 107.441 49.2579 106.78 49.2579C106.019 49.2579 105.333 49.4234 104.721 49.7545C104.109 50.0857 103.629 50.5653 103.282 51.1945C102.935 51.8067 102.761 52.5436 102.761 53.4041C102.761 54.2647 102.935 55.0095 103.282 55.6386C103.629 56.2509 104.109 56.7226 104.721 57.0538C105.333 57.385 106.019 57.5503 106.78 57.5503C107.441 57.5503 108.054 57.4014 108.616 57.1034C109.195 56.8055 109.683 56.3422 110.08 55.7131L112.461 57.1034C111.949 58.0965 111.196 58.8662 110.204 59.4124C109.228 59.9422 108.095 60.2069 106.805 60.2069ZM123.304 60.0331V57.3517L123.13 56.7807V52.0883C123.13 51.1781 122.858 50.4745 122.312 49.9779C121.766 49.4648 120.939 49.2083 119.831 49.2083C119.087 49.2083 118.35 49.3241 117.623 49.5559C116.911 49.7878 116.308 50.1105 115.812 50.5241L114.596 48.2648C115.307 47.7186 116.151 47.3131 117.127 47.0483C118.119 46.7669 119.144 46.6262 120.203 46.6262C122.121 46.6262 123.602 47.0896 124.644 48.0166C125.702 48.9269 126.232 50.3419 126.232 52.2621V60.0331H123.304ZM119.136 60.2069C118.144 60.2069 117.276 60.0415 116.531 59.7103C115.787 59.3628 115.208 58.891 114.795 58.2952C114.398 57.6829 114.199 56.9957 114.199 56.2345C114.199 55.4897 114.373 54.8193 114.72 54.2234C115.084 53.6276 115.671 53.1559 116.482 52.8083C117.292 52.4607 118.367 52.2869 119.707 52.2869H123.552V54.3476H119.93C118.871 54.3476 118.16 54.5214 117.797 54.869C117.432 55.2002 117.251 55.6138 117.251 56.1103C117.251 56.6729 117.474 57.1198 117.921 57.451C118.367 57.7822 118.987 57.9476 119.781 57.9476C120.542 57.9476 121.22 57.7738 121.816 57.4262C122.427 57.0786 122.866 56.5657 123.13 55.8869L123.651 57.749C123.354 58.5271 122.816 59.1309 122.039 59.5614C121.278 59.9919 120.31 60.2069 119.136 60.2069ZM135.842 60.2069C134.569 60.2069 133.419 59.9254 132.394 59.3628C131.385 58.7833 130.591 57.9888 130.012 56.9793C129.433 55.9698 129.144 54.7781 129.144 53.4041C129.144 52.0302 129.433 50.8385 130.012 49.829C130.591 48.8193 131.385 48.0331 132.394 47.4703C133.419 46.9076 134.569 46.6262 135.842 46.6262C136.95 46.6262 137.943 46.8745 138.819 47.371C139.696 47.8511 140.39 48.5876 140.903 49.5807C141.416 50.5738 141.672 51.8484 141.672 53.4041C141.672 54.9434 141.424 56.2181 140.928 57.2276C140.432 58.2207 139.745 58.9655 138.869 59.4621C137.992 59.9586 136.984 60.2069 135.842 60.2069ZM136.215 57.5503C136.959 57.5503 137.62 57.385 138.199 57.0538C138.795 56.7226 139.266 56.2429 139.613 55.6138C139.977 54.9847 140.159 54.2483 140.159 53.4041C140.159 52.5436 139.977 51.8067 139.613 51.1945C139.266 50.5653 138.795 50.0857 138.199 49.7545C137.62 49.4234 136.959 49.2579 136.215 49.2579C135.47 49.2579 134.8 49.4234 134.205 49.7545C133.626 50.0857 133.155 50.5653 132.791 51.1945C132.444 51.8067 132.27 52.5436 132.27 53.4041C132.27 54.2483 132.444 54.9847 132.791 55.6138C133.155 56.2429 133.626 56.7226 134.205 57.0538C134.8 57.385 135.47 57.5503 136.215 57.5503ZM140.234 60.0331V56.9048L140.358 53.3793L140.11 49.8538V41.611H143.186V60.0331H140.234ZM153.494 60.2069C152.022 60.2069 150.732 59.9174 149.624 59.3379C148.533 58.7421 147.681 57.9312 147.069 56.9048C146.473 55.8785 146.176 54.7116 146.176 53.4041C146.176 52.0798 146.465 50.9129 147.044 49.9034C147.639 48.8772 148.45 48.0745 149.475 47.4952C150.517 46.9158 151.7 46.6262 153.023 46.6262C154.313 46.6262 155.463 46.9076 156.471 47.4703C157.48 48.0331 158.274 48.8276 158.853 49.8538C159.432 50.8802 159.721 52.0883 159.721 53.4786C159.721 53.6112 159.713 53.7602 159.697 53.9255C159.697 54.0909 159.688 54.2483 159.672 54.3972H148.632V52.3366H158.034L156.819 52.9821C156.835 52.2209 156.678 51.5505 156.347 50.971C156.016 50.3916 155.562 49.9367 154.983 49.6055C154.421 49.2745 153.767 49.109 153.023 49.109C152.262 49.109 151.592 49.2745 151.013 49.6055C150.451 49.9367 150.005 50.4 149.674 50.9959C149.36 51.5753 149.202 52.2621 149.202 53.0565V53.5531C149.202 54.3476 149.385 55.0512 149.748 55.6634C150.112 56.2757 150.625 56.7474 151.286 57.0786C151.948 57.4098 152.709 57.5752 153.569 57.5752C154.313 57.5752 154.983 57.4595 155.578 57.2276C156.174 56.9957 156.703 56.6317 157.166 56.1352L158.828 58.0469C158.233 58.7421 157.48 59.2798 156.571 59.6607C155.677 60.0247 154.652 60.2069 153.494 60.2069ZM179.421 46.6262C180.48 46.6262 181.414 46.8331 182.224 47.2469C183.051 47.6607 183.696 48.2979 184.159 49.1586C184.623 50.0028 184.854 51.0952 184.854 52.4359V60.0331H181.753V52.8331C181.753 51.6578 181.497 50.7809 180.984 50.2014C180.471 49.6221 179.735 49.3324 178.776 49.3324C178.098 49.3324 177.494 49.4814 176.965 49.7793C176.452 50.0772 176.047 50.5157 175.749 51.0952C175.468 51.6746 175.327 52.411 175.327 53.3048V60.0331H172.226V52.8331C172.226 51.6578 171.97 50.7809 171.457 50.2014C170.945 49.6221 170.209 49.3324 169.249 49.3324C168.572 49.3324 167.968 49.4814 167.438 49.7793C166.926 50.0772 166.52 50.5157 166.223 51.0952C165.942 51.6746 165.801 52.411 165.801 53.3048V60.0331H162.7V46.7752H165.652V50.3007L165.131 49.2579C165.578 48.3973 166.223 47.7434 167.066 47.2966C167.927 46.8497 168.902 46.6262 169.994 46.6262C171.234 46.6262 172.309 46.9324 173.219 47.5448C174.145 48.1572 174.757 49.0841 175.055 50.3255L173.839 49.9034C174.269 48.9103 174.98 48.1159 175.972 47.52C176.965 46.9241 178.114 46.6262 179.421 46.6262ZM189.666 65.0234C189.021 65.0234 188.376 64.9157 187.731 64.7007C187.086 64.4857 186.548 64.1877 186.119 63.8069L187.359 61.5228C187.673 61.8043 188.029 62.0277 188.426 62.1931C188.823 62.3585 189.228 62.4414 189.642 62.4414C190.204 62.4414 190.659 62.3009 191.006 62.0193C191.353 61.7378 191.676 61.266 191.974 60.6041L192.743 58.8662L192.991 58.4938L198.002 46.7752H200.979L194.777 61.1007C194.363 62.0938 193.9 62.8798 193.388 63.4593C192.892 64.0388 192.329 64.444 191.701 64.6759C191.088 64.9077 190.411 65.0234 189.666 65.0234ZM192.395 60.5048L186.416 46.7752H189.642L194.504 58.2207L192.395 60.5048Z" fill="#2A3C6A"/>
<path d="M62.0217 0H9.92348C4.44289 0 0 4.44628 0 9.93104V62.069C0 67.5537 4.44289 72 9.92348 72H62.0217C67.5023 72 71.9452 67.5537 71.9452 62.069V9.93104C71.9452 4.44628 67.5023 0 62.0217 0Z" fill="#2A3C6A"/>
<path d="M10.9654 20.6566H71.9452V51.3435H10.9654V20.6566Z" fill="#5C76A9"/>
<path d="M34.9306 20.6566H10.9654V51.3435H34.9306V20.6566Z" fill="#3F4D5E"/>
<path d="M23.6973 48.6223C21.868 48.6223 20.1777 48.3211 18.6264 47.7186C17.075 47.093 15.732 46.224 14.5974 45.1117C13.4628 43.9994 12.5714 42.6902 11.9231 41.184C11.2979 39.6778 10.9853 38.0325 10.9853 36.2483C10.9853 34.464 11.2979 32.8187 11.9231 31.3126C12.5714 29.8064 13.4628 28.4971 14.5974 27.3848C15.7552 26.2726 17.1097 25.4152 18.6611 24.8127C20.2125 24.187 21.9027 23.8742 23.732 23.8742C25.4918 23.8742 27.1473 24.1755 28.6987 24.7779C30.2501 25.3573 31.5583 26.2378 32.6234 27.4196L30.991 29.0532C29.9953 28.0337 28.8955 27.3037 27.6915 26.8634C26.4874 26.4 25.1907 26.1683 23.8015 26.1683C22.3427 26.1683 20.9882 26.4232 19.7378 26.933C18.4874 27.4196 17.3992 28.1263 16.473 29.0532C15.5468 29.957 14.8174 31.0229 14.2848 32.251C13.7754 33.456 13.5207 34.7884 13.5207 36.2483C13.5207 37.7081 13.7754 39.0522 14.2848 40.2803C14.8174 41.4853 15.5468 42.5512 16.473 43.4781C17.3992 44.3818 18.4874 45.0885 19.7378 45.5983C20.9882 46.085 22.3427 46.3283 23.8015 46.3283C25.1907 46.3283 26.4874 46.0965 27.6915 45.6331C28.8955 45.1697 29.9953 44.4281 30.991 43.4086L32.6234 45.0422C31.5583 46.224 30.2501 47.1162 28.6987 47.7186C27.1473 48.3211 25.4802 48.6223 23.6973 48.6223Z" fill="white"/>
<path d="M34.6825 51.3434V20.6566" stroke="white" stroke-width="1.5"/>
</g>
<defs>
<clipPath id="clip0_8_16">
<rect width="201" height="72" fill="white"/>
</clipPath>
</defs>
</svg>
