<svg width="104" height="92" viewBox="0 0 104 92" fill="none" xmlns="http://www.w3.org/2000/svg">
<path d="M17.7483 80.7525L7.91952 90.5813C6.46213 92.0387 4.77786 92.3732 2.86672 91.5849C0.955572 90.7966 0 89.3642 0 87.2877V9.32115C0 6.66401 0.890201 4.44716 2.6706 2.6706C4.451 0.894046 6.66785 0.00384536 9.32115 0H94.5093C97.1626 0 99.3795 0.890201 101.16 2.6706C102.94 4.451 103.829 6.66785 103.825 9.32115V71.4372C103.825 74.0905 102.936 76.3073 101.16 78.0877C99.3833 79.8681 97.1665 80.7564 94.5093 80.7525H17.7483ZM28.8402 44.8177C30.0323 44.8177 31.0705 44.3755 31.9549 43.491C32.8394 42.6066 33.2816 41.5683 33.2816 40.3763C33.2816 39.1842 32.8394 38.146 31.9549 37.2615C31.0705 36.3771 30.0323 35.9349 28.8402 35.9349C27.6481 35.9349 26.6099 36.3771 25.7255 37.2615C24.841 38.146 24.3988 39.1842 24.3988 40.3763C24.3988 41.5683 24.841 42.6066 25.7255 43.491C26.6099 44.3755 27.6481 44.8177 28.8402 44.8177ZM51.9124 44.8177C53.1044 44.8177 54.1427 44.3755 55.0271 43.491C55.9115 42.6066 56.3538 41.5683 56.3538 40.3763C56.3538 39.1842 55.9115 38.146 55.0271 37.2615C54.1427 36.3771 53.1044 35.9349 51.9124 35.9349C50.7203 35.9349 49.682 36.3771 48.7976 37.2615C47.9132 38.146 47.471 39.1842 47.471 40.3763C47.471 41.5683 47.9132 42.6066 48.7976 43.491C49.682 44.3755 50.7203 44.8177 51.9124 44.8177ZM74.9845 44.8177C76.1766 44.8177 77.2148 44.3755 78.0993 43.491C78.9837 42.6066 79.4259 41.5683 79.4259 40.3763C79.4259 39.1842 78.9837 38.146 78.0993 37.2615C77.2148 36.3771 76.1766 35.9349 74.9845 35.9349C73.7925 35.9349 72.7542 36.3771 71.8698 37.2615C70.9853 38.146 70.5431 39.1842 70.5431 40.3763C70.5431 41.5683 70.9853 42.6066 71.8698 43.491C72.7542 44.3755 73.7925 44.8177 74.9845 44.8177Z" fill="white"/>
</svg>
