<svg width="199" height="59" viewBox="0 0 199 59" fill="none" xmlns="http://www.w3.org/2000/svg">
<g clip-path="url(#clip0_48_665)">
<mask id="mask0_48_665" style="mask-type:luminance" maskUnits="userSpaceOnUse" x="0" y="0" width="199" height="59">
<path d="M0.420715 0.881104H198.87V58.7168H0.420715V0.881104Z" fill="white"/>
</mask>
<g mask="url(#mask0_48_665)">
<path d="M19.9962 1.07934C19.6008 1.19997 18.9144 1.66541 18.4376 2.13085C15.5901 4.90123 13.7003 11.4738 8.73331 35.7399C7.90258 39.744 7.05049 43.4649 6.84214 44.0313C6.63512 44.5977 6.11559 45.3857 5.69889 45.7699C4.99237 46.4385 4.93094 46.4582 2.99837 46.5185C1.93792 46.5579 1.04443 46.6195 1.04443 46.6601C1.04443 46.6995 0.89885 47.4494 0.733239 48.3187C0.566293 49.188 0.420715 49.9759 0.420715 50.0769C0.420715 50.4007 5.22209 50.0769 6.13696 49.7137C8.19374 48.8641 9.60543 47.3065 10.3961 45.0422C10.6231 44.3749 11.518 40.4114 12.3701 36.2447C16.2138 17.6216 18.3334 9.26986 19.9534 6.09565C20.66 4.76094 21.0539 4.37679 21.3665 4.74128C22.6126 6.21628 24.3381 14.4881 26.1879 27.8549C27.8707 40.0482 29.5121 51.0288 29.9275 52.8695C30.3228 54.6094 31.1963 56.7321 31.8387 57.5004C32.8778 58.7328 35.2684 59.0986 36.5986 58.2281C37.4708 57.663 38.3643 56.247 39.2578 54.0023C39.6317 53.0924 40.1726 51.839 40.4625 51.2516L40.962 50.2001H180.127L180.377 48.7238C180.501 47.9358 180.667 47.1059 180.708 46.904C180.812 46.5801 177.384 46.5605 110.577 46.5605C61.4736 46.5605 40.174 46.6208 39.7573 46.7834C38.4284 47.2685 37.3479 48.9061 35.7679 52.7686C35.394 53.6785 34.9572 54.5687 34.8117 54.7707C34.5632 55.1142 34.5218 55.0735 34.2307 54.3865C33.4614 52.627 32.7963 48.6229 30.4483 31.7987C28.3502 16.8533 27.5595 12.0809 26.3749 7.77388C24.8389 2.05088 23.072 0.229743 19.9962 1.07934Z" fill="black"/>
<path d="M98.1083 17.4313C97.9841 17.978 97.8386 18.787 97.7557 19.2118L97.6302 19.9998L95.5107 20.1217C94.3674 20.2017 92.8515 20.4049 92.1651 20.5662C86.6385 21.9415 82.8147 26.5527 82.8561 31.7893C82.8762 36.3192 85.7022 38.7657 91.1887 39.0292C92.6846 39.0895 93.5166 39.2115 93.5166 39.3531C93.4953 39.4737 93.3697 40.162 93.2041 40.8897C92.706 43.1343 92.2278 42.9114 97.6302 42.9114H102.389L102.784 41.0313L103.178 39.1695L105.672 39.0489C111.782 38.746 115.854 35.8944 117.413 30.819C117.808 29.5853 117.871 28.9782 117.787 27.0771C117.725 25.0357 117.662 24.7119 117.101 23.7417C116.769 23.1346 116.207 22.4266 115.854 22.1434C114.317 20.869 111.407 20.0601 108.353 20.0601C107.73 20.0601 107.232 19.9998 107.232 19.8988C107.252 19.8175 107.376 19.1711 107.543 18.4435C108.041 16.1975 108.519 16.4204 103.095 16.4204H98.338L98.111 17.4313H98.1083ZM96.7367 26.1672C96.6753 26.4294 96.3013 28.13 95.926 29.9498C95.532 31.7486 95.1167 33.3456 94.9911 33.4675C94.6385 33.8123 93.2041 33.2866 92.6231 32.5982C90.7106 30.4139 93.0585 25.7634 96.0716 25.7228C96.7794 25.7228 96.8409 25.7608 96.7367 26.1672ZM107.439 26.0256C110.016 27.321 108.52 32.5786 105.36 33.4072C103.885 33.7913 103.885 33.8123 104.654 30.0298C105.049 28.1693 105.402 26.4308 105.465 26.1672C105.61 25.6218 106.504 25.5615 107.439 26.0256ZM48.8405 18.1642C48.8405 18.2245 47.7186 23.6643 46.347 30.2172C44.9753 36.7885 43.8535 42.2493 43.8535 42.3503C43.8535 42.4316 45.6605 42.5115 47.8842 42.5115C51.5624 42.5115 51.9363 42.4722 52.0405 42.1484C52.0806 41.9661 52.9954 37.6591 54.0345 32.6035C55.095 27.5478 55.9884 23.3614 56.0299 23.3208C56.0713 23.2815 56.1541 23.2815 56.2168 23.3208C56.2582 23.3824 56.4452 27.1427 56.6322 31.6936C56.7991 36.2641 57.0062 40.5501 57.0689 41.2384L57.1931 42.5128H65.1518L69.5992 32.947C72.0514 27.7091 74.0868 23.3628 74.1295 23.3208C74.4207 22.9576 74.1295 24.5546 72.4039 32.7647C71.3235 37.9213 70.4513 42.2296 70.4513 42.3306C70.4513 42.4316 72.2797 42.5128 74.7118 42.5128C78.9509 42.5128 78.9709 42.5128 79.0751 42.0474C79.4077 40.6524 83.958 18.5693 83.958 18.3268C83.958 18.0842 82.8775 18.0436 76.8728 18.0842L69.7649 18.1445L66.8774 24.7171C65.2773 28.3358 63.9057 31.3697 63.8229 31.451C63.656 31.6123 63.5932 30.5411 63.262 21.522L63.1151 18.0436H55.9885C52.0619 18.0436 48.8405 18.1039 48.8405 18.1642ZM120.009 18.488C119.802 19.3573 118.66 24.9794 118.66 25.1616C118.66 25.2429 120.57 25.3229 122.898 25.3229H127.137L125.391 33.6353C124.436 38.2045 123.646 42.0671 123.646 42.2296C123.646 42.4722 124.478 42.5115 128.426 42.5115C131.065 42.5115 133.204 42.4722 133.204 42.4106C133.204 42.29 136.467 26.4753 136.634 25.7686C136.737 25.3229 136.758 25.3229 140.998 25.3229C145.237 25.3229 145.258 25.3229 145.361 24.8574C145.569 24.0091 146.712 18.3871 146.712 18.2048C146.712 18.1236 140.728 18.0436 133.413 18.0436H120.113L120.009 18.488ZM148.998 18.0842C148.998 18.1236 147.876 23.503 146.504 30.0547C145.132 36.6273 144.011 42.1077 144.011 42.2493C144.011 42.4512 145.152 42.5115 149.621 42.5115H155.231L156.976 39.9234C162.152 32.2193 164.395 28.9232 164.478 29.0032C164.52 29.0438 163.939 32.0777 163.169 35.7383L161.778 42.4119L166.536 42.4722C169.154 42.4919 171.315 42.4919 171.336 42.4722C171.398 42.4106 176.428 18.3058 176.428 18.1249C176.428 18.0842 173.891 18.0632 170.795 18.0842L165.143 18.1445L160.552 25.0606C158.037 28.8825 155.896 31.9964 155.834 31.9964C155.772 31.9964 156.354 28.9638 157.122 25.2626C157.913 21.5823 158.556 18.4277 158.556 18.2861C158.556 18.1039 157.454 18.0436 153.776 18.0436C151.159 18.0436 148.998 18.0632 148.998 18.0829V18.0842ZM184.76 48.3184C184.386 50.1592 184.138 51.6959 184.179 51.7562C184.241 51.7968 187.566 51.1701 191.577 50.3612L198.849 48.9058L192.782 47.1253C189.436 46.1551 186.423 45.2662 186.07 45.1639L185.405 44.983L184.76 48.3184Z" fill="black"/>
</g>
</g>
<defs>
<clipPath id="clip0_48_665">
<rect width="199" height="59" fill="white"/>
</clipPath>
</defs>
</svg>
