<svg width="146" height="72" viewBox="0 0 146 72" fill="none" xmlns="http://www.w3.org/2000/svg">
<path d="M38.4463 35.4024C41.0201 30.4278 43.095 25.2014 44.6395 19.8024C44.1306 19.7362 43.6203 19.6822 43.1089 19.6404C41.6018 24.8476 39.5895 29.8889 37.1017 34.6896C36.5989 35.6664 36.0821 36.6228 35.5522 37.5588C36.2805 37.3134 37.0047 37.0558 37.7246 36.786C37.9636 36.318 38.2073 35.8632 38.4463 35.4024ZM19.1508 24.9552C19.4757 24.3252 19.8136 23.7012 20.1386 23.0904C19.4227 23.3208 18.721 23.5512 18.031 23.7684L17.8073 24.2028C15.0096 29.5159 12.8262 35.1419 11.3009 40.968C11.7978 41.0088 12.3135 41.0424 12.8374 41.07C14.3314 35.4705 16.4504 30.0638 19.1508 24.9552Z" fill="black"/>
<path d="M16.2118 32.3436C15.9858 32.8932 15.768 33.4428 15.549 33.978C17.9654 36.1506 20.6619 37.9763 23.5636 39.4044C26.5875 40.9339 29.8143 42.0052 33.1419 42.5844C33.4599 42.096 33.8037 41.6004 34.0815 41.0988C30.6589 40.5884 27.3383 39.5238 24.2454 37.9452C21.3105 36.4931 18.6032 34.6053 16.2118 32.3436Z" fill="black"/>
<path d="M43.8117 29.0748C41.3156 25.6836 37.3665 22.5432 32.6969 20.2104C28.1603 17.952 23.4235 16.6968 19.3508 16.6968C14.846 16.6968 11.6541 18.2028 10.3554 20.9292C8.74583 24.3204 10.4284 28.7556 14.3704 32.832C14.5882 32.2752 14.806 31.7124 15.0321 31.1496C11.9449 27.7584 10.5543 24.1848 11.7659 21.6552C12.7726 19.5384 15.5348 18.3312 19.3438 18.3312C23.1527 18.3312 27.6764 19.5192 32.001 21.6744C36.4458 23.8992 40.1959 26.8764 42.5472 30.0648C44.7843 33.096 45.4672 35.91 44.4734 37.9848C43.4809 40.0608 40.7175 41.3364 36.9026 41.3364C36.5388 41.3364 36.1609 41.3364 35.777 41.2884C35.4662 41.8104 35.1483 42.3264 34.8304 42.8352C35.5392 42.9024 36.2339 42.9504 36.9026 42.9504C41.4074 42.9504 44.5994 41.4444 45.8981 38.718C47.1968 35.9916 46.428 32.6232 43.8117 29.0748Z" fill="black"/>
<path d="M34.3335 39.6204C28.0343 50.0652 20.4906 57.4572 15.735 57.4572C15.153 57.4638 14.5782 57.3267 14.0595 57.0576C11.4633 55.6464 10.7863 50.2752 12.463 42.6936C11.9331 42.6936 11.4292 42.6252 10.9323 42.5772C9.21092 50.5332 9.91973 56.5692 13.3507 58.4268C14.0854 58.8204 14.9049 59.0208 15.735 59.01C21.3913 59.01 29.645 50.8716 36.54 38.9016C35.8091 39.1547 35.0739 39.3947 34.3347 39.6216L34.3335 39.6204Z" fill="black"/>
<path d="M30.1207 38.6232C28.8962 38.9148 27.6634 39.1728 26.4507 39.396C27.4244 39.7956 28.4052 40.1484 29.3789 40.4472L30.4786 40.1952C35.3389 39.0871 40.0606 37.4221 44.5535 35.232C44.4592 34.6919 44.3129 34.1625 44.1167 33.6516C39.6554 35.8542 34.9588 37.5225 30.1207 38.6232ZM11.103 24.6888C11.1678 25.2348 11.2914 25.7724 11.4739 26.2896C16.1283 23.9044 21.0566 22.1206 26.1445 20.9796C26.8607 20.8115 27.579 20.653 28.2992 20.5044C27.3054 20.1305 26.2948 19.8045 25.2709 19.5276C20.3662 20.6763 15.6109 22.4086 11.103 24.6888ZM23.5436 39.8664C20.9514 40.2342 18.3381 40.4266 15.7208 40.4424C8.30899 40.4424 3.30143 38.6808 2.66562 35.838C2.11577 33.4308 4.83207 30.1416 10.0516 27.0828C9.86452 26.5712 9.71805 26.0451 9.61357 25.5096C3.70528 28.9008 0.341396 32.814 1.12203 36.204C1.96977 39.9264 7.28935 42.0636 15.6949 42.0636C19.2331 42.036 22.763 41.7036 26.2458 41.0664C25.3651 40.7064 24.4514 40.3068 23.5436 39.8664ZM55.1314 23.4C54.2908 19.6776 48.9724 17.5404 40.5597 17.5404C36.4838 17.5806 32.4207 18.0145 28.4252 18.8364C29.353 19.1688 30.2855 19.548 31.2145 19.9692C34.3042 19.4524 37.4287 19.1824 40.5597 19.1616C47.9715 19.1616 52.9791 20.9256 53.622 23.766C54.1118 25.944 51.9983 28.7724 47.8126 31.5252C47.1038 31.9932 46.342 32.448 45.5402 32.8812C45.745 33.3876 45.9111 33.9096 46.037 34.4412C46.9387 33.9504 47.8223 33.4261 48.6862 32.8692C53.4901 29.694 55.7943 26.322 55.1314 23.4Z" fill="black"/>
<path fill-rule="evenodd" clip-rule="evenodd" d="M32.1058 29.9461C32.1047 30.8302 31.8474 31.6943 31.3664 32.4301C30.8864 33.1647 30.2034 33.7377 29.4037 34.0765C28.6046 34.4149 27.7247 34.5028 26.8763 34.329C26.028 34.1552 25.2497 33.7276 24.641 33.1009C24.0306 32.4726 23.6154 31.6749 23.4475 30.8075C23.2795 29.9401 23.3662 29.0415 23.6967 28.2241C24.027 27.4076 24.587 26.709 25.3062 26.2165C26.147 25.6402 27.1586 25.3806 28.167 25.4825C29.1753 25.5843 30.1172 26.0412 30.8307 26.7745C31.2377 27.1916 31.5599 27.6864 31.7789 28.2306C31.9979 28.7749 32.1082 29.3578 32.1058 29.9461Z" fill="black"/>
<path d="M21.2853 21.0661C21.8458 20.1037 22.418 19.1653 23.0008 18.2521C22.431 18.1561 21.8682 18.0829 21.3183 18.0277C20.565 19.2384 19.8426 20.4688 19.1519 21.7177C19.8477 21.4945 20.5636 21.2773 21.2853 21.0661ZM23.9604 16.7809C29.7887 8.05925 36.2715 2.15165 40.5173 2.15165C41.0978 2.14205 41.6712 2.28005 42.1869 2.55125C44.9491 4.05125 45.5378 10.0453 43.4314 18.4009C43.9613 18.4489 44.4652 18.5029 44.955 18.5713C47.1144 9.86285 46.5445 3.15485 42.9016 1.18205C42.1656 0.792582 41.3465 0.594705 40.5173 0.606053C35.5427 0.606053 28.5547 6.85205 22.2755 16.5025C22.8325 16.5769 23.3894 16.6657 23.9604 16.7809ZM57.9784 71.1001V53.4289L49.8307 63.9337L41.6582 53.4277V71.1025H37.9093V46.2517H40.0946L49.8319 58.8517L59.575 46.2517H61.7215V71.1013L57.9784 71.1001ZM79.7972 71.1001V53.5441L66.968 71.0761H64.7886V46.2505H68.5375V63.7885L81.3596 46.2517H83.5449V71.1013H79.796L79.7972 71.1001ZM137.973 71.1001V53.5441L125.15 71.0761H122.965V46.2505H126.707V63.7885L139.537 46.2505H141.716V71.1001H137.973ZM108.279 38.0149V33.5869H103.907V38.0149H101.689V27.2113H103.907V31.5793H108.279V27.2113H110.498V38.0149H108.279ZM119.625 38.0149V31.2325L114.326 38.0149H113.002V27.2113H115.22V33.9937L120.519 27.2113H121.844V38.0149H119.625ZM130.397 38.0245V35.3881H129.158C128.065 35.3881 127.781 35.6653 126.906 36.9481L126.164 38.0257H123.674L124.64 36.5881C125.066 35.8426 125.642 35.1976 126.33 34.6957C125.621 34.4744 125.001 34.0247 124.564 33.4141C124.126 32.8019 123.892 32.0622 123.899 31.3045C123.899 29.0197 125.621 27.2365 128.767 27.2365H132.596V38.0389L130.397 38.0269V38.0245ZM128.582 29.2081C127.138 29.2081 126.012 29.8861 126.012 31.2769C126.012 32.6665 127.138 33.3589 128.582 33.3589H130.397V29.2081H128.582ZM136.297 38.0149L138.609 34.1089L134.528 27.2113H137.053L139.881 31.9177L142.689 27.2113H145.219L138.801 38.0149H136.297ZM111.81 47.1397C110.48 47.1272 109.169 47.4596 108 48.1057C106.829 48.7535 105.838 49.6931 105.12 50.8369V46.2517H101.376V57.4009C101.336 58.8988 100.788 60.3364 99.8251 61.4689C98.8664 62.5998 97.55 63.3536 96.1036 63.5999C94.6573 63.8462 93.172 63.5695 91.9046 62.8177C90.6355 62.0648 89.6624 60.886 89.1518 59.4829C88.6399 58.0772 88.6211 56.5342 89.0988 55.1161C89.5749 53.7001 90.5188 52.4967 91.7692 51.7117C93.0177 50.9277 94.4957 50.6132 95.9476 50.8224C97.3996 51.0317 98.7341 51.7516 99.7203 52.8577V48.9709C98.3008 47.7847 96.5213 47.1375 94.6857 47.1397C88.8975 47.1397 84.9755 51.6841 84.9755 57.4009C84.9755 63.1189 88.8963 67.6225 94.6857 67.6225C96.0116 67.6393 97.3201 67.3131 98.4887 66.6745C99.6597 66.0341 100.653 65.1024 101.376 63.9661V71.1013H105.165V56.9329C105.311 55.4709 105.942 54.1036 106.954 53.0569C107.962 52.0123 109.292 51.3526 110.721 51.1883C112.149 51.024 113.59 51.3651 114.801 52.1545C116.014 52.9456 116.926 54.1358 117.385 55.5277C117.846 56.9212 117.827 58.4331 117.331 59.8141C116.837 61.1929 115.895 62.3581 114.662 63.1165C113.431 63.8737 111.982 64.1766 110.558 63.9746C109.134 63.7725 107.821 63.0776 106.84 62.0065V65.9401C108.259 67.0623 110.006 67.6666 111.802 67.6561C117.551 67.6561 121.472 63.1453 121.472 57.4357C121.472 51.7237 117.552 47.1397 111.81 47.1397Z" fill="black"/>
</svg>
