<svg width="109" height="92" viewBox="0 0 109 92" fill="none" xmlns="http://www.w3.org/2000/svg">
<path d="M93.5791 29.2435C89.5318 29.2435 86.0811 27.8183 83.2269 24.9681C80.3728 22.1178 78.9496 18.6671 78.9574 14.6159C78.9652 10.5647 80.3884 7.11591 83.2269 4.26955C86.0655 1.42318 89.5162 0 93.5791 0C97.642 0 101.093 1.42318 103.931 4.26955C106.77 7.11591 108.193 10.5666 108.201 14.6217C108.209 18.6768 106.785 22.1256 103.931 24.9681C101.077 27.8105 97.6264 29.2337 93.5791 29.2376M9.45149 92C6.75719 92 4.50934 91.0993 2.70795 89.2979C0.906548 87.4965 0.00389913 85.2467 0 82.5485V19.5697C0 16.8754 0.902649 14.6276 2.70795 12.8262C4.51324 11.0248 6.75914 10.1221 9.44564 10.1182H63.1191C64.3045 10.1182 65.3143 10.5725 66.1488 11.481C66.9832 12.3895 67.3536 13.4345 67.26 14.6159C67.26 14.8654 67.2717 15.0974 67.2951 15.3119C67.3185 15.5263 67.3516 15.7447 67.3945 15.9669C67.5505 18.9381 68.1665 21.7455 69.2427 24.3891C70.315 27.0288 71.7459 29.4092 73.5357 31.5303L52.6383 45.2104L10.6446 17.8385C9.8843 17.3628 9.10057 17.2751 8.29345 17.5753C7.48633 17.8756 6.97164 18.439 6.74939 19.2656C6.44916 19.8427 6.40042 20.4217 6.60318 21.0027C6.80593 21.5836 7.18415 22.0418 7.73782 22.3771L50.018 50.059C50.8447 50.5659 51.7181 50.8193 52.6383 50.8193C53.5585 50.8193 54.4319 50.5659 55.2585 50.059L77.8695 35.2442C79.9751 37.03 82.3633 38.4259 85.0342 39.4319C87.7012 40.434 90.5495 40.935 93.5791 40.935C94.5851 40.935 95.6086 40.8824 96.6497 40.7771C97.6908 40.6718 98.7045 40.4652 99.691 40.1571C101.122 39.853 102.409 40.0831 103.551 40.8473C104.701 41.6115 105.277 42.6721 105.277 44.029V82.5543C105.277 85.2447 104.376 87.4926 102.574 89.2979C100.773 91.1032 98.5252 92.0039 95.8309 92H9.45149Z" fill="white"/>
</svg>
