<svg width="30" height="29" viewBox="0 0 30 29" fill="none" xmlns="http://www.w3.org/2000/svg">
<path d="M3.86832 24.8817C3.62514 24.8817 3.42134 24.8061 3.25693 24.6549C3.09253 24.5037 3.0109 24.3163 3.01204 24.0927C3.01318 23.8691 3.09481 23.6822 3.25693 23.5321C3.41906 23.3819 3.62285 23.3063 3.86832 23.3053H5.77954V10.8276C5.77954 8.76974 6.4874 6.96022 7.90313 5.399C9.31885 3.83778 11.1136 2.86503 13.2874 2.48076V1.62088C13.2874 1.18727 13.4547 0.816124 13.7892 0.50745C14.1237 0.198775 14.5273 0.0449629 15 0.0460128C15.4727 0.0470628 15.8763 0.200875 16.2108 0.50745C16.5453 0.814025 16.7126 1.18517 16.7126 1.62088V2.48076C18.8864 2.86398 20.6812 3.83673 22.0969 5.399C23.5126 6.96127 24.2205 8.77079 24.2205 10.8276V23.3053H26.1317C26.376 23.3053 26.5798 23.3809 26.7431 23.5321C26.9063 23.6832 26.988 23.8701 26.988 24.0927C26.988 24.3153 26.9063 24.5027 26.7431 24.6549C26.5798 24.8072 26.376 24.8822 26.1317 24.8801L3.86832 24.8817ZM15 29C14.2339 29 13.5814 28.7517 13.0425 28.2551C12.5037 27.7595 12.2342 27.1595 12.2342 26.455H17.7658C17.7658 27.1605 17.4963 27.7611 16.9575 28.2567C16.4186 28.7522 15.7661 28.9989 15 28.9968M0.837078 10.7977C0.593893 10.7977 0.390669 10.7126 0.227404 10.5425C0.0641396 10.3735 -0.0112132 10.1667 0.00134559 9.92202C0.141776 7.97338 0.686372 6.16753 1.63513 4.50447C2.5839 2.84141 3.82551 1.42087 5.35997 0.242872C5.5552 0.0748855 5.7784 -0.00595794 6.02958 0.000341538C6.28076 0.00664102 6.48341 0.102708 6.63754 0.288543C6.79167 0.474378 6.84019 0.675961 6.78311 0.893293C6.72602 1.11063 6.59986 1.29646 6.40463 1.4508C5.07111 2.48286 3.99848 3.72281 3.18672 5.17064C2.37496 6.61847 1.8983 8.19124 1.75673 9.88895C1.72247 10.1336 1.62714 10.3462 1.47073 10.5268C1.31431 10.7074 1.1031 10.7977 0.837078 10.7977ZM29.1629 10.7977C28.8958 10.7977 28.6845 10.7074 28.5293 10.5268C28.374 10.3462 28.2787 10.1336 28.2433 9.88895C28.1017 8.19124 27.625 6.61847 26.8133 5.17064C26.0015 3.72281 24.9289 2.48286 23.5954 1.4508C23.4001 1.29751 23.274 1.11168 23.2169 0.893293C23.1598 0.674911 23.2083 0.473328 23.3625 0.288543C23.5154 0.102708 23.7175 0.00664102 23.9687 0.000341538C24.2199 -0.00595794 24.4437 0.0748855 24.64 0.242872C26.1745 1.42192 27.4161 2.84298 28.3649 4.50604C29.3136 6.16911 29.8582 7.97496 29.9987 9.9236C30.0112 10.1672 29.9359 10.3735 29.7726 10.5425C29.6093 10.7126 29.4055 10.7977 29.1612 10.7977" fill="white"/>
</svg>
