<svg width="32" height="32" viewBox="0 0 32 32" fill="none" xmlns="http://www.w3.org/2000/svg">
<path d="M2.5856 32C1.84853 32 1.2336 31.7536 0.7408 31.2608C0.248 30.768 0.00106667 30.1531 0 29.416V26.0304C0 25.8043 0.0768001 25.6144 0.2304 25.4608C0.384 25.3072 0.5744 25.2304 0.8016 25.2304C1.0288 25.2304 1.21867 25.3072 1.3712 25.4608C1.52373 25.6144 1.6 25.8043 1.6 26.0304V29.416C1.6 29.7029 1.69227 29.9387 1.8768 30.1232C2.06133 30.3077 2.2976 30.4 2.5856 30.4H5.968C6.19413 30.4 6.384 30.4768 6.5376 30.6304C6.6912 30.784 6.768 30.9744 6.768 31.2016C6.768 31.4288 6.6912 31.6187 6.5376 31.7712C6.384 31.9237 6.19413 32 5.968 32H2.5856ZM29.416 32H26.0304C25.8043 32 25.6144 31.9232 25.4608 31.7696C25.3072 31.616 25.2304 31.4256 25.2304 31.1984C25.2304 30.9712 25.3072 30.7813 25.4608 30.6288C25.6144 30.4763 25.8043 30.4 26.0304 30.4H29.416C29.7029 30.4 29.9387 30.3077 30.1232 30.1232C30.3077 29.9387 30.4 29.7029 30.4 29.416V26.0304C30.4 25.8043 30.4768 25.6144 30.6304 25.4608C30.784 25.3072 30.9744 25.2304 31.2016 25.2304C31.4288 25.2304 31.6187 25.3072 31.7712 25.4608C31.9237 25.6144 32 25.8043 32 26.0304V29.416C32 30.152 31.7536 30.7669 31.2608 31.2608C30.768 31.7547 30.1531 32.0011 29.416 32ZM16 25.168C13.4187 25.168 11.0773 24.5141 8.976 23.2064C6.87253 21.8976 5.19253 20.0523 3.936 17.6704C3.80587 17.4123 3.7088 17.1483 3.6448 16.8784C3.5808 16.6096 3.5488 16.3355 3.5488 16.056C3.5488 15.7541 3.57813 15.4555 3.6368 15.16C3.69547 14.8645 3.7952 14.5872 3.936 14.328C5.19253 11.9472 6.87253 10.1024 8.976 8.7936C11.0773 7.48587 13.4187 6.832 16 6.832C18.5813 6.832 20.9227 7.4864 23.024 8.7952C25.1253 10.104 26.8053 11.9493 28.064 14.3312C28.2037 14.5893 28.3035 14.8597 28.3632 15.1424C28.4229 15.4251 28.4528 15.7115 28.4528 16.0016C28.4528 16.2917 28.4229 16.5787 28.3632 16.8624C28.3035 17.1461 28.2043 17.416 28.0656 17.672C26.8069 20.0539 25.1269 21.8992 23.0256 23.208C20.9221 24.5147 18.5803 25.168 16 25.168ZM16 23.568C18.4288 23.568 20.6064 22.9072 22.5328 21.5856C24.4592 20.264 25.9723 18.4021 27.072 16C25.9712 13.5957 24.4576 11.7333 22.5312 10.4128C20.6048 9.09227 18.4277 8.43147 16 8.4304C13.5723 8.42933 11.3947 9.09013 9.4672 10.4128C7.53973 11.7355 6.02667 13.5979 4.928 16C6.02987 18.4043 7.54347 20.2667 9.4688 21.5872C11.3941 22.9077 13.5712 23.5685 16 23.5696M16 20.584C17.28 20.584 18.3643 20.1403 19.2528 19.2528C20.1413 18.3653 20.5856 17.2811 20.5856 16C20.5856 14.7189 20.1413 13.6347 19.2528 12.7472C18.3643 11.8597 17.28 11.416 16 11.416C14.72 11.416 13.6357 11.8597 12.7472 12.7472C11.8587 13.6347 11.4149 14.7189 11.416 16C11.4171 17.2811 11.8608 18.3653 12.7472 19.2528C13.6336 20.1403 14.7179 20.5845 16 20.5856M15.9984 18.9856C15.1685 18.9856 14.464 18.6949 13.8848 18.1136C13.3045 17.5333 13.0144 16.8283 13.0144 15.9984C13.0144 15.1685 13.3051 14.464 13.8864 13.8848C14.4677 13.3056 15.1728 13.016 16.0016 13.016C16.8304 13.016 17.5349 13.3061 18.1152 13.8864C18.6955 14.4667 18.9856 15.1717 18.9856 16.0016C18.9856 16.8315 18.6949 17.536 18.1136 18.1152C17.5323 18.6955 16.8272 18.9856 15.9984 18.9856ZM32 2.5856V5.968C32 6.19413 31.9232 6.384 31.7696 6.5376C31.616 6.6912 31.4256 6.768 31.1984 6.768C30.9712 6.768 30.7813 6.6912 30.6288 6.5376C30.4763 6.384 30.4 6.19467 30.4 5.9696V2.5856C30.4 2.2976 30.3077 2.06133 30.1232 1.8768C29.9387 1.69227 29.7029 1.6 29.416 1.6H26.0304C25.8043 1.6 25.6144 1.5232 25.4608 1.3696C25.3072 1.216 25.2304 1.0256 25.2304 0.7984C25.2304 0.5712 25.3072 0.381333 25.4608 0.2288C25.6144 0.0762665 25.8043 0 26.0304 0H29.416C30.152 0 30.7664 0.246933 31.2592 0.7408C31.752 1.23467 31.9989 1.8496 32 2.5856ZM2.5856 0H5.968C6.19413 0 6.384 0.0768001 6.5376 0.2304C6.6912 0.384 6.768 0.5744 6.768 0.8016C6.768 1.0288 6.6912 1.21867 6.5376 1.3712C6.384 1.52373 6.19467 1.6 5.9696 1.6H2.5856C2.2976 1.6 2.06133 1.69227 1.8768 1.8768C1.69227 2.06133 1.6 2.2976 1.6 2.5856V5.968C1.6 6.19413 1.5232 6.384 1.3696 6.5376C1.216 6.6912 1.0256 6.768 0.7984 6.768C0.5712 6.768 0.381333 6.6912 0.2288 6.5376C0.0762665 6.384 0 6.19467 0 5.9696V2.5856C0 1.84853 0.246933 1.2336 0.7408 0.7408C1.23467 0.248 1.8496 0.00106667 2.5856 0Z" fill="#2A3C6A"/>
</svg>
