<svg width="32" height="32" viewBox="0 0 32 32" fill="none" xmlns="http://www.w3.org/2000/svg">
<path d="M6.768 32H2.5872C1.85013 32 1.2352 31.7536 0.7424 31.2608C0.2496 30.768 0.00213333 30.1531 0 29.416V25.2304H1.6V29.416C1.6 29.7029 1.69227 29.9387 1.8768 30.1232C2.06133 30.3077 2.2976 30.4 2.5856 30.4H6.768V32ZM25.232 32V30.4H29.416C29.7029 30.4 29.9387 30.3077 30.1232 30.1232C30.3077 29.9387 30.4 29.7029 30.4 29.416V25.2304H32V29.416C32 30.152 31.7536 30.7664 31.2608 31.2592C30.768 31.752 30.1531 31.9989 29.416 32H25.232ZM16 25.168C13.1488 25.168 10.5872 24.3605 8.3152 22.7456C6.0432 21.1285 4.328 18.88 3.1696 16C4.328 13.12 6.0432 10.8715 8.3152 9.2544C10.5872 7.63947 13.1488 6.832 16 6.832C18.8512 6.832 21.4128 7.64 23.6848 9.256C25.9568 10.872 27.672 13.12 28.8304 16C27.672 18.88 25.9568 21.1285 23.6848 22.7456C21.4128 24.3605 18.8512 25.168 16 25.168ZM16 20.5824C17.28 20.5824 18.3643 20.1387 19.2528 19.2512C20.1413 18.3637 20.5856 17.28 20.5856 16C20.5856 14.72 20.1413 13.6357 19.2528 12.7472C18.3643 11.8587 17.28 11.4149 16 11.416C14.72 11.4171 13.6357 11.8608 12.7472 12.7472C11.8587 13.6336 11.4149 14.7179 11.416 16C11.4171 17.2821 11.8608 18.3664 12.7472 19.2528C13.6336 20.1392 14.7179 20.5835 16 20.5856M16 18.9856C15.1691 18.9856 14.464 18.6955 13.8848 18.1152C13.3056 17.536 13.016 16.8309 13.016 16C13.016 15.1691 13.3056 14.464 13.8848 13.8848C14.464 13.3056 15.1691 13.016 16 13.016C16.8309 13.016 17.536 13.3056 18.1152 13.8848C18.6955 14.464 18.9856 15.1691 18.9856 16C18.9856 16.8309 18.6955 17.536 18.1152 18.1152C17.536 18.6955 16.8309 18.9856 16 18.9856ZM0 6.768V2.5856C0 1.84853 0.246933 1.2336 0.7408 0.7408C1.23467 0.248 1.8496 0.00106667 2.5856 0H6.768V1.6H2.5856C2.2976 1.6 2.06133 1.69227 1.8768 1.8768C1.69227 2.06133 1.6 2.2976 1.6 2.5856V6.768H0ZM30.4 6.768V2.5856C30.4 2.2976 30.3077 2.06133 30.1232 1.8768C29.9387 1.69227 29.7029 1.6 29.416 1.6H25.2304V0H29.416C30.152 0 30.7664 0.246933 31.2592 0.7408C31.752 1.23467 31.9989 1.8496 32 2.5856V6.768H30.4Z" fill="#2A3C6A"/>
</svg>
