<svg width="88" height="92" viewBox="0 0 88 92" fill="none" xmlns="http://www.w3.org/2000/svg">
<path d="M38.975 49.0309L32.5523 73.0928C32.4711 73.3497 32.3621 73.5967 32.2256 73.8341C32.0891 74.0714 31.9102 74.2746 31.6892 74.4437C31.4681 74.6127 31.2356 74.7363 30.9918 74.8143C30.7479 74.8923 30.4553 74.9314 30.114 74.9314C29.3012 74.9314 28.6363 74.6339 28.1194 74.0389C27.6057 73.4472 27.448 72.7449 27.6463 71.9322L37.0097 28.8655L22.6038 34.7176V43.1398C22.6038 43.8323 22.3697 44.4126 21.9015 44.8808C21.4333 45.349 20.8546 45.5814 20.1654 45.5782C19.4761 45.5749 18.8958 45.3425 18.4244 44.8808C17.9595 44.4126 17.727 43.8323 17.727 43.1398V31.4746L39.3505 22.3307C40.4885 21.843 41.5613 21.5374 42.5692 21.4138C43.5836 21.2935 44.5654 21.3423 45.5148 21.5601C46.4641 21.778 47.3224 22.1746 48.0897 22.7501C48.8537 23.3255 49.53 24.0896 50.1184 25.0421L53.4931 30.4066C56.3021 35.0362 59.103 38.4939 61.8958 40.7794C64.6885 43.065 67.8552 44.5329 71.3957 45.1831C72.0915 45.3034 72.6507 45.6156 73.0733 46.1195C73.4992 46.6267 73.7122 47.2281 73.7122 47.9239C73.7122 48.6196 73.4602 49.1788 72.9563 49.6015C72.4523 50.0241 71.8509 50.1867 71.1519 50.0892C66.4149 49.2504 62.4046 47.4785 59.1209 44.7735C55.8372 42.0685 52.7925 38.5215 49.9867 34.1324L45.939 47.7337L56.0827 59.1746V72.493C56.0827 73.1887 55.8502 73.7691 55.3853 74.234C54.9204 74.6989 54.3401 74.9314 53.6443 74.9314C52.9486 74.9314 52.3682 74.6989 51.9033 74.234C51.4384 73.7691 51.2059 73.1887 51.2059 72.493V61.652L38.975 49.0309ZM51.1133 16.5029C48.8049 16.5029 46.8526 15.7048 45.2563 14.1085C43.66 12.5121 42.8618 10.5598 42.8618 8.25147C42.8618 5.94314 43.6583 3.99081 45.2514 2.39449C46.8445 0.798162 48.7984 0 51.1133 0C53.4281 0 55.3788 0.798162 56.9654 2.39449C58.552 3.99081 59.3517 5.94314 59.3647 8.25147C59.3778 10.5598 58.5796 12.5121 56.9703 14.1085C55.3609 15.7048 53.4086 16.5029 51.1133 16.5029ZM43.8908 92C37.8306 92 32.1313 90.8458 26.7929 88.5375C21.4545 86.2259 16.8102 83.095 12.86 79.1449C8.90658 75.1915 5.7757 70.5455 3.46737 65.2071C1.15579 59.8687 0 54.1694 0 48.1092C0 39.9553 1.99947 32.5475 5.99841 25.8858C9.99735 19.2242 15.2642 13.98 21.7991 10.1534C22.3713 9.81854 22.9858 9.75514 23.6425 9.96321C24.2992 10.1713 24.7658 10.5728 25.0421 11.1678C25.3152 11.7432 25.3786 12.3528 25.2323 12.9966C25.086 13.6403 24.7252 14.141 24.1497 14.4986C18.3464 17.9318 13.6842 22.5843 10.1632 28.4559C6.63889 34.3405 4.87676 40.8916 4.87676 48.1092C4.87676 59.0006 8.65624 68.2258 16.2152 75.7848C23.7742 83.3438 32.9994 87.1232 43.8908 87.1232C54.3628 87.1232 63.3149 83.612 70.7471 76.5895C78.1793 69.5669 82.2123 60.9204 82.8463 50.65C82.8853 49.9737 83.1422 49.4129 83.6169 48.9675C84.0915 48.5188 84.667 48.2945 85.3432 48.2945C86.039 48.2945 86.6193 48.5384 87.0842 49.026C87.5491 49.5137 87.7637 50.1054 87.728 50.8012C87.0062 62.3623 82.4497 72.1191 74.0584 80.0715C65.6671 88.0238 55.6113 92 43.8908 92Z" fill="white"/>
</svg>
