<svg width="162" height="72" viewBox="0 0 162 72" fill="none" xmlns="http://www.w3.org/2000/svg">
<path d="M160.769 35.5151H156.916C153.76 35.5151 152.159 37.0366 152.159 40.0373C152.159 40.5244 152.197 41.435 152.266 41.8691C152.336 42.3181 152.471 42.7183 152.671 43.0518C153.082 43.7446 153.732 44.2609 154.498 44.5024L152.06 50.5377L151.943 50.8289H154.748L154.798 50.6944L157.084 44.7968H158.28V50.8289H160.978V35.5119H160.769V35.5151ZM158.28 37.4146V42.8983H156.983C156.495 42.8983 156.103 42.84 155.815 42.7215C155.552 42.6223 155.322 42.4519 155.15 42.2291C155.006 41.9983 154.911 41.7397 154.872 41.4699C154.814 41.1428 154.792 40.2904 154.792 39.9293C154.792 39.1151 154.938 38.4841 155.227 38.0584C155.514 37.6296 156.153 37.4115 157.122 37.4115H158.283L158.28 37.4146ZM82.8199 35.5659H80.068L80.0143 35.7004L77.4528 42.0618H76.038V35.513H73.3629V50.8299H76.039V43.9624H77.4339L80.0143 50.6955L80.0669 50.8299H82.8188L82.7084 50.5409L79.8208 43.0148L82.7021 35.8624L82.822 35.567L82.8199 35.5659ZM144.949 35.513H144.788L144.747 35.6686L141.771 47.1198L141.587 48.1797H141.48V35.5119H138.805V50.8289H142.932L142.973 50.6711L145.782 39.9325L145.959 38.9012H146.066V50.8289H148.741V35.5119L144.949 35.513ZM110.457 35.513H110.245V50.8289H118.292V48.9283H112.923V43.9624H117.608V42.0618H112.923V37.4115H118.292V35.5119L110.457 35.513ZM106.033 49.0871V35.513H98.3308V37.1542C98.293 40.0448 98.1257 44.423 97.1253 49.0829H95.5737V50.8289H107.618V49.0829H106.033V49.0871ZM103.358 37.2219V49.0871H99.4722C100.337 45.881 100.792 41.8903 100.833 37.223H103.357L103.358 37.2219ZM130.297 35.513H130.129L130.094 35.6782L128.234 44.7099L128.23 44.7237V44.7364L128.126 45.9922H128.015L127.911 44.7555L127.907 44.7428L127.904 44.73L126.045 35.6782L126.011 35.5119H121.532V50.8289H124.207V38.1961H124.317L124.542 39.5513L126.793 49.0511L126.831 49.2142H129.307L129.348 49.0543L131.624 39.6117L131.89 37.8752H131.997V50.8289H134.673V35.5119L130.297 35.513ZM91.1176 35.7375L91.0798 35.5744H87.7525L87.7146 35.7375L84.1906 50.5737L84.1274 50.8363H86.6353L86.6732 50.6732L87.5221 47.1018H91.3112L92.1591 50.6732L92.1969 50.8363H94.7037L94.6406 50.5737L91.1176 35.7375ZM89.2788 39.1321L89.3609 38.4788H89.4745L89.5692 39.1098L90.9052 45.3908H87.9271L89.2788 39.1321ZM67.5025 35.7375L67.4646 35.5744H64.1373L64.0994 35.7375L60.5754 50.5737L60.5123 50.8363H63.0201L63.058 50.6732L63.9058 47.1018H67.695L68.5439 50.6732L68.5818 50.8363H71.0886L71.0254 50.5737L67.5025 35.7375ZM65.6637 39.1321L65.7457 38.4788H65.8593L65.954 39.1098L67.29 45.3908H64.3119L65.6626 39.1331L65.6637 39.1321ZM66.9933 23.7283V30.5471H65.4417V25.0126H62.3995V30.5471H60.8489V23.7283H66.9923H66.9933ZM73.9625 24.0269C74.4022 24.228 74.7409 24.5139 74.9776 24.8845C75.2153 25.2562 75.3353 25.6945 75.3353 26.2017C75.3353 26.7068 75.2153 27.1398 74.9776 27.5115C74.7313 27.8929 74.3775 28.1915 73.9614 28.3691C73.5217 28.5682 73.002 28.6677 72.4077 28.6677H71.0486V30.5471H69.4875V23.7283H72.4066C73.0042 23.7283 73.5207 23.8278 73.9604 24.03V24.0269H73.9625ZM73.3881 27.0721C73.6322 26.8677 73.7563 26.5755 73.7563 26.2006C73.7563 25.8258 73.6322 25.5251 73.3881 25.3208C73.1451 25.1153 72.7875 25.0137 72.3183 25.0137H71.0454V27.3802H72.3183C72.7875 27.3802 73.1451 27.2764 73.3881 27.0721ZM82.3991 29.2818V30.5471H77.1793V23.7283H82.2729V24.9936H78.7299V26.4738H81.8605V27.6999H78.7299V29.2786H82.3991V29.2818ZM89.2347 27.6205C89.4556 27.9096 89.5671 28.2452 89.5671 28.6296C89.5671 29.0457 89.4303 29.4046 89.161 29.7128C88.8928 30.0166 88.5277 30.2506 88.0691 30.4137C87.6105 30.5768 87.1066 30.6572 86.5627 30.6572C86.0999 30.6572 85.638 30.599 85.1794 30.4815C84.7221 30.3643 84.2832 30.184 83.875 29.9457L84.3557 28.8159C84.6503 28.9981 84.9764 29.1357 85.334 29.2289C85.6917 29.321 86.0399 29.3697 86.3786 29.3697C86.8415 29.3697 87.2244 29.286 87.5284 29.1156C87.8314 28.9462 87.987 28.71 87.987 28.4062C87.987 28.1521 87.8819 27.9604 87.6736 27.8323C87.4642 27.701 87.1791 27.6364 86.8215 27.6364H85.1762V26.4495H86.7079C87.0214 26.4495 87.2686 26.3859 87.4453 26.2546C87.5305 26.1948 87.5996 26.1144 87.6461 26.0208C87.6926 25.9272 87.715 25.8234 87.7114 25.7189C87.7114 25.4542 87.5852 25.2456 87.3317 25.0942C87.0792 24.9438 86.7531 24.8708 86.3534 24.8708C85.7186 24.8754 85.0954 25.043 84.543 25.3578L84.0717 24.1306C84.7856 23.7598 85.5785 23.5697 86.3818 23.5769C86.9077 23.5769 87.3916 23.6531 87.8356 23.8098C88.2774 23.9676 88.6298 24.1942 88.8959 24.4928C89.1589 24.7903 89.2915 25.1386 89.2915 25.5368C89.2915 25.8629 89.2052 26.1509 89.0316 26.405C88.8521 26.6622 88.6057 26.8648 88.3195 26.9905C88.7118 27.125 89.019 27.3399 89.241 27.6279L89.2347 27.6205ZM91.6142 23.7283H93.1658V28.1711L96.3826 23.7283H97.8448V30.5471H96.3027V26.1149L93.0869 30.5471H91.6142V23.7283ZM107.246 29.2628V30.5503H99.6016L99.6111 29.2628H99.8793C100.285 29.25 100.569 28.9525 100.738 28.3659C100.906 27.7804 101.007 26.9471 101.045 25.8618L101.121 23.7283H106.303V29.2628H107.246ZM102.219 28.0493C102.118 28.5968 101.959 29.0033 101.748 29.2628H104.761V25.0169H102.449L102.421 26.009C102.389 26.8222 102.324 27.5019 102.219 28.0493ZM114.334 29.2818V30.5471H109.114V23.7283H114.208V24.9936H110.666V26.4738H113.797V27.6999H110.666V29.2786H114.334V29.2818ZM122.597 23.7283V30.5471H121.036V27.7518H117.975V30.5471H116.415V23.7283H117.975V26.4188H121.036V23.7293L122.597 23.7283ZM130.255 25.0126H128.099V30.5471H126.558V25.0126H124.412V23.7283H130.259V25.0126H130.255ZM133.28 30.2083C132.737 29.9175 132.284 29.4829 131.969 28.9515C131.648 28.4016 131.482 27.7735 131.491 27.1356C131.491 26.46 131.649 25.8544 131.969 25.3197C132.282 24.7873 132.736 24.3526 133.28 24.0639C133.833 23.7632 134.46 23.6129 135.153 23.6129C135.739 23.6129 136.265 23.7156 136.736 23.9231C137.208 24.1317 137.603 24.4292 137.926 24.8199L136.926 25.7559C136.47 25.2233 135.906 24.9576 135.232 24.9576C134.815 24.9576 134.444 25.0508 134.115 25.236C133.789 25.4224 133.533 25.6786 133.349 26.0122C133.161 26.3583 133.066 26.7477 133.074 27.1419C133.074 27.5655 133.165 27.9403 133.349 28.2728C133.533 28.6031 133.786 28.8625 134.115 29.0478C134.441 29.2342 134.815 29.3263 135.232 29.3263C135.906 29.3263 136.47 29.0573 136.926 28.5195L137.926 29.4544C137.606 29.8515 137.208 30.1532 136.733 30.3608C136.231 30.5742 135.689 30.6802 135.144 30.672C134.494 30.6815 133.853 30.5248 133.28 30.2168V30.2083ZM142.378 27.7995H141.299V30.5471H139.747V23.7283H141.299V26.4865H142.416L144.188 23.7283H145.835L143.629 27.0212L145.901 30.5471H144.128L142.375 27.7995H142.378ZM151.881 29.087H148.751L148.152 30.5482H146.553L149.558 23.7293H151.1L154.114 30.5482H152.477L151.878 29.087H151.881ZM151.391 27.8895L150.32 25.2784L149.25 27.8895H151.391ZM160.865 23.7198V30.5386H159.324V28.7259H157.898L156.706 30.5397H155.059L156.465 28.4835C156.035 28.3156 155.668 28.0178 155.414 27.6311C155.17 27.2499 155.047 26.7946 155.047 26.2631C155.047 25.7316 155.167 25.2837 155.404 24.9057C155.642 24.5245 155.978 24.2323 156.414 24.0269C156.851 23.8225 157.364 23.7198 157.956 23.7198H160.865ZM156.981 25.3186C156.747 25.5272 156.63 25.8343 156.63 26.244C156.63 26.6538 156.74 26.945 156.965 27.1599C157.189 27.3749 157.519 27.4839 157.956 27.4839H159.324V25.0073H157.994C157.55 25.0073 157.212 25.1132 156.978 25.3186H156.981ZM21.0316 16.4785C20.7371 16.7792 20.7623 16.8152 20.8317 16.9169C21.0032 17.1668 21.2946 17.3182 21.607 17.3182L21.383 16.92C21.2945 16.69 21.2596 16.4426 21.2809 16.1969L21.0316 16.4785ZM33.1858 17.3182C33.3397 17.3199 33.4917 17.2844 33.629 17.2146C33.7663 17.1447 33.8849 17.0426 33.9748 16.9169C34.04 16.8184 34.0694 16.776 33.7781 16.4912L33.5119 16.1969C33.5323 16.4425 33.4978 16.6896 33.4109 16.92L33.1858 17.3213V17.3182ZM44.3859 14.9337C44.4783 14.9889 44.5525 15.0702 44.5993 15.1675C44.646 15.2649 44.6633 15.374 44.6489 15.4811C44.5753 16.0486 44.2239 16.5611 43.699 16.9317C43.901 17.0736 44.0724 17.2335 44.205 17.4092C44.2776 17.5069 44.3169 17.6255 44.3169 17.7475C44.3169 17.8695 44.2776 17.9882 44.205 18.0858C43.9598 18.4161 43.6428 18.6856 43.2782 18.8736C43.4076 19.0398 43.518 19.223 43.5938 19.4242C43.6385 19.5366 43.6455 19.6608 43.6136 19.7776C43.5817 19.8944 43.5126 19.9975 43.4171 20.0711C43.1888 20.2511 42.8816 20.4491 42.4545 20.5423L42.5618 20.9393L42.6386 21.2464C42.7333 21.5217 42.5965 21.8288 42.3283 21.942L42.2105 22.0024C42.0527 22.0892 41.8213 22.2036 41.4951 22.2491C41.8591 22.6525 42.2652 22.9956 42.7428 23.1915L42.7322 23.2613C42.7322 23.6002 42.93 23.8924 43.214 24.0396C43.4486 26.387 44.1071 28.1881 45.3327 29.4184C45.2022 31.3328 44.5227 33.3096 46.2531 35.4198L45.9933 35.3753L45.9459 35.3817C46.1837 35.5797 46.3804 35.8137 46.4782 36.0922C46.5855 36.4098 46.5571 36.7455 46.393 37.0377C46.2973 37.21 46.1681 37.3612 46.0133 37.4824L46.1553 37.5756L46.2784 37.6645C46.332 37.4919 46.4246 37.3151 46.5697 37.1457C46.6777 37.0191 46.8117 36.9176 46.9624 36.8481C47.1132 36.7786 47.2771 36.7429 47.4429 36.7433C48.074 36.7433 48.6873 37.2421 49.1049 37.6783L49.3932 37.8901C49.612 38.0468 49.7193 38.1262 49.8876 38.2225L50.1085 38.3496L50.3336 38.5973C50.8564 38.9108 51.293 39.1003 51.4192 39.1162L51.7359 39.1321C51.9484 39.1448 52.1314 39.2803 52.2145 39.4751C52.2531 39.5724 52.2643 39.6786 52.2469 39.7819C52.2294 39.8852 52.184 39.9816 52.1156 40.0606L51.9042 40.3042C51.5781 40.6758 51.2362 40.8198 50.9827 40.8749C50.7621 41.0703 50.4891 41.1959 50.1979 41.2359C49.8613 41.4286 49.3774 41.4636 49.026 41.345C48.5264 41.2137 48.0772 40.9289 47.789 40.7139L47.5607 40.7372L47.1999 40.6949C47.1893 40.8579 47.1367 41.0125 47.0442 41.1438L46.9211 41.3238L47.0126 41.3799C47.4913 41.6849 47.8079 42.0565 48.0288 42.3477L48.1403 42.4959L48.2097 42.6166C48.5358 42.9025 48.8051 43.2128 49.026 43.5653L49.1281 43.722L49.1807 43.8311L49.3963 44.0069C49.815 44.3457 50.0138 44.5066 50.3431 44.7184L50.5556 44.8529L50.7197 45.0255C53.5599 42.5108 51.5044 39.4137 52.7079 37.7069C52.2366 37.9112 51.7485 38.2289 51.3182 38.555C51.4571 38.3316 51.5844 38.1103 51.7043 37.8953C51.9276 37.8846 52.1383 37.7886 52.2937 37.6269C52.4491 37.4652 52.5374 37.2499 52.5406 37.025C52.5401 36.8357 52.4776 36.6519 52.3628 36.5019C53.9492 32.4826 52.0472 30.2337 52.2492 28.3225C51.8947 28.5428 51.5938 28.8096 51.3372 29.106C52.6447 24.5584 50.3084 23.3831 49.45 21.3428V21.3046C49.4519 21.1047 49.3837 20.9105 49.2575 20.7562C49.197 20.5152 49.1618 20.2686 49.1523 20.0203C49.0673 20.1754 48.9874 20.3333 48.9124 20.4936L48.5737 20.4269L48.2444 20.4904C48.0256 16.884 46.2089 15.6029 44.5342 14.0337C44.408 14.2836 44.2302 14.5303 44.0083 14.7516L44.4017 14.9337H44.3859ZM34.8468 12.7504C35.0499 12.5545 35.255 12.3533 35.4486 12.1575C35.2108 12.1606 34.9857 12.1257 34.7858 12.0452C34.6848 12.2252 34.5113 12.4105 34.223 12.5715C34.1356 12.6199 34.0367 12.6434 33.937 12.6396C33.8373 12.6358 33.7405 12.6048 33.6569 12.5499C33.5734 12.4949 33.5063 12.4182 33.4627 12.3278C33.4192 12.2374 33.401 12.1368 33.4099 12.0368C33.4257 11.8377 33.4288 11.8282 33.2605 11.7255C33.1649 11.6697 33.059 11.6338 32.9494 11.62C32.8397 11.6061 32.7283 11.6146 32.622 11.645L32.4978 11.7032L32.178 11.8345L32.0676 11.8557L32.0013 11.8631H31.9698L31.8751 11.8525L31.7478 11.8377C31.4533 12.1892 31.1114 12.7758 31.0419 13.1284C30.9283 13.7171 31.023 13.967 31.225 14.2042L31.5069 14.3291L31.6784 14.2497C31.7542 14.1836 31.8466 14.1397 31.9455 14.1229C32.0444 14.1061 32.1459 14.117 32.2391 14.1544C32.3323 14.1917 32.4134 14.2542 32.4737 14.3349C32.534 14.4155 32.5711 14.5113 32.5809 14.6118L32.5673 15.0533L32.6304 15.0428H32.6935L32.9723 15.1275L33.1753 15.0724C33.2069 14.7717 33.3278 14.4636 33.5435 14.1533C33.8149 13.7499 34.3145 13.2629 34.8468 12.7472M37.0391 10.9938C37.3484 10.6126 37.6282 10.1489 37.7439 9.77617L37.7639 9.72852C37.5956 9.78993 37.4157 9.8217 37.2221 9.8217C37.1109 9.82194 37.0019 9.78964 36.9086 9.72874C36.8152 9.66784 36.7414 9.58095 36.6962 9.47864C36.6515 9.37809 36.638 9.26635 36.6573 9.15795C36.6766 9.04955 36.7279 8.94952 36.8045 8.87087L36.8992 8.6877L36.7256 8.36793L36.592 8.35522C36.3824 8.35548 36.1801 8.43265 36.0229 8.57228L36.0355 8.58499C36.2375 8.8317 36.4532 9.24887 36.3827 9.85346L36.491 9.84393L36.8519 9.9784C37.0517 10.1552 37.1359 10.4337 37.0927 10.7704L37.0423 10.997L37.0391 10.9938ZM49.0902 49.445C48.6589 49.6917 48.0299 49.7499 47.546 49.6017L47.3587 49.5572C47.1412 49.6344 46.9119 49.6724 46.6813 49.6695C46.4404 49.6695 46.1942 49.6345 45.9975 49.5668C45.8376 49.5299 45.6793 49.486 45.5231 49.4355C45.2192 49.4884 44.9073 49.471 44.611 49.3846C44.6684 49.4369 44.7144 49.5006 44.7461 49.5717C44.7778 49.6428 44.7945 49.7197 44.7951 49.7976C44.7951 50.0475 44.6373 50.2592 44.4143 50.3291C44.7057 51.7416 43.9588 53.1191 43.031 54.0286C41.8949 55.1595 40.2833 55.4898 38.2951 54.9763C38.2636 55.5152 38.1279 56.0341 37.8849 56.5116L37.8775 56.5201C39.1693 57.0039 40.3633 57.5842 41.351 58.2724C41.5562 58.4164 41.8475 58.6695 42.1358 58.9839C44.3554 57.8817 44.5027 55.2421 46.4277 54.4966C45.3831 54.1631 44.5763 54.1568 43.7726 54.2372L43.7789 54.2266C44.2754 54.1282 44.7278 54.0064 45.1401 53.8688C45.2655 53.9717 45.4167 54.0378 45.577 54.0597C45.7373 54.0816 45.9005 54.0584 46.0485 53.9928C46.1966 53.9271 46.3237 53.8216 46.4159 53.6878C46.508 53.554 46.5617 53.3971 46.5708 53.2345C48.1855 52.2953 48.9198 50.9475 49.4794 49.5064L49.1091 49.4482L49.0881 49.4418L49.0902 49.445ZM22.5685 14.1544C22.6616 14.1179 22.7627 14.1072 22.8613 14.1234C22.96 14.1396 23.0525 14.1821 23.1292 14.2465L23.3028 14.327L23.5941 14.1893C23.7835 13.968 23.8855 13.7086 23.7656 13.1358C23.6836 12.7673 23.3448 12.1871 23.0566 11.8377L22.8378 11.8642H22.7684L22.74 11.8578L22.6895 11.8472L22.6264 11.8356L22.3118 11.7064L22.1383 11.6302L21.9573 11.6143L21.5523 11.7233L21.3945 11.9182L21.4198 12.0844C21.4206 12.1582 21.4068 12.2314 21.379 12.2997C21.3513 12.368 21.3102 12.43 21.2582 12.482C21.2062 12.534 21.1444 12.575 21.0764 12.6026C21.0084 12.6301 20.9355 12.6437 20.8622 12.6424L20.5929 12.5746C20.3026 12.4148 20.1248 12.2252 20.0238 12.0431C19.8208 12.1268 19.5925 12.1617 19.3558 12.1585C19.5494 12.3533 19.7556 12.5524 19.9576 12.7515C20.4888 13.2671 20.9885 13.7542 21.2672 14.1639C21.4892 14.4837 21.607 14.8013 21.6323 15.1116L21.7837 15.1539L22.173 15.048L22.2392 15.0576L22.2266 14.6182C22.2376 14.5181 22.2751 14.4228 22.3353 14.3423C22.3954 14.2618 22.476 14.1991 22.5685 14.1608M18.4228 9.85346C18.3491 9.24887 18.7699 8.65911 18.7699 8.65911C18.7699 8.65911 18.3081 8.35522 18.0904 8.35522L17.9031 8.73005L17.9883 8.85711C18.0691 8.93218 18.126 9.02976 18.1515 9.13742C18.1771 9.24508 18.1703 9.35797 18.1319 9.46172C18.0936 9.56547 18.0255 9.6554 17.9362 9.72007C17.8469 9.78474 17.7406 9.82122 17.6307 9.82487C17.4161 9.82487 17.2204 9.79311 17.0458 9.72958L17.0647 9.7804C17.1783 10.1393 17.4571 10.6031 17.7674 10.9811L17.7201 10.7662C17.6748 10.4337 17.7579 10.1552 17.9599 9.97522C18.0237 9.92009 18.099 9.8802 18.1803 9.85856C18.2615 9.83692 18.3466 9.83409 18.4291 9.85028M2.31534 36.4977C2.20245 36.6482 2.1405 36.8311 2.13862 37.0197C2.13862 37.4877 2.51206 37.8689 2.97386 37.8911C3.09063 38.1092 3.22107 38.3263 3.35993 38.5508C2.93026 38.2141 2.4628 37.9295 1.96715 37.7026C3.17373 39.4095 1.11507 42.5065 3.95849 45.0212L4.12259 44.8476L4.33508 44.7131C4.66434 44.5013 4.86106 44.3457 5.27868 44.0026L5.49328 43.8258L5.54798 43.7178L5.64897 43.5601C5.86988 43.2085 6.13917 42.8972 6.46528 42.6124L6.53576 42.4906L6.64621 42.3424C6.86397 42.0512 7.1806 41.6806 7.6624 41.3757L7.75391 41.3185L7.62768 41.1385C7.53522 41.0068 7.48129 40.8516 7.47199 40.6906L7.11433 40.733L6.88711 40.7097C6.59888 40.9246 6.14549 41.2095 5.64897 41.3408C5.29762 41.4593 4.80951 41.4244 4.4771 41.2317C4.18622 41.1899 3.91363 41.0641 3.69234 40.8696C3.43988 40.8156 3.09694 40.6716 2.77189 40.2999L2.5594 40.0564C2.48922 39.9785 2.44242 39.8822 2.42442 39.7787C2.40643 39.6751 2.41798 39.5685 2.45774 39.4713C2.4975 39.3741 2.56383 39.2902 2.64904 39.2294C2.73425 39.1686 2.83485 39.1334 2.93915 39.1278L3.25473 39.1119C3.38202 39.095 3.81647 38.9065 4.34139 38.5931L4.56967 38.3464L4.79058 38.2183C4.95889 38.1219 5.06408 38.0415 5.28499 37.8848L5.57323 37.673C5.99085 37.2378 6.60203 36.738 7.2353 36.738C7.57403 36.738 7.8833 36.882 8.10842 37.1415C8.25464 37.3109 8.34616 37.4845 8.39981 37.6603L8.51973 37.5713L8.6628 37.4782C8.50714 37.3578 8.37786 37.2064 8.28304 37.0335C8.20222 36.8913 8.15269 36.7333 8.13781 36.5701C8.12292 36.407 8.14304 36.2426 8.19678 36.0879C8.29146 35.8126 8.49133 35.5755 8.72907 35.3764L8.67858 35.3701L8.41875 35.4156C10.1471 33.3043 9.46649 31.3253 9.34025 29.4121C10.5616 28.1796 11.2232 26.3838 11.4578 24.0353C11.601 23.9625 11.7213 23.8513 11.8056 23.714C11.8899 23.5766 11.9348 23.4185 11.9354 23.2571L11.9291 23.1862C12.2394 23.0591 12.5182 22.8632 12.778 22.6356L12.657 22.4079L12.4298 22.139C12.2695 22.0865 12.1285 21.9869 12.0248 21.8531L11.5998 21.5916L11.5052 21.5175L11.1507 21.239C10.8403 20.9351 10.6794 20.429 10.7194 19.8043C10.733 19.6275 10.8246 19.4655 10.9739 19.3712L11.2737 19.2855L11.42 19.0356L11.5052 18.8662C11.1525 18.677 10.8446 18.4133 10.6026 18.0932C10.5273 17.9951 10.4864 17.8747 10.4864 17.7507C10.4864 17.6267 10.5273 17.5063 10.6026 17.4082C10.7393 17.2324 10.9098 17.0746 11.1065 16.937C10.5679 16.5558 10.2134 16.0338 10.1534 15.4705C10.1426 15.3647 10.1618 15.2579 10.2089 15.1627C10.256 15.0675 10.3291 14.9877 10.4196 14.9326L10.8119 14.7495C10.5773 14.5176 10.3872 14.244 10.2512 13.9426C8.54814 15.5542 6.6641 16.812 6.44003 20.4862L6.11077 20.4226L5.77204 20.4893C5.69819 20.3287 5.61926 20.1705 5.53536 20.015C5.52592 20.2637 5.49066 20.5106 5.43016 20.7519C5.3019 20.9052 5.23116 21.0989 5.23029 21.2993L5.23765 21.3385C4.37611 23.3789 2.04289 24.551 3.35046 29.1018C3.08586 28.7962 2.77739 28.5321 2.43527 28.3183C2.63829 30.2295 0.739525 32.4784 2.32481 36.4977M8.0958 53.243C8.11789 53.7036 8.5008 54.0784 8.96891 54.0784C9.17204 54.0769 9.36862 54.0059 9.52645 53.8772C9.94197 54.0149 10.3911 54.1366 10.8908 54.2351V54.2457C10.0934 54.1652 9.28345 54.1716 8.24202 54.5041C10.1671 55.2537 10.3123 57.8902 12.5308 58.9913C12.819 58.6737 13.1136 58.4217 13.3156 58.2809C14.3065 57.5926 15.5005 57.0124 16.7891 56.5285L16.7828 56.519C16.5389 56.0428 16.3983 55.5198 16.3704 54.9848C14.3864 55.4972 12.7717 55.1669 11.6346 54.0371C10.7109 53.1265 9.9609 51.7501 10.2544 50.3376C10.1617 50.3074 10.0785 50.253 10.0134 50.1801C9.94832 50.1071 9.90355 50.0181 9.88368 49.922C9.86381 49.826 9.86954 49.7264 9.90028 49.6333C9.93103 49.5402 9.98569 49.457 10.0587 49.3921C9.74841 49.4789 9.42546 49.4979 9.14669 49.4439C8.99091 49.4959 8.83256 49.5398 8.67227 49.5752C8.45067 49.6434 8.22022 49.678 7.9885 49.6779C7.79915 49.6779 7.55194 49.6557 7.31104 49.5657L7.12695 49.6102C6.6399 49.7584 6.01294 49.7002 5.58269 49.4535L5.55745 49.4598L5.18716 49.517C5.74995 50.9623 6.48106 52.307 8.0958 53.2462" fill="white"/>
<path d="M10.6079 13.2417C10.6457 13.9617 11.3989 14.7664 12.4561 15.1444C11.7829 15.0766 11.0991 15.1603 10.6836 15.4091C10.7593 16.1598 11.6083 16.8036 12.6276 16.9571C11.9438 17.0333 11.3358 17.3319 11.0181 17.7481C11.3958 18.2351 11.9438 18.6131 12.7822 18.5941C12.5887 18.6576 12.3678 18.7921 12.1742 18.9752L12.0795 18.9361L12.0375 19.0525V19.0801L11.906 19.2759L11.7029 19.6317L11.7597 19.6698L11.8165 19.8816L11.7408 20.0351L11.2506 19.8424C11.2222 20.2871 11.32 20.6535 11.5504 20.8801C11.7219 21.0823 11.9249 21.0537 11.867 21.1204L12.3993 21.4508C12.494 21.6519 12.6876 21.6519 12.8233 21.5948V21.6329C12.8233 21.8446 12.9695 22.0204 13.162 22.085C13.1241 22.2608 13.1999 22.3762 13.4408 22.4503L15.4447 27.2933C15.369 27.5199 15.4447 27.7253 15.6183 27.7984L15.5425 28.0292C15.6183 27.9721 15.7361 27.953 15.7929 28.1161C15.8308 28.2315 15.6183 28.6063 15.9381 28.8562C15.9199 28.969 15.9404 29.0846 15.9962 29.1841C16.052 29.2836 16.1399 29.361 16.2452 29.4036L16.3715 30.0283C16.2263 30.2295 15.9002 30.5365 15.9381 30.8711C15.9759 31.1104 16.0717 31.1877 16.2673 31.2449C16.1916 31.6811 16.4325 31.8696 16.7965 31.8886C16.7965 32.2063 17.0973 32.3217 17.2867 32.3408C17.4708 32.4752 17.5465 32.5324 17.759 32.6351C17.5654 32.8691 17.7011 33.1645 18.0556 33.2598C18.0946 33.3943 18.1924 33.5097 18.3944 33.5584C18.4399 33.6331 18.5114 33.6882 18.5949 33.713C18.6784 33.7379 18.7681 33.7307 18.8467 33.6929C18.9235 33.6537 19.0592 33.4335 18.9456 33.2408L18.9267 32.8469C19.0434 32.6319 18.9456 32.3757 18.7815 32.2995L18.7047 31.8865C18.9835 31.7129 19.3317 31.4884 19.4558 31.4153C20.1396 30.9219 20.9075 30.4931 21.7848 30.4349C22.0068 30.4158 22.4212 30.3968 22.6527 30.4158C23.0072 30.4539 23.5005 30.5598 23.7888 30.3385L23.915 30.0918C23.8771 29.8716 23.6373 29.6789 23.5573 29.4777L23.4658 29.2469C23.713 29.2945 23.9445 29.2564 24.0896 29.1886C24.2422 29.1315 24.6188 28.853 24.5998 28.4401C24.299 28.5841 23.5794 28.7757 23.5037 28.0462C23.4248 27.4045 23.9949 26.8539 24.8817 27.0943C25.4887 27.2478 26.3723 28.5353 25.5655 29.0933C25.1689 29.3623 24.5619 29.6217 24.6398 30.3226C24.9007 30.005 25.2489 29.8483 25.7012 29.8906C25.0364 30.3809 24.5262 30.4381 23.8329 30.8129C23.226 31.1686 22.7726 31.7552 22.3013 31.7743C21.9373 31.7933 21.7343 31.3613 22.0888 31.0246C21.7312 30.9473 21.2599 31.2258 21.1263 31.6006C20.9527 32.1099 21.0884 32.4721 21.4082 32.6743C20.9748 32.9041 20.6582 33.3593 20.8107 34.0031C20.9559 34.5283 21.4839 34.5283 21.282 35.2006C21.4201 35.1674 21.5468 35.0972 21.6487 34.9975C21.7505 34.8978 21.8237 34.7723 21.8605 34.6342C21.8995 34.433 21.9373 34.2244 22.032 34.1281C21.9941 34.5315 22.2256 35.1276 22.7726 35.3965C23.1492 35.5786 23.7383 35.6559 24.1875 35.1848C24.3747 35.7142 24.9975 36.1652 25.6444 36.1462C25.9389 36.1462 26.2293 36.0212 26.4512 35.8868C26.6069 36.2806 26.9983 36.6745 27.3948 36.8662C27.7998 36.6745 28.1922 36.2806 28.3605 35.8868C28.572 36.0212 28.8697 36.1462 29.1579 36.1462C29.7849 36.1652 30.4402 35.7131 30.6138 35.1848C31.0661 35.6559 31.6521 35.5818 32.0287 35.3965C32.5757 35.1276 32.8071 34.5315 32.7692 34.1281C32.8744 34.2233 32.9155 34.4351 32.9502 34.6342C32.9822 34.7732 33.0528 34.9003 33.1537 35.0006C33.2546 35.1009 33.3818 35.1702 33.5203 35.2006C33.3173 34.5283 33.8559 34.5283 33.9916 34.0031C34.1441 33.3593 33.8275 32.9041 33.4057 32.6743C33.7128 32.4721 33.858 32.1099 33.675 31.6006C33.5424 31.2258 33.0669 30.9442 32.7124 31.0246C33.0669 31.3603 32.8776 31.7933 32.501 31.7743C32.0287 31.7542 31.5763 31.1686 30.9683 30.8129C30.2751 30.4381 29.7659 30.3809 29.1011 29.8906C29.5534 29.8525 29.9111 30.0061 30.1615 30.3226C30.2372 29.6217 29.6323 29.3623 29.2368 29.0933C28.4363 28.5353 29.3125 27.2478 29.9311 27.0943C30.8074 26.8539 31.387 27.4045 31.2986 28.0462C31.2029 28.7768 30.4991 28.5841 30.1804 28.4401C30.1804 28.853 30.557 29.1315 30.7116 29.1886C30.8926 29.2755 31.225 29.3168 31.5258 29.1918L31.5006 29.3612C31.4438 29.9838 31.1051 30.0442 31.2187 30.3004C31.3838 30.4931 32.4631 30.4539 32.7514 30.5122C33.2605 30.5789 33.6939 30.7716 34.1852 30.8669C34.7322 30.9833 35.3213 30.9833 35.8115 31.1845C36.1281 31.319 36.4858 31.5784 36.7929 31.7288C37.2653 31.8092 37.1885 32.0009 37.4872 32.0009C37.7555 32.0009 37.8628 31.7711 38.211 31.6779C38.4529 31.6197 38.7212 31.7129 38.9621 31.6356C39.1356 31.6006 39.2114 31.4153 39.3765 31.319C39.569 31.2036 39.8394 31.2036 40.0224 31.0437L40.1234 30.6784L40.1297 30.7038C40.4937 30.4444 40.7756 30.0696 40.9271 29.6408L41.1017 29.4396V29.4004L41.2564 29.0933L41.1017 28.7376V28.6995L41.026 28.5163C40.947 28.106 40.7538 27.7268 40.4688 27.4229C40.1838 27.119 39.8189 26.903 39.4165 26.7999V26.7608H39.3986L39.3481 26.7004L39.082 26.2906L39.5533 26.6263V25.5219L39.082 25.8576L39.4176 25.3875H38.2909L38.6265 25.8576L38.1542 25.5219V26.6263L38.6265 26.2906L38.2899 26.7608L38.3288 26.7809C37.9141 26.8771 37.536 27.0924 37.2404 27.4006C36.9449 27.7089 36.7445 28.0968 36.6636 28.5173L36.5657 28.6995V28.7376L36.41 29.0933L36.5657 29.4004V29.4385L36.7393 29.6397L36.8729 29.9478C36.7929 30.2528 36.4258 30.4381 36.3438 30.4381C35.66 30.5376 34.9005 30.2464 34.2041 29.987C33.8938 29.8705 33.4825 29.7371 33.2763 29.4385C33.1532 29.2183 33.0996 29.0838 33.1595 28.8911C33.2384 28.9864 33.3615 29.0923 33.5361 29.1886L33.5929 28.907C33.7665 29.1664 34.0453 29.3041 34.3819 29.2818C34.1789 29.1092 34.0831 28.6571 34.1789 28.2632C34.4597 28.7344 35.518 28.8308 35.7105 27.9848C35.315 28.1669 35.0646 27.9657 34.9889 27.7571C34.8752 27.4215 35.2582 26.6041 34.9131 25.9677C34.6343 25.4965 34.3146 25.2075 33.574 25.0952L33.6687 24.7945C32.9849 25.0444 32.3958 24.8517 32.1181 24.3043C32.2506 24.3625 32.4537 24.3816 32.6462 24.3816C32.0413 23.8913 32.0802 22.4979 32.5136 21.7769L32.6462 21.6816C32.7798 21.9505 33.1785 21.9505 33.3773 22.1718L33.5708 22.0109C33.5708 22.0109 33.5898 23.1512 33.6655 23.6224C33.7412 24.1508 34.2514 24.0936 34.5113 24.3233C34.8205 23.9877 35.3781 24.0057 35.2897 23.4202C35.214 22.8346 35.0962 22.3084 35.0772 21.9156C35.2518 22.2703 35.5874 23.6065 35.7231 23.9909C35.944 24.5573 36.4952 24.3848 36.8024 24.605C37.0054 24.2079 37.5177 24.0968 37.3158 23.5006C37.2558 23.3471 36.4163 21.5884 36.2933 21.2517C36.591 21.6848 37.401 23.2317 37.6503 23.6605C37.9301 24.1126 38.4392 23.8913 38.8074 24.0068C38.8726 23.6828 39.3639 23.3048 39.0062 22.7383C38.5539 21.9886 37.4956 20.6821 37.4357 20.5021C37.6482 20.7043 39.2945 22.7383 39.4207 22.8569C39.8036 23.1925 40.3643 22.9342 40.6936 22.9342C40.6936 22.5593 40.9934 22.1358 40.5568 21.7038C40.1613 21.329 39.2566 20.6852 39.0662 20.465C39.6711 20.8779 40.3864 21.5408 40.8072 21.6466C41.5572 21.8383 41.8265 21.5408 42.1084 21.4243C41.877 20.7424 42.1842 20.4226 40.5947 19.7619C41.9727 20.2532 42.5797 20.0097 43.071 19.6317C42.8774 19.1415 42.384 18.7285 41.9906 18.5941C42.8301 18.6131 43.3876 18.2341 43.7516 17.7481C43.4444 17.3351 42.8259 17.0365 42.1242 16.9571C43.1625 16.8036 43.9914 16.1598 44.0872 15.4102C43.6716 15.1603 42.991 15.0735 42.2946 15.1444C43.3834 14.7664 44.125 13.9617 44.1629 13.2417C43.5959 13.0776 43.0036 13.1644 42.4977 13.2798C43.0289 12.8859 43.8936 12.1649 43.7894 11.1092C43.2793 10.9832 42.3451 11.339 41.9496 11.5116C43.2004 10.8106 43.6537 9.1504 42.991 8.20911C42.5955 8.43993 40.804 10.2664 40.5158 10.4771C41.4404 9.4204 41.8739 8.66123 42.1242 7.9497C42.4251 7.17146 42.4398 5.81723 41.4783 5.36829C41.026 6.40593 39.4333 9.06782 38.5497 10.1701L38.2499 9.95193C38.0374 10.6243 37.4136 11.5148 36.8434 11.951C36.815 11.8928 36.7593 11.7361 36.6636 11.5762C36.0555 12.4793 34.4881 13.7192 33.9758 14.4773C33.5803 15.0449 33.5803 15.5542 34.1284 16.0825C34.3493 16.3038 34.7732 16.6966 34.4092 17.2451C33.8117 18.1102 32.501 18.0615 32.1086 17.3224C32.9565 17.2292 33.2069 16.2106 32.6746 15.6018C32.6008 15.7403 32.4913 15.8562 32.3577 15.9374C32.224 16.0186 32.0712 16.0622 31.9151 16.0635V24.4197C31.9151 25.7072 31.2408 26.4473 30.0636 26.4473H28.7434C28.2911 26.4473 28.0218 26.8222 27.9229 27.1673L27.4075 28.9938L26.8657 27.1779C26.8152 27.0085 26.6027 26.4473 26.0368 26.4473H24.7166C23.5458 26.4473 22.8746 25.7104 22.8746 24.4197L22.8641 16.0656C22.7054 16.0674 22.5492 16.0254 22.4126 15.9442C22.2759 15.863 22.1639 15.7457 22.0888 15.605C21.5576 16.2106 21.8101 17.2324 22.6558 17.3256C22.2603 18.0646 20.9527 18.1133 20.3636 17.2483C19.987 16.7009 20.4204 16.3059 20.6329 16.0857C21.1799 15.5563 21.1799 15.0481 20.7855 14.4816C20.2753 13.7224 18.7047 12.4825 18.0977 11.5793C18.0031 11.7392 17.9452 11.897 17.9231 11.9542C17.3572 11.5211 16.7207 10.6275 16.5082 9.95511L16.2105 10.1732C15.3332 9.07205 13.7353 6.40911 13.283 5.37146C12.3299 5.8204 12.3488 7.17464 12.6371 7.95287C12.8958 8.6644 13.3303 9.42358 14.2444 10.4803C13.9562 10.2685 12.1647 8.44311 11.7692 8.21334C11.1075 9.15464 11.5567 10.8138 12.8106 11.5148C12.4277 11.3422 11.481 10.9864 10.9718 11.1124C10.8729 12.1681 11.7345 12.8891 12.2636 13.283C11.7534 13.1676 11.1643 13.0818 10.5984 13.2449M13.7195 21.7832L13.7353 21.6879L13.9373 21.6488C14.3896 21.5429 15.0934 20.8801 15.7014 20.4671C15.4889 20.6884 14.6021 21.3322 14.2076 21.7059C13.8426 22.0723 13.9951 22.4365 14.0551 22.7648L14.1403 22.9469C14.4759 22.9659 14.9787 23.1671 15.3532 22.8632C15.4689 22.7446 17.1131 20.7106 17.3372 20.5095C17.253 20.6884 16.2116 21.995 15.7382 22.7446C15.3942 23.3111 15.9034 23.687 15.9602 24.0131C16.3368 23.8977 16.847 24.119 17.1163 23.6669C17.3792 23.2381 18.1766 21.6869 18.4775 21.2581C18.3597 21.5948 17.5149 23.3535 17.455 23.507C17.252 24.1031 17.7622 24.2143 17.9641 24.6124C18.2745 24.3901 18.832 24.5637 19.0434 23.9972C19.177 23.6129 19.5158 22.2766 19.6893 21.9219C19.6704 22.3158 19.5568 22.8431 19.4779 23.4265C19.3979 24.0131 19.9492 23.9941 20.2374 24.3297C20.5193 24.0999 21.0285 24.1571 21.1042 23.6288C21.181 23.1544 21.2031 22.0172 21.2031 22.0172L21.4029 22.1782C21.5955 21.9558 21.991 21.9558 22.1235 21.6879L22.2603 21.7832C22.6937 22.5043 22.7316 23.8945 22.1235 24.3879C22.2982 24.3879 22.5201 24.3689 22.6558 24.3106C22.3865 24.8591 21.788 25.0518 21.1042 24.8009L21.2031 25.1026C20.4625 25.2138 20.1427 25.5029 19.8734 25.973C19.4968 26.6083 19.8924 27.4236 19.7882 27.7635C19.7114 27.9752 19.4589 28.1764 19.0666 27.9911C19.2591 28.8371 20.3194 28.7408 20.5982 28.2696C20.696 28.6635 20.5982 29.1156 20.4046 29.2882C20.5559 29.3024 20.7082 29.275 20.8453 29.209C20.9824 29.143 21.0991 29.0408 21.1831 28.9133L21.2441 29.195C21.3876 29.1233 21.5148 29.0223 21.6175 28.8985C21.6459 28.9938 21.6838 29.2119 21.6365 29.3941C21.4945 29.4936 21.3356 29.5741 21.0895 29.7043C20.6929 29.897 19.9712 30.1755 19.5568 30.2337C19.2202 30.2909 18.6321 30.0992 18.4806 29.6281C18.347 29.1759 17.9673 29.0319 17.6706 29.3104L17.2961 29.3496L17.0847 29.0319C17.1604 28.8043 17.1036 28.5237 16.8911 28.4263C16.8722 27.9752 16.5903 27.9752 16.4956 27.8217L16.5745 27.5909L16.382 27.485C16.4199 27.2933 16.3631 27.0562 16.1032 26.9789L13.8205 22.2798C13.9667 22.1263 13.8868 21.905 13.7258 21.8319V21.7938L13.7195 21.7832Z" fill="white"/>
<path d="M15.7508 8.28844C15.5983 8.00997 15.6172 7.66374 15.877 7.74103C16.424 7.91362 16.7354 7.93268 17.0899 7.45938C17.0899 7.72197 16.8585 7.93268 16.7533 8.1508C16.5419 8.69821 16.8995 9.2848 17.6022 9.26574C17.2824 8.96821 17.3519 8.62197 17.3519 8.62197C17.4465 8.13174 17.7579 7.99091 17.8652 7.57797C18.0766 6.66527 17.2288 6.52021 17.4129 5.66574L17.5286 5.19456C18.0766 5.11409 18.3743 4.89703 18.7604 4.72021C19.157 5.47938 18.0198 6.46303 18.7415 7.22856C19.157 7.66056 19.926 7.91044 20.7265 7.96868L20.7896 7.97821L20.7076 8.18997C20.4961 8.11268 20.331 8.22809 20.3604 8.45891C19.5294 8.45891 18.7993 8.95127 18.9792 9.9095C19.0392 10.2653 19.1728 10.4177 19.3937 10.5914C19.7419 10.044 20.7423 10.0059 21.3976 10.3606C20.9933 10.354 20.5915 10.4259 20.2142 10.5723C19.846 10.7386 19.3747 10.9503 18.8845 10.8931C18.7485 10.8834 18.6191 10.8304 18.5151 10.7417C18.4111 10.653 18.3378 10.5332 18.306 10.3997C18.1503 10.5342 18.267 11.2066 18.8425 11.4755C19.1307 11.6195 19.644 11.6767 19.9996 11.4183C20.1311 11.341 20.6634 10.7544 21.3093 10.7544C20.3752 11.0011 20.1122 11.6746 20.8433 12.0811C20.8149 11.8503 20.777 11.5327 21.2493 11.2479C21.4091 11.1503 21.5876 11.0879 21.7731 11.0647C21.9586 11.0415 22.1468 11.0581 22.3255 11.1134L22.7778 11.3061C22.9808 11.3251 23.0787 11.2097 23.1355 11.1526C23.5468 11.4596 24.1559 12.42 24.2916 13.0224C24.4367 13.7149 24.3326 14.166 23.9844 14.5694C23.8666 14.6975 23.3101 15.1464 22.7589 14.6753C22.6831 15.3571 23.2722 15.7711 23.9655 15.5499L23.6488 15.7902H31.1324L30.8157 15.5499C31.509 15.7711 32.097 15.3571 32.0213 14.6753C31.4743 15.1464 30.923 14.6943 30.7968 14.5694C30.4486 14.167 30.3529 13.7149 30.4865 13.0235C30.6032 12.4168 31.2302 11.4596 31.6415 11.1526C31.6983 11.2097 31.7972 11.3251 31.9992 11.3061L32.4515 11.1134C32.631 11.0591 32.8198 11.0431 33.0057 11.0662C33.1917 11.0894 33.3709 11.1512 33.5319 11.2479C34.0031 11.5337 33.9653 11.8503 33.9421 12.0811C34.6648 11.6777 34.4155 11.0043 33.4709 10.7555C34.1168 10.7555 34.6459 11.341 34.7816 11.4183C35.1361 11.6777 35.6494 11.6195 35.9471 11.4755C36.5131 11.2066 36.6309 10.5331 36.4752 10.3997C36.4452 10.5319 36.3742 10.6509 36.2724 10.7396C36.1707 10.8284 36.0435 10.8821 35.9093 10.8931C35.418 10.9503 34.9436 10.7386 34.5701 10.5723C34.1951 10.4284 33.7965 10.3566 33.3951 10.3606C34.041 10.0059 35.0414 10.0429 35.3991 10.5914C35.6116 10.4188 35.7473 10.2684 35.8041 9.9095C35.985 8.94809 35.235 8.45891 34.4365 8.45891C34.4555 8.23127 34.2914 8.11585 34.0789 8.18891L34 7.97715L34.0599 7.96868C34.8699 7.91044 35.6305 7.66162 36.045 7.2275C36.7666 6.45985 35.6116 5.48044 36.026 4.72021C36.4216 4.89385 36.7098 5.11409 37.2568 5.19456L37.383 5.66574C37.5577 6.52021 36.7098 6.66527 36.9307 7.57797C37.0296 7.99091 37.3368 8.13174 37.4441 8.62197C37.4441 8.62197 37.4819 8.96715 37.1842 9.26574C37.8785 9.2848 38.2446 8.69821 38.03 8.1508C37.9322 7.9295 37.6934 7.7188 37.6934 7.45938C38.0489 7.93268 38.3687 7.91468 38.9189 7.74103C39.1693 7.66374 39.1882 8.00997 39.0367 8.28844C39.1714 8.21329 39.2852 8.10524 39.3675 7.97424C39.4499 7.84324 39.4982 7.6935 39.508 7.5388C39.508 7.15444 39.2103 6.97232 38.922 7.04962C38.7579 7.06868 38.4318 7.28891 38.4129 6.97232C38.3466 6.42491 39.2103 6.44291 39.0399 5.55985C38.941 5.11727 38.4508 4.87797 37.6818 4.78162L37.3052 4.36868C36.8802 3.66668 36.4468 3.48456 36.187 3.6275C35.8777 3.78209 35.7157 3.91656 35.4653 4.05103C35.2634 4.15691 35.0509 4.21727 34.9183 4.36868C34.5796 4.78162 34.8994 5.42538 35.073 5.81609C35.1866 6.04903 35.4685 6.57844 35.3423 6.96915C35.2087 7.44032 34.4271 7.73785 33.9558 7.83421L33.8801 7.84374V7.66056C34.0158 7.42021 34.1294 7.13221 34.2272 6.8728C34.5449 6.02785 34.0726 5.68162 33.3699 5.5175L33.069 5.47938H33.0501L33.0311 5.62338L32.9365 5.59162L32.9554 5.42221H32.9175L33.0311 5.17232L32.9554 4.93197H33.0532L33.0154 4.89385L32.8986 4.75938L32.8607 4.68209L32.9365 4.73927L33.0532 4.85785L33.11 4.89703V4.10821L33.0532 4.15585L32.9365 4.25115L32.8607 4.30938L32.8986 4.23315L33.0154 4.10821L33.0532 4.04997H32.2622L32.3 4.10821L32.4231 4.23315L32.4841 4.30938L32.4042 4.25221L32.259 4.15585L32.2211 4.10821V4.89597L32.259 4.8568L32.4042 4.73821L32.4841 4.68103L32.4231 4.75832L32.3 4.8928L32.2622 4.93091H32.3884L32.3032 5.17127L32.4084 5.42115H32.3884L32.4073 5.59056L32.3032 5.62232L32.2843 5.47832H32.2653L31.9771 5.5175C31.2618 5.68056 30.7905 6.02574 31.1092 6.8728C31.2039 7.13115 31.3217 7.41915 31.4648 7.6595V7.78444C30.7516 7.55362 29.4735 6.77856 29.1253 6.30844L29.039 6.19197H29.0358L29.0485 5.68374C29.2988 5.2708 29.5208 4.7615 29.6944 4.29032C30.1467 3.07268 29.4829 2.56021 28.4215 2.3495C28.363 2.30573 28.2944 2.27745 28.2222 2.26728C28.1499 2.2571 28.0763 2.26535 28.0081 2.29127L27.9692 2.48397L27.7483 2.46491L27.7672 2.21503L27.6494 2.23409C27.7299 2.18987 27.7969 2.12442 27.8432 2.04477C27.8895 1.96511 27.9134 1.87427 27.9124 1.78197L27.7293 1.40715H27.9124L27.5968 0.975148L28.0291 1.28962V0.296442L27.5957 0.584442L27.9124 0.18103H26.9088L27.197 0.584442L26.7826 0.296442V1.29174L27.197 0.978324L26.9088 1.41032H27.0834L26.9088 1.78515C26.9088 1.97785 27.0077 2.15997 27.1592 2.23727L27.0224 2.21821L27.0424 2.46809L26.8236 2.48715L26.8047 2.29444C26.7346 2.26874 26.6594 2.26061 26.5855 2.27075C26.5117 2.2809 26.4414 2.30902 26.3807 2.35268C25.333 2.56444 24.6682 3.07585 25.1205 4.2935C25.2762 4.76468 25.4971 5.27397 25.7664 5.68691V6.21527L25.6906 6.31056C25.3519 6.78174 24.0633 7.5568 23.348 7.78762V7.66268C23.4931 7.42232 23.6078 7.13433 23.7056 6.87491C24.0212 6.02997 23.5499 5.68374 22.8378 5.51962L22.5495 5.4815H22.5316L22.5117 5.6255L22.4138 5.59374L22.4328 5.42432H22.4138L22.5117 5.17444L22.4359 4.93409H22.5527L22.5148 4.89597L22.3991 4.7615L22.3318 4.68421L22.417 4.74138L22.5537 4.85997L22.5916 4.89915V4.11138L22.5527 4.15903L22.417 4.25432L22.3318 4.31256L22.398 4.23632L22.5148 4.11138L22.5537 4.05315H21.7648L21.8026 4.11138L21.9078 4.23632L21.9678 4.31256L21.8889 4.25538L21.7648 4.15903L21.708 4.11138V4.89915L21.7648 4.85997L21.8889 4.74138L21.9678 4.68421L21.9078 4.7615L21.8026 4.89597L21.7648 4.93409H21.87L21.7837 5.17444L21.9078 5.42432H21.8689L21.8889 5.59374L21.7837 5.6255L21.7648 5.4815H21.7458L21.4576 5.52068C20.7454 5.68374 20.2742 6.02891 20.5908 6.87597C20.6886 7.13432 20.8022 7.42232 20.9485 7.66268V7.84585L20.8696 7.83527C20.3972 7.73997 19.6093 7.43927 19.4736 6.97127C19.3495 6.5795 19.6283 6.04903 19.7419 5.81715C19.9228 5.4275 20.2331 4.78374 19.907 4.37079C19.7608 4.21621 19.5494 4.15903 19.3495 4.05315C19.0991 3.92185 18.9445 3.78421 18.6279 3.62962C18.3775 3.48668 17.9441 3.66879 17.5107 4.37079L17.1341 4.78374C16.3735 4.87903 15.8833 5.11938 15.776 5.56197C15.6046 6.44609 16.4693 6.42703 16.4125 6.97444C16.3935 7.29209 16.0569 7.06974 15.9023 7.05174C15.6046 6.97444 15.3037 7.15762 15.3037 7.54091C15.3037 7.70503 15.4121 8.07032 15.776 8.29056M26.7573 6.60915C27.1655 6.63456 27.6936 6.63774 28.0965 6.6155C28.5835 7.12797 29.666 7.72409 30.7453 7.95491C30.1193 7.95491 29.0201 7.89668 28.8844 7.74315C28.9222 8.13703 29.7617 8.5828 30.3087 8.7035C29.8595 8.76491 29.4324 8.7035 29.0779 8.54044C29.2704 8.81891 29.4924 9.03385 29.8595 9.15562C29.4735 9.6268 28.6813 9.93386 27.9029 9.85656C28.0965 10.0874 28.4499 10.2314 28.7613 10.1901C28.0554 11.3177 27.5305 12.4708 27.4127 13.8123C27.3012 12.4708 26.7794 11.3177 26.0736 10.1911C26.3891 10.2282 26.7384 10.0874 26.9183 9.85656C26.1304 9.93386 25.3677 9.6268 24.9722 9.15562C25.3393 9.03068 25.5613 8.81891 25.7506 8.5415C25.4056 8.7035 24.9722 8.76385 24.5198 8.7035C25.0668 8.5828 25.9147 8.13703 25.9536 7.74315C25.8106 7.89668 24.7123 7.95491 24.0854 7.95491C25.1647 7.72727 26.2629 7.11844 26.7542 6.61232M15.9738 68.5482C15.9422 68.598 15.8749 68.6912 15.9317 68.8616L16.0653 69.0914H16.0843C16.3252 69.0914 16.9458 68.6975 17.4939 68.1088C18.8383 66.6582 20.4656 65.5623 22.0698 65.0234L22.1214 65.0075C22.3455 64.9313 22.6474 64.8317 22.9472 64.8127L22.5706 64.5183C20.8485 64.9567 19.0728 65.6682 17.699 66.7757C17.1667 67.2056 15.9864 68.5344 15.9738 68.5503" fill="white"/>
<path d="M23.0334 65.0912C22.7515 65.0912 22.4338 65.1971 22.2034 65.2744L22.1529 65.2902C20.5887 65.8122 19.0034 66.8817 17.6864 68.3015C17.192 68.8331 16.4829 69.371 16.0843 69.371L16.0243 69.3646C15.5341 69.3773 15.4226 69.0861 15.4226 69.0861L12.3583 63.0297C12.1689 63.0318 11.9817 63.0413 11.786 63.0413C10.5068 63.0413 9.42753 63.2954 8.48077 63.8206L8.05368 64.0599C7.12902 64.5787 6.54309 64.9059 5.37122 65.1335C6.09075 65.7519 6.8755 66.3279 7.80332 66.4497C7.98741 66.4751 8.15467 66.492 8.31351 66.5132C9.07933 66.6032 9.6295 66.671 10.4563 66.9939L10.7887 67.122L10.4521 67.2406C10.2375 67.3179 10.0029 67.3783 9.77888 67.4418C9.2529 67.59 8.70905 67.7382 8.29984 68.0347C8.07893 68.1988 7.95796 68.4868 7.84119 68.7653L7.77176 68.9252L7.53086 69.5404C7.46459 69.7098 7.39832 69.8548 7.32258 69.9925L7.19635 70.181L7.04697 70.3546L6.8755 70.5081C6.65878 70.6677 6.43137 70.8121 6.19489 70.9401L5.80251 71.1551L6.37898 71.1064C6.59989 71.0905 6.8187 71.0683 7.0375 71.0397L7.48353 70.9624C7.67709 70.9211 7.86959 70.8798 8.0621 70.8247L8.41135 70.722L8.8195 70.5875C9.10353 70.4923 9.39807 70.3927 9.69998 70.3122C9.87566 70.2684 10.0529 70.231 10.2312 70.2L10.6236 70.1492L11.0549 70.1333L11.5283 70.146L12.0584 70.1968L12.6496 70.2868L13.3082 70.4213C13.5175 70.4594 13.7258 70.4637 13.9477 70.47H13.9572C14.2486 70.47 14.581 70.4658 14.8934 70.4181C15.2932 70.3832 15.6477 70.2424 15.9801 70.1005C16.1989 70.0052 16.4072 69.9025 16.6197 69.7871C16.8027 69.6875 16.9837 69.5785 17.1604 69.4737C17.4423 69.2937 17.7116 69.1052 17.9809 68.8998C18.2155 68.7145 18.4269 68.5313 18.63 68.3492C18.7878 68.1988 18.9624 68.058 19.1296 67.9193L19.2306 67.8367C19.4684 67.644 19.725 67.4365 20.0038 67.2406C20.1584 67.1347 20.3141 67.0363 20.4751 66.9399C20.6876 66.8181 20.9085 66.7091 21.1557 66.6011C21.3092 66.5373 21.4642 66.4772 21.6207 66.4211C21.8552 66.3438 22.1151 66.3215 22.3675 66.2961L22.6274 66.2707C23.1249 66.2093 23.4353 66.0272 23.5142 65.7392C23.5397 65.6356 23.5388 65.5273 23.5116 65.4242C23.4843 65.3211 23.4317 65.2266 23.3585 65.1494L23.0366 65.0817L23.0334 65.0923V65.0912ZM36.9539 66.7758C35.5832 65.6714 33.8043 64.9599 32.0823 64.5184L31.7057 64.8127C32.0055 64.8318 32.3063 64.9345 32.5315 65.0075L32.582 65.0234C34.1872 65.5624 35.8114 66.6572 37.1569 68.1088C37.7039 68.6975 38.3245 69.0914 38.5654 69.0914H38.5844L38.7169 68.8638C38.7706 68.6912 38.7074 68.5991 38.657 68.5218C38.6538 68.5218 37.483 67.2025 36.9507 66.7726" fill="white"/>
<path d="M46.3425 66.5142C46.5003 66.4941 46.6686 66.475 46.8516 66.4507C47.7794 66.3279 48.5642 65.7519 49.2837 65.1335C48.1119 64.9059 47.5291 64.5797 46.6055 64.0599L46.1742 63.8206C45.2274 63.2943 44.1492 63.0413 42.8732 63.0413C42.6765 63.0413 42.4903 63.0317 42.2967 63.0286L39.2324 69.085C39.2324 69.085 39.0325 69.4154 38.6307 69.3646L38.5707 69.3709C38.1689 69.3709 37.4598 68.833 36.9696 68.3015C35.6526 66.8827 34.0663 65.8133 32.502 65.2902L32.4515 65.2743C32.2201 65.197 31.9045 65.0912 31.6226 65.0912L31.2996 65.1589C31.2256 65.2355 31.1723 65.33 31.1451 65.4333C31.1178 65.5366 31.1174 65.6452 31.1439 65.7487C31.2239 66.0367 31.5311 66.222 32.0307 66.2802L32.2906 66.3056C32.5399 66.331 32.8029 66.3501 33.0343 66.4306C33.1921 66.4877 33.3478 66.546 33.4993 66.6106C33.7465 66.7186 33.9684 66.8276 34.1767 66.9462C34.345 67.0457 34.4965 67.1453 34.6522 67.2501C34.9331 67.4492 35.1897 67.6535 35.4243 67.8462L35.5253 67.933C35.6936 68.0675 35.864 68.2115 36.0229 68.3619C36.2249 68.544 36.4373 68.7272 36.6751 68.9124C36.9402 69.1136 37.2095 69.3042 37.4946 69.4832C37.6692 69.589 37.8491 69.697 38.0363 69.8008C38.2477 69.912 38.4602 70.0179 38.6759 70.1142C39.0041 70.255 39.3628 70.3927 39.752 70.4276C40.0781 70.4763 40.4127 70.4795 40.7009 70.4795C40.9292 70.4763 41.1417 70.4732 41.3468 70.4308L41.999 70.2963L42.5881 70.2063L43.1162 70.1555L43.5916 70.1428L44.0229 70.1587L44.4143 70.2032C44.6015 70.2392 44.7751 70.2741 44.9529 70.3154C45.2537 70.399 45.5483 70.4986 45.8323 70.5939L46.2447 70.7283L46.5918 70.831C46.7822 70.8829 46.9758 70.9274 47.1714 70.9687L47.6217 71.0428C47.8331 71.0714 48.0519 71.0936 48.2739 71.1095L48.8493 71.1582L48.4569 70.9433C48.2248 70.8141 48.0007 70.6709 47.7858 70.5144L47.6153 70.3641L47.466 70.1947L47.3366 70.002C47.2552 69.8528 47.1832 69.6986 47.1209 69.5403L46.8106 68.7653C46.6938 68.4836 46.5729 68.1988 46.3477 68.0347C45.9406 67.7382 45.3989 67.5868 44.8708 67.4417C44.6437 67.3829 44.4188 67.3158 44.1965 67.2406L43.8599 67.122L44.1934 66.9949C45.0191 66.6709 45.5735 66.6032 46.3362 66.5142M25.3635 64.6136C25.3887 64.8021 25.535 65.34 25.8474 65.34L25.9778 65.305C26.1777 65.1928 26.1398 64.9757 26.1114 64.8116L26.0925 64.5332C26.1177 64.4061 26.225 64.1901 26.3828 63.9476C26.083 63.9667 25.7622 63.9953 25.4277 64.0302C25.3664 64.2177 25.3449 64.4161 25.3645 64.6126L25.3635 64.6136ZM28.6666 64.8106C28.6382 64.9747 28.6003 65.1917 28.8002 65.305L28.9296 65.34C29.2431 65.34 29.3851 64.8021 29.4135 64.6126C29.4325 64.4216 29.4121 64.2287 29.3535 64.0461C29.018 64.008 28.7013 63.9783 28.4015 63.9593C28.5562 64.1996 28.6603 64.4082 28.6855 64.5363L28.6666 64.8148V64.8106Z" fill="white"/>
<path d="M27.8998 64.4146L28.2364 63.9466C27.9338 63.9285 27.6307 63.9189 27.3275 63.918C27.0898 63.918 26.8236 63.9286 26.5417 63.9403L26.8836 64.4146L24.5314 67.8547L24.4936 68.0432L24.6682 68.2899L24.908 68.3736L25.1237 68.2709L27.3938 65.123L29.6597 68.2709L29.8785 68.3768L30.1194 68.2931L30.293 68.0432L30.2551 67.8611L27.8998 64.4178V64.4146ZM5.80046 48.9315C6.08554 49.175 6.44951 49.2142 6.64938 49.2142L7.05964 49.1559L7.4657 49.0437C7.65925 49.1782 7.93697 49.1972 8.09581 49.1972C8.28832 49.1972 8.48819 49.1654 8.61127 49.121C8.86479 49.0596 9.0615 49.0024 9.23192 48.9378C9.75789 49.1273 10.5616 48.8362 11.0076 48.3067C11.1791 48.2972 11.603 48.2464 11.8944 47.9457C12.0167 47.8201 12.1013 47.6623 12.1384 47.4904L12.2489 47.5709L12.3373 47.5253C12.4888 47.4398 12.6104 47.3093 12.6855 47.1516L12.778 46.8117L13.1294 47.0033L13.2809 47.0647L13.3566 46.9811L13.5817 46.5364C13.6177 46.3547 13.6057 46.1667 13.547 45.9911L13.5281 45.9276L13.5028 45.8503L17.9526 52.0264C17.0763 52.4775 15.8802 52.9772 14.8861 52.9772C14.4075 52.9772 14.013 52.8586 13.7143 52.631C12.9895 52.074 12.8127 51.4017 12.9989 50.9877C13.2335 50.9527 13.6796 50.8606 14.1035 50.1872C14.6326 49.9373 15.107 49.4471 15.2154 49.3126L15.2659 48.9315L15.0502 48.7176L14.9682 48.6858L15.0218 48.6689L15.3322 48.5926L15.085 48.3936L15.0187 48.15L15.0124 48.0802C14.9808 47.7593 14.7841 47.7244 14.6989 47.7244C14.5285 47.7244 14.3517 47.8557 14.1645 47.9997L14.1519 48.0103C13.9941 47.9902 13.8321 48.0706 13.7048 48.1755C13.6508 48.0924 13.5772 48.024 13.4905 47.9765C13.4039 47.9291 13.3069 47.9039 13.2083 47.9033C12.8632 47.9033 12.4582 48.186 11.9459 48.7822L11.6283 48.941C11.4263 49.0045 11.1949 49.0754 10.7993 49.5625L10.5426 49.877L11.0108 49.806L11.1728 49.7933C10.3975 51.2153 11.1412 52.7369 12.129 53.7078C13.2619 54.8355 14.9398 55.0366 17.0668 54.2965C16.9564 54.9775 17.0594 55.6762 17.3614 56.2956C17.9568 56.0902 18.5711 55.9038 19.1939 55.7344C19.9895 55.5233 20.7931 55.3439 21.6028 55.1965C22.412 55.0473 23.226 54.9254 24.0433 54.8312C24.1012 54.2965 24.0591 53.7014 23.7972 53.1212C23.3543 52.1513 22.4928 51.4875 21.4072 51.2704C22.841 49.5244 23.2207 47.9002 22.5401 46.4422C21.7869 44.8031 20.5772 43.9931 19.1749 44.208L19.2444 44.0598L19.4726 43.6469L19.0897 43.7782C18.4975 43.9836 18.3491 44.1752 18.2229 44.3425L17.9789 44.5754C17.4403 44.7809 17.0826 44.9831 16.8743 45.197C16.5672 45.5337 16.6555 45.828 16.7817 46.0229H16.7849C16.6208 46.1192 16.5135 46.2473 16.4746 46.3892L16.462 46.3987C16.2621 46.5163 15.9875 46.6867 16.0002 46.9176C16.0065 47.0425 16.0885 47.141 16.2442 47.2151L16.3073 47.2469L16.5156 47.3951L16.6208 47.6916L16.7975 47.43L16.8291 47.3877V47.4745C16.8322 47.6926 17.0006 47.843 17.2351 47.843L17.3582 47.8271C17.495 47.7784 18.1177 47.5031 18.5364 47.0933C19.3148 46.9239 19.5515 46.5364 19.6693 46.331C20.1059 46.2992 20.6887 46.674 20.9696 47.5645C21.3756 48.8298 19.9386 50.4244 18.9498 51.3307L14.6516 45.0466L14.7178 45.0974L14.7715 45.1366C14.924 45.2552 15.0976 45.3283 15.2722 45.3537C15.4394 45.3745 15.6092 45.3538 15.7666 45.2933L15.8708 45.251L15.8644 45.0847L15.8034 44.6877L16.1548 44.7195C16.329 44.7049 16.4942 44.6357 16.6271 44.5215L16.6997 44.4537L16.6618 44.3224C17.2793 44.4029 17.6812 43.8777 17.8169 43.5442C18.4848 43.3112 19.014 42.6706 19.0203 42.0967C19.1371 41.9591 19.258 41.796 19.3937 41.5906C19.5736 41.3693 19.8145 40.841 19.723 40.4725L19.9607 40.1432C20.1564 39.8838 20.3657 39.3491 20.188 38.8716L20.3405 38.6376C20.5677 38.304 20.8244 37.584 20.5866 36.9943C20.7613 36.6449 20.7834 36.0276 20.4604 35.3256C20.5582 35.0439 20.6761 34.4287 20.2669 33.587L20.1059 33.2566L19.9765 33.5955C19.703 34.3133 18.3081 35.7353 17.3256 36.594L17.3014 36.4755L17.0984 36.6258C16.7533 36.8884 16.4967 37.0387 16.0359 37.314L15.5352 37.6126L15.5289 37.5226L15.3448 37.5607C14.9135 37.6571 14.5032 37.8276 14.0909 38.0838L14.0814 38.016L13.9047 38.07C13.5141 38.1793 13.1463 38.3586 12.8191 38.5995C12.5687 38.7943 12.3878 38.9997 12.2931 39.2009C12.1321 39.5609 12.2268 40.3232 12.6634 40.9342L12.9232 41.238L13.1231 41.4562C13.607 42.0258 13.649 42.4197 13.2651 42.8178L13.1862 42.8972L11.3684 40.2396C11.7682 39.8933 12.4256 39.2369 12.1669 38.8716L11.8123 38.3655L11.5494 38.2214C11.4463 38.0775 11.3149 37.9564 11.1633 37.8657L11.2169 37.8212L11.359 37.7122L11.2706 37.6253L11.3337 37.5745L11.5683 37.2283L11.6104 36.8725C11.9291 36.6967 12.4204 36.3505 12.736 35.9026C12.8696 35.7353 13.0053 35.3965 12.8916 35.0852C12.9737 34.8967 12.9737 34.6045 12.8159 34.3017C12.8664 34.1429 12.9043 33.8464 12.6855 33.4515L12.5308 33.1666L12.4046 33.4642C12.2868 33.7342 11.6756 34.2975 11.1096 34.7263L11.0844 34.631L10.8908 34.7898C10.733 34.9253 10.6089 35.009 10.3617 35.1752L10.023 35.4029C9.64007 35.5659 8.97524 35.9026 8.82061 36.3569C8.79214 36.437 8.78163 36.5226 8.78981 36.6073C8.79799 36.6921 8.82467 36.7739 8.86794 36.8471C9.09306 37.2473 9.47597 37.3236 9.81785 37.35C9.98196 37.3596 10.1124 37.4242 10.165 37.5099L10.1724 37.6349L10.1618 37.6603C9.72171 37.7041 9.30012 37.8609 8.93737 38.1156C8.57024 38.375 8.2757 38.7149 8.09897 39.0823H8.07372L7.97589 39.0251C7.94433 38.987 7.88122 38.8716 7.94433 38.6503C8.04216 38.3199 8.09581 37.9387 7.79496 37.5904C7.73896 37.5238 7.66918 37.4703 7.5905 37.4338C7.51181 37.3972 7.42613 37.3784 7.33946 37.3786C6.86083 37.3786 6.31907 37.8816 6.04136 38.1833L5.68054 38.4417C5.46805 38.5963 5.35128 38.682 5.16719 38.7847L4.94628 38.9129L5.02833 38.9679C4.43293 39.3523 3.69236 39.7335 3.39781 39.7493L3.07486 39.7684L3.28736 40.0119C3.58821 40.3507 3.88276 40.4143 4.04371 40.4217C4.26251 40.6462 4.53076 40.7806 4.76219 40.7605C4.89579 40.877 5.07883 40.9373 5.29132 40.9373L5.57219 40.8992C6.11394 40.7542 6.60836 40.4122 6.88292 40.1718L7.23111 40.2555L7.62033 40.1654L7.70659 40.1146L7.75919 40.2258L7.91172 40.1305L7.94012 40.1136C7.97589 40.2904 8.04216 40.4566 8.14315 40.5974L8.19049 40.896L8.54499 41.4011C8.58918 41.4689 8.69437 41.5525 8.89319 41.5525C9.17196 41.5525 9.60851 41.399 10.1061 41.1226L11.9891 43.7369L11.8944 43.7845C11.381 44.0122 11.036 43.8555 10.6563 43.1884L10.5174 42.9258L10.3207 42.5806C9.91253 41.994 9.26032 41.6414 8.86163 41.6414H8.80167C8.58918 41.6616 8.33671 41.76 8.06741 41.9305C7.66241 42.1836 7.39942 42.497 7.1964 42.767L7.08594 42.9131L7.1459 42.9449C6.76299 43.2434 6.46214 43.5696 6.2244 43.9412L6.12341 44.1022L6.20862 44.1371L5.73734 44.5183C5.32919 44.8507 5.10407 45.0339 4.74325 45.2647L4.53076 45.3992L4.63595 45.4627C3.49249 46.0906 1.67998 46.9112 0.903643 46.9207H0.535461L0.793189 47.1854C1.43803 47.8525 2.04921 47.9616 2.36585 47.9647C2.93601 48.5312 3.53141 48.6953 3.89538 48.6562C4.26567 48.9897 4.77902 49.0373 5.05673 49.0373C5.22715 49.0373 5.39862 49.0215 5.5217 48.9897L5.80046 48.9262V48.9315ZM50.1464 45.4649L50.2495 45.4013L50.038 45.2669C49.6772 45.036 49.4521 44.8539 49.0439 44.5204L48.5716 44.136L48.6579 44.1043L48.5558 43.9433C48.3095 43.5597 47.9979 43.2228 47.6354 42.948L47.6953 42.9163L47.5849 42.768C47.3819 42.4991 47.1189 42.1857 46.717 41.9316C46.4477 41.7622 46.1953 41.6626 45.9702 41.6436C45.5746 41.615 44.8866 41.9676 44.4627 42.5827L44.267 42.9279L44.1271 43.1905C43.7484 43.8576 43.3866 44.0079 42.8964 43.7898L42.7954 43.739L44.6752 41.1247C45.1728 41.4 45.6093 41.5536 45.8881 41.5536C46.0901 41.5536 46.1921 41.471 46.2426 41.4032L46.5971 40.9003L46.6413 40.6038C46.7423 40.4619 46.8096 40.2957 46.8443 40.1189L46.8717 40.1347L47.0242 40.2311L47.0747 40.1189L47.1441 40.158L47.5628 40.2597L47.9015 40.1771C48.1792 40.4175 48.6694 40.7594 49.2017 40.9003L49.4931 40.9426C49.6858 40.9492 49.8745 40.8865 50.0254 40.7658C50.26 40.7859 50.5219 40.6546 50.7407 40.427C50.9017 40.4206 51.1962 40.356 51.4981 40.0172L51.7085 39.7737L51.3866 39.7536C51.0921 39.7377 50.3515 39.3565 49.7561 38.9722L49.8382 38.9182L49.6173 38.79C49.4301 38.6797 49.2492 38.5588 49.0755 38.4279L48.7431 38.1876C48.4643 37.8869 47.9226 37.3829 47.445 37.3829C47.3578 37.3823 47.2716 37.4009 47.1923 37.4375C47.1131 37.4741 47.0428 37.5277 46.9863 37.5946C46.6855 37.944 46.7423 38.3284 46.837 38.6556C46.9001 38.8737 46.837 38.9912 46.8054 39.0304L46.6855 39.0876C46.492 38.699 46.2035 38.3663 45.8471 38.1209C45.4854 37.8634 45.0627 37.7063 44.6216 37.6656L44.6089 37.6306L44.6216 37.5184C44.6752 37.4284 44.8025 37.368 44.9697 37.3585C45.3116 37.332 45.6956 37.2558 45.9197 36.8556C45.9617 36.7819 45.9874 36.6999 45.995 36.6153C46.0026 36.5307 45.992 36.4454 45.9638 36.3653C45.8082 35.91 45.1433 35.5712 44.7604 35.4113L44.3964 35.1678C44.1755 35.0164 44.0546 34.937 43.8904 34.7993L43.6969 34.6395L43.6716 34.7347C43.1057 34.3091 42.4935 33.7416 42.3778 33.4726L42.2505 33.1751L42.0958 33.461C41.877 33.8506 41.9149 34.1492 41.9654 34.308C41.8076 34.6257 41.8107 34.9147 41.8896 35.0937C41.7729 35.4007 41.9086 35.7406 42.038 35.9005C42.3578 36.3558 42.848 36.702 43.1688 36.881L43.2098 37.2367L43.4276 37.5724L43.5075 37.6338L43.4192 37.7238L43.5612 37.8318L43.6148 37.8773C43.4634 37.9663 43.3308 38.0891 43.2319 38.232L42.9658 38.3771L42.6081 38.8832C42.3515 39.2517 43.01 39.9082 43.4055 40.2502L41.5888 42.9089L41.5099 42.8347C41.1238 42.4345 41.1617 42.0375 41.6487 41.471L41.8486 41.2529L42.1084 40.949C42.5419 40.337 42.6365 39.5715 42.4693 39.203C42.3799 39.0145 42.2 38.8059 41.9464 38.6143C41.5699 38.322 41.1869 38.1844 40.8608 38.0849L40.6831 38.0309L40.6736 38.0976C40.289 37.8521 39.8651 37.6755 39.4207 37.5756L39.2398 37.5374L39.2335 37.6274L38.7338 37.3289C38.2678 37.0536 38.0153 36.9032 37.6671 36.6406L37.4673 36.4871L37.442 36.6089C36.4605 35.7512 35.0678 34.3324 34.7922 33.6103L34.6628 33.2715L34.505 33.6007C34.0958 34.4404 34.2136 35.0587 34.3083 35.3404C33.9853 36.035 34.0032 36.6565 34.182 37.0091C33.9443 37.5989 34.1999 38.322 34.425 38.646L34.5807 38.8864C34.4029 39.3629 34.6123 39.8986 34.7985 40.1443L35.0457 40.4842C34.951 40.8495 35.1908 41.3778 35.3613 41.5853C35.5085 41.8035 35.6284 41.9665 35.7452 42.1042C35.7515 42.6717 36.2712 43.3059 36.9486 43.5526C37.0843 43.8862 37.4862 44.4082 38.1058 44.3309L38.069 44.4622L38.1416 44.5299C38.2615 44.6358 38.4424 44.712 38.6128 44.7279L38.9642 44.6993L38.9011 45.0964L38.8947 45.2563L38.9999 45.2986C39.082 45.3304 39.2871 45.3876 39.4965 45.359C39.6742 45.3336 39.8478 45.2563 39.9972 45.1409L40.054 45.0996L40.1171 45.0519L35.8178 51.336C34.83 50.4255 33.3962 48.834 33.8012 47.5687C34.0863 46.6825 34.6691 46.3045 35.1025 46.3363C35.2192 46.5406 35.457 46.9292 36.2365 47.0986C36.6541 47.5084 37.2779 47.7837 37.4389 47.8419C37.7271 47.8896 37.9354 47.7254 37.9385 47.4798V47.393L37.9743 47.4353L38.151 47.6979L38.2562 47.3993L38.4645 47.2522L38.5308 47.2204C38.6865 47.1463 38.7685 47.0467 38.7748 46.9218C38.7875 46.6889 38.5118 46.5216 38.312 46.403L38.2993 46.3935C38.2615 46.2526 38.1542 46.1287 37.9901 46.0313C38.1163 45.8333 38.2047 45.539 37.8954 45.2023C37.6924 44.9873 37.3316 44.7862 36.815 44.5903L36.5521 44.3499C36.4258 44.1805 36.2807 43.991 35.6853 43.7866L35.3023 43.6553L35.5296 44.0683L35.6032 44.2165C34.1999 44.0016 32.9944 44.8116 32.237 46.4506C31.5574 47.9118 31.9403 49.5318 33.371 51.2789C32.2854 51.4959 31.4249 52.1619 30.9778 53.1297C30.7116 53.7184 30.6738 54.3177 30.7337 54.8556C31.2534 54.917 31.7815 54.99 32.3138 55.08C32.5957 55.1277 32.8744 55.1753 33.1553 55.2283C33.5487 55.3045 33.9443 55.385 34.3367 55.4718C34.748 55.5671 35.1572 55.6666 35.5622 55.7757C36.1849 55.9451 36.7961 56.1304 37.3915 56.3422C37.709 55.7156 37.8188 55.0032 37.705 54.3092C39.8289 55.0483 41.5067 54.8492 42.6428 53.7184C43.6317 52.7485 44.3743 51.227 43.5991 49.805L43.7611 49.8177L44.2292 49.8886L43.9725 49.5742C43.5801 49.0871 43.3487 49.0172 43.1436 48.9526L42.8427 48.8055C42.3136 48.1935 41.9086 47.9118 41.5635 47.9118C41.3637 47.9118 41.1996 48.0018 41.067 48.1839C40.9429 48.078 40.7819 47.9986 40.6199 48.0177L40.6073 48.0071C40.4622 47.8896 40.2602 47.7318 40.0761 47.7318C39.993 47.7318 39.7942 47.7678 39.7626 48.0855L39.7563 48.1553L39.69 48.402L39.4428 48.6011L39.75 48.6773L39.8026 48.6932L39.7184 48.725L39.5028 48.9399L39.5659 49.3433C39.6574 49.4556 40.1329 49.9426 40.6641 50.1957C41.0891 50.868 41.532 50.958 41.7687 50.9962C41.9559 51.4091 41.776 52.0825 41.0533 52.6395C40.7535 52.8703 40.3601 52.9857 39.8794 52.9857C38.8853 52.9857 37.6892 52.4859 36.8119 52.0338L41.2658 45.8556L41.2406 45.9297L41.2185 46.0038C41.1585 46.1827 41.1491 46.3712 41.1838 46.548L41.4121 46.9927L41.4846 47.0764L41.6361 47.015L41.9906 46.8233L42.079 47.1622C42.1552 47.3197 42.2769 47.4504 42.4282 47.537L42.5166 47.5825L42.6271 47.502C42.6691 47.6778 42.7501 47.8324 42.8711 47.9573C43.153 48.2485 43.5612 48.3067 43.7547 48.3152C44.185 48.8372 45.0013 49.139 45.5304 48.9505C45.7009 49.014 45.8976 49.0712 46.1343 49.1263C46.2773 49.1771 46.4761 49.2057 46.6697 49.2057C46.8275 49.2057 47.1031 49.1866 47.2998 49.0522L47.6922 49.1612L48.1193 49.2216C48.3192 49.2216 48.6831 49.1866 48.9682 48.9399L49.2375 49.0034C49.3669 49.0352 49.5373 49.0564 49.7088 49.0564C49.9907 49.0564 50.4998 49.0035 50.8701 48.6752C51.2309 48.7123 51.82 48.5524 52.3997 47.9827C52.7152 47.9796 53.3264 47.8705 53.9723 47.2045L54.229 46.9419H53.8619C53.0866 46.9282 51.272 46.1086 50.1296 45.4807" fill="white"/>
<path d="M13.4986 51.1941C13.5428 51.3995 13.7069 51.6812 14.0561 51.9469C14.2549 52.1036 14.54 52.1799 14.8945 52.1799C15.5941 52.1799 16.423 51.8929 17.1288 51.5721L15.6161 49.4714C15.4478 49.6599 15.0113 50.0961 14.4885 50.3778C14.1592 50.8479 13.8089 51.0787 13.5017 51.1909M39.8877 52.1809C40.2454 52.1809 40.5273 52.1036 40.7261 51.9469C41.0712 51.6812 41.2395 51.3963 41.2837 51.1909C40.9765 51.0755 40.6252 50.8479 40.2959 50.3778C39.8746 50.1383 39.4942 49.8323 39.1693 49.4714L37.6555 51.5721C38.3614 51.8898 39.1913 52.1809 39.8877 52.1809ZM35.4769 42.8781L35.5527 42.9046C35.377 42.6598 35.261 42.3769 35.2139 42.0787C35.1096 41.9474 35.0113 41.8114 34.9194 41.671C34.7048 41.3989 34.467 40.8865 34.4734 40.3994L34.4134 40.3094V43.4742L34.7521 43.4043L34.8784 43.0518C34.9495 42.9659 35.0445 42.9035 35.1512 42.8725C35.2579 42.8416 35.3713 42.8435 35.4769 42.8781ZM19.8471 41.6869L19.5631 42.0787C19.521 42.3656 19.3979 42.6483 19.2201 42.9078L19.3001 42.8781C19.406 42.8419 19.5204 42.8391 19.6279 42.8702C19.7354 42.9012 19.831 42.9646 19.9018 43.0518L20.028 43.4043L20.4299 43.4838V40.2109L20.4078 40.2459L20.3026 40.3994C20.3099 40.9023 20.0533 41.4212 19.8471 41.6838M20.4288 48.1828C20.4982 47.9298 20.5109 47.6989 20.4509 47.5041L20.4299 47.449C20.2899 47.0488 20.0869 46.8985 19.9165 46.7989C19.7009 47.0488 19.3695 47.2225 18.8078 47.3728C18.6469 47.5134 18.4745 47.6398 18.2923 47.7508C18.0665 47.8914 17.8294 48.0126 17.5833 48.1129L18.2923 49.1506L19.0423 50.2486C19.7955 49.4767 20.271 48.763 20.4288 48.186M29.3125 37.8159C30.0278 37.8476 31.0629 38.1907 31.7152 38.1547C32.3546 38.1177 32.9862 37.9941 33.5929 37.7873C33.5529 37.5998 33.5356 37.4082 33.5413 37.2166C32.9722 37.4506 32.1896 37.5723 31.6836 37.6009H31.6173C31.3259 37.6009 30.9146 37.5215 30.5191 37.441C30.1162 37.3606 29.7017 37.2812 29.3378 37.261C28.7527 37.246 28.1728 37.3735 27.6473 37.6327H27.2012C26.6768 37.3704 26.096 37.2431 25.5108 37.2621C25.1468 37.278 24.7323 37.3606 24.3305 37.441C23.9307 37.5215 23.5205 37.6041 23.2312 37.6041H23.1618C22.6358 37.5755 21.8163 37.4442 21.2409 37.1912C21.2504 37.3923 21.2304 37.585 21.1957 37.7672C21.87 38.0266 22.681 38.1325 23.1365 38.1589C23.7887 38.1939 24.8238 37.8519 25.5392 37.819C26.0494 37.7936 26.5838 37.9249 26.9951 38.1367V49.392C26.1851 48.5492 24.6787 48.5682 23.2564 48.8626C23.0829 49.4778 22.7725 50.1056 22.3297 50.7494C22.4843 50.8161 22.6305 50.9029 22.7757 50.9898L25.7738 50.3206L26.0336 50.4286L26.0904 50.7399L26.1283 50.9315C26.2292 51.0565 26.4733 51.0829 26.9193 51.0829H27.9355C28.3815 51.0829 28.6298 51.0565 28.7266 50.9315L28.7655 50.7399L28.8223 50.4286L29.0464 50.3174H29.0779L32.0413 50.9802L32.4652 50.7526C32.0192 50.1056 31.712 49.4746 31.5384 48.8573C30.1351 48.5714 28.6698 48.5746 27.8724 49.4005V38.1325C28.3225 37.9092 28.8205 37.8015 29.322 37.819M28.3405 50.6414H26.5206C26.5806 50.4741 26.73 49.987 27.3853 49.9616H27.4863C28.1354 49.9902 28.2805 50.4752 28.3405 50.6414ZM34.8657 46.8C34.6617 46.9042 34.5018 47.079 34.4155 47.2923V48.3914C34.6217 48.9293 35.0709 49.5667 35.7389 50.2454L36.5531 49.0574L37.2021 48.1098C36.9775 48.0177 36.7605 47.908 36.5531 47.7815C36.3487 47.662 36.1548 47.5253 35.9734 47.3728C35.4127 47.2225 35.0803 47.0499 34.8657 46.8ZM23.4248 16.3535L23.4353 24.4218C23.4353 25.4118 23.8582 25.8925 24.726 25.8925H26.0462C26.7394 25.8925 27.2202 26.4007 27.4032 27.0169C27.5778 26.4018 28.0596 25.8925 28.7529 25.8925H30.0731C30.9399 25.8925 31.3733 25.416 31.3733 24.4218V16.3535H23.4248ZM25.4697 16.9306L25.6023 17.209L25.5518 17.2281L25.4666 16.9306H25.4697ZM25.1405 18.2213L25.2457 18.0836C25.2457 18.2753 25.3025 18.7655 25.3025 18.8036L25.5023 18.9836C25.6665 18.9678 26.1693 18.936 26.2198 18.9328L26.1251 18.7369C25.982 18.7369 25.8968 18.7655 25.7359 18.7941L25.5045 18.7655L25.4666 18.5156L25.4382 17.8147V17.587L25.4571 17.3541L25.678 17.2482H25.7453V17.2503L25.8432 17.3022L25.8684 17.4907L25.8789 17.5299L25.84 17.6358L25.8116 17.568L25.7769 17.5648L25.698 17.6072L25.6475 17.785L25.7738 18.3939L25.9221 18.3589L25.8695 18.1472L25.8053 17.9587L25.7106 17.731L25.8022 17.6929L28.1512 23.4159C28.1512 23.4159 28.5751 24.4059 28.6319 24.6843L28.0596 23.4582L27.8629 22.9775C27.683 22.9934 27.7651 22.8505 27.7577 22.7213L26.5553 19.7936C26.4536 19.7218 26.3383 19.6717 26.2166 19.6465L25.8811 19.9408L25.6885 19.8932L25.6023 19.9122L25.5865 19.9408L25.4824 19.9027L25.3498 19.89L25.2899 19.8836L25.1563 19.9705L25.0079 19.909L24.7229 19.819L24.8596 19.621L24.8743 19.512L24.625 19.3458L24.7229 19.1308L24.6408 19.0736L24.5861 19.0281L24.5966 19.0154L24.5735 18.9646L24.5577 18.9805L24.4536 18.8746C24.4536 18.8746 24.9164 18.3748 25.1478 18.2213M26.0778 17.9587C26.568 18.0392 26.8246 18.144 27.0561 18.3621C27.1602 18.5834 27.1287 18.6766 27.1287 18.6766L27.055 18.5029C27.0056 18.378 26.7521 18.1726 26.5774 18.1503C26.3565 18.1122 26.4701 18.1345 26.1409 18.144L26.0746 17.9555L26.0778 17.9587ZM27.8124 24.3646L27.8282 24.354L27.7861 24.301L27.4579 24.1655L27.2833 23.9347C27.0719 23.7229 26.831 23.5218 26.5901 23.3587L26.6563 23.0707L26.5901 22.7562L26.508 22.6154L26.4449 22.7149C26.2324 22.9839 25.9126 23.0326 25.6538 23.2242C25.4508 23.3778 25.2899 23.9739 25.2899 24.2333L25.3056 24.4736L25.3814 24.8061V24.8167L25.4287 24.8898C25.6665 24.8548 25.8937 24.7902 25.8937 24.7902L26.1672 25.2741L25.7958 25.3218C25.7958 25.3218 24.7765 25.2932 24.4567 25.0528C24.1411 24.8125 24.3652 24.5446 24.3463 24.2587C24.3273 23.9728 24.1495 23.9961 24.1495 23.9961H24.5135C24.6082 24.0279 24.6376 24.1242 24.5893 24.3265C24.5451 24.5245 24.7197 24.7235 24.9406 24.8665L25.0079 24.8929L25.0016 24.8643L25.0995 24.5181L24.9154 24.4313C25.0142 24.1909 25.1752 23.8203 25.2036 23.5376L25.2604 22.7827C25.2793 22.6959 25.577 22.6641 25.6086 22.4756C25.6275 22.2925 25.5423 22.1516 25.5108 21.9843C25.4635 21.7549 25.4744 21.5171 25.5423 21.2929L25.5013 21.1976C25.4445 21.024 25.1657 21.0145 25.0868 21.2061C25.0111 21.4073 25.0763 21.6582 25.0763 21.889C25.0679 22.0712 25.0016 22.3115 24.9217 22.4269C24.9217 22.2056 24.9027 21.7916 24.8459 21.6095C24.8459 21.6095 24.8565 22.1093 24.827 22.2798L24.6156 22.7118L24.625 22.0521C24.5861 22.5773 24.4599 22.7308 24.2611 23.0093C24.1937 22.3846 24.5009 22.1929 24.4409 21.7895L24.2411 22.3655L24.2895 22.087C24.3273 21.511 24.2316 21.0388 24.605 20.7032C24.8838 20.4501 25.2804 20.6206 25.4887 20.8514L25.596 21.0018L25.657 21.0494L25.8842 20.8281C26.0494 20.7095 26.2703 20.6269 26.4828 20.5782L26.5112 20.5041L26.406 20.377L26.3018 20.1367L26.5806 20.0562L27.5494 22.3655L27.5873 22.4778L27.4358 22.609H27.4327L27.3475 22.8632C27.2486 23.0294 27.0782 23.1596 26.9698 23.2401C26.9856 23.6276 27.7651 24.0183 28.0081 24.2354L28.1764 24.426H28.1701L28.2395 24.5636L28.4804 24.5149L28.6445 24.9152C28.6445 24.9152 28.7076 25.0179 28.3563 24.931C28.0018 24.8421 27.6799 24.8569 27.0908 24.8093C26.5017 24.7616 27.7272 25.0528 27.7272 25.0528L27.1066 25.1841L26.7931 25.309L26.3092 25.0825C26.2461 25.0179 26.0083 24.6558 26.002 24.3582C25.9957 24.0639 26.3849 23.9643 26.6753 23.9834C26.9225 23.9993 27.4611 24.2238 27.8251 24.4154L27.8124 24.3646ZM28.5404 25.5949L28.0112 25.8438L27.4295 25.7612L26.5964 25.578C26.5964 25.578 27.6662 25.1365 28.148 25.0698C28.4471 25.0307 28.751 25.0534 29.0411 25.1365L29.4777 25.3165L28.5372 25.5939L28.5404 25.5949ZM27.8692 18.055L27.6567 18.0836V18.0678L27.5273 18.2213L27.4137 18.3526L27.3853 18.3812H27.379L27.3401 18.397L27.5242 18.5929C27.5242 18.5929 27.6441 18.7655 27.6988 18.9392C27.7514 19.1149 27.6062 19.656 27.5747 19.9281L27.5684 20.2669C27.6346 20.5719 27.945 21.1881 27.945 21.1881C27.945 21.1881 27.8724 21.9558 27.9702 22.3306C27.9702 22.3306 28.0218 22.5318 28.1732 22.6482L28.1922 22.5932L28.2111 22.3655L28.2016 22.2766L28.1133 22.2925L28.1259 21.1383L27.7462 20.1113L27.7083 19.963L27.8345 19.8678L27.9323 19.8487L27.9639 19.6528L27.885 19.4961L27.8471 19.512C27.6946 19.5014 27.7619 19.2907 27.7809 19.1943L27.9923 19.1276L28.0912 19.2812L28.2711 19.0694L28.1543 19.0895L28.3658 18.8301L28.1827 18.811L28.493 18.6183L28.3952 18.5993L28.7055 18.4066L28.4457 18.397C28.6382 18.2721 28.8696 18.234 29.0148 18.234L28.775 18.1345C28.775 18.1345 28.9769 18.0603 29.2178 18.0773L29.1011 17.8179C29.5723 17.7596 29.7143 17.7988 29.9363 18.2022L29.9679 18.2562L30.0689 18.2308L30.0026 18.3176L30.0531 18.3918L30.1898 18.4521L30.4465 18.5093L30.3003 18.5442V18.5506L30.2151 18.6279L30.3098 18.8005L30.3224 18.8301V18.8396L30.3413 18.8905H30.3255L30.3413 19.0863C30.4181 19.2907 30.5159 19.6179 30.5822 19.8805L30.5254 20.1018L30.1961 20.2193L30.0152 19.9863L29.9773 19.8423C29.8259 19.6782 29.5818 19.7174 29.4777 19.4675C29.4114 19.2939 29.4966 19.1605 29.4777 18.9487C29.4145 19.044 29.3767 19.3616 29.3798 19.6528L29.6007 20.0626L29.7901 20.2553L29.8448 20.2743L29.7186 20.4692L29.9647 21.0018L29.93 21.4306L29.889 21.6868L30.0278 21.7122C30.275 21.6699 30.6485 21.5587 30.801 21.5322L31.0324 21.6582L31.0409 21.8499L30.8957 22.2342C30.8199 22.4746 30.7789 22.7435 30.6548 22.9648L30.5128 23.0993L30.456 23.1279L30.395 23.1596V23.1533L30.3192 23.1893L30.1078 23.1702L30.2782 22.7594L30.4497 22.8176L30.5002 22.8049L30.5191 22.6249L30.6516 22.5455L30.6706 21.9716C30.4686 21.8446 30.0436 22.1347 29.6891 22.1834L29.4429 22.2374C29.484 22.4915 29.5376 22.735 29.6134 22.9712L29.7301 23.2401L29.7596 23.6149C29.8353 23.8775 29.9616 24.2492 30.0657 24.4705L30.1046 24.5308C30.3508 24.4546 30.3918 24.445 30.5727 24.5118C30.7884 24.5922 30.7505 24.643 30.6674 24.7172L30.5822 24.9798C30.5822 25.1238 30.4297 25.2032 29.9773 25.1841C29.5282 25.165 29.667 25.1682 29.3756 25.057C29.2396 25.0035 29.1029 24.952 28.9654 24.9025L28.8181 24.3487C28.8181 24.3487 28.5909 24.1655 28.898 24.012C29.2084 23.8585 29.3472 24.0247 29.3567 24.0861L29.708 24.0607C29.6007 23.833 29.4429 23.5503 29.3893 23.4328L29.303 23.0548L29.0432 22.6122L28.7623 22.3433L28.6414 22.266L28.3184 22.2723L28.6445 22.9818L28.1764 22.9521L26.6984 19.3034C26.6416 19.1022 26.5838 19.0736 26.5932 18.8301L26.7773 19.0027L26.6921 18.7719C26.5364 18.7147 26.5774 18.7465 26.4133 18.7369L26.2419 18.3399L26.3912 18.3007C26.6921 18.2245 26.8909 18.3113 26.9761 18.523L27.0435 18.8301L27.1602 18.8873L27.2339 18.7496L27.2202 18.612L27.1918 18.522L27.0277 18.2626L27.0908 17.9365L26.8783 17.9619L26.9761 17.8782L26.7363 17.9841L26.7647 17.9174L26.7363 17.8306C26.5806 17.8401 26.5711 17.7438 26.5995 17.658L26.9961 17.3785L27.2591 17.244L27.6725 17.3499C27.9418 17.5161 28.107 17.9746 27.8755 18.0614M41.0407 58.7223C37.5524 56.2923 31.4869 55.1869 27.3275 55.1869C23.1681 55.1869 17.1025 56.2923 13.6143 58.7234C12.8674 59.2422 11.7124 60.6187 12.1584 61.4075L15.5804 68.1755C15.8013 67.9256 16.8343 66.7726 17.3561 66.3522C20.3068 63.973 25.0142 63.342 27.3306 63.342C29.6481 63.342 34.3576 63.9762 37.3063 66.3522C37.8438 66.7853 38.9294 67.9987 39.0819 68.1723L42.4976 61.417C42.95 60.6187 41.7918 59.239 41.047 58.7202M15.3742 65.1134L15.2353 64.891L15.3805 64.7672L15.4983 64.639L15.5394 64.459L15.4573 64.2579C14.8808 63.2965 14.3075 62.3329 13.7321 61.3683L13.5985 61.2116L13.3986 61.1693L13.1777 61.2243L12.9852 61.2985L12.8453 61.0772C13.4944 60.6579 14.156 60.2725 14.8272 59.9209C15.2985 59.671 15.7035 59.5842 16.0169 59.652C16.3336 59.7187 16.5745 59.9432 16.7354 60.3116C16.8469 60.5583 16.8974 60.7881 16.8974 60.9999C16.8974 61.2148 16.8532 61.4107 16.7649 61.5865C16.6743 61.771 16.548 61.9355 16.3935 62.0703C16.222 62.224 16.0318 62.3553 15.8276 62.461L15.5614 62.6093C15.7771 62.9989 15.9885 63.3928 16.2031 63.7846L16.3336 63.954L16.5145 64.0175L16.6786 63.9921L16.8627 63.9413L16.9826 64.1742C16.4388 64.4665 15.9002 64.7799 15.3752 65.1166M20.1164 62.8136L20.0322 62.5638L20.2973 62.4039L20.4235 62.227L20.4025 62.1699L20.3541 62.0894C20.1606 61.8035 19.9649 61.5229 19.765 61.2402C19.3726 61.3715 18.9834 61.5155 18.5974 61.6701L18.6289 62.0058L18.6668 62.3456L18.7173 62.6209L18.752 62.7332L18.9298 62.8581C19.0181 62.8772 19.1507 62.8645 19.3316 62.82L19.4231 63.0635C18.9929 63.2298 18.5658 63.4055 18.145 63.6014L18.0367 63.361L18.1861 63.2552L18.2997 63.1207L18.3786 62.8708V62.5669C18.312 61.9062 18.2614 61.2438 18.2271 60.5806C18.1893 59.8425 18.1693 59.1035 18.1671 58.3645C18.347 58.2967 18.5279 58.2363 18.7078 58.1718C19.2564 58.8838 19.7802 59.6148 20.2784 60.3635C20.6392 60.9109 20.9306 61.3694 21.1641 61.7305L21.2903 61.884L21.4618 62.0026L21.6333 62.0386L21.7974 62.0322L21.8605 62.2853C21.2714 62.4356 20.6928 62.6114 20.1143 62.8105M24.1085 61.83L24.0706 61.5706L24.239 61.5261L24.3862 61.4647L24.4914 61.3175L24.4977 61.1026C24.4315 60.5583 24.3652 60.0141 24.2958 59.4667C23.7793 59.5302 23.2628 59.6139 22.7505 59.7102C22.8514 60.2386 22.9503 60.7669 23.0482 61.2953L23.1218 61.4901L23.2628 61.6087L23.4279 61.6383L23.6078 61.6436L23.653 61.9041C23.0608 62.0026 22.4748 62.1275 21.8921 62.2779L21.8289 62.0259L21.9941 61.9613L22.1456 61.8776L22.2318 61.7209L22.2192 61.506C21.972 60.4048 21.7216 59.3058 21.4723 58.2046L21.3924 58.0182L21.222 57.9123L20.9969 57.8869L20.8001 57.8933L20.737 57.6402C21.4416 57.4599 22.1533 57.3094 22.8704 57.1892L22.9125 57.4486L22.7126 57.5153L22.538 57.5989L22.4212 57.762V57.9674C22.5127 58.4343 22.6021 58.9055 22.6905 59.3735C23.2091 59.274 23.7319 59.1903 24.2579 59.1236L24.0864 57.7398L24.0265 57.5449L23.8645 57.4232L23.6625 57.3745L23.4626 57.3554L23.4248 57.096C24.1432 56.9901 24.8617 56.9139 25.5833 56.8652L25.5991 57.1278L25.3993 57.1701L25.2036 57.24L25.0742 57.3903L25.0553 57.5958C25.1531 58.7234 25.2509 59.8479 25.3467 60.9713L25.3972 61.1725L25.5265 61.3048L25.698 61.3525L25.8747 61.3747L25.8905 61.6373C25.2951 61.6765 24.7008 61.74 24.1085 61.8268M29.9205 61.7368C29.251 61.6569 28.578 61.6088 27.9039 61.5928L27.9103 61.3302C28.107 61.3175 28.2332 61.2985 28.29 61.2699L28.3815 61.1449L28.3563 61.0041L28.2774 60.7796C28.2125 60.6086 28.142 60.4398 28.0659 60.2735C27.9765 60.0723 27.8787 59.8638 27.7777 59.652C27.4137 60.1931 27.2012 60.5583 27.1129 60.7383C27.0235 60.9173 26.9824 61.039 26.9824 61.0962L26.9951 61.1767L27.0529 61.237L27.1686 61.2858L27.359 61.3207V61.5833C26.9319 61.5833 26.5017 61.596 26.0746 61.6214L26.0588 61.3588L26.2166 61.3207L26.3334 61.2593L26.5711 61.02L26.7868 60.6865C27.0604 60.2388 27.343 59.7968 27.6346 59.3608C27.4838 59.0529 27.3245 58.7493 27.1571 58.4502C26.9919 58.1559 26.8467 57.9102 26.7258 57.7048L26.4985 57.3999L26.2145 57.1881L26.0494 57.1352L25.8306 57.1087L25.8148 56.8461C26.6309 56.7981 27.4488 56.7886 28.2658 56.8175L28.2553 57.0801C28.0659 57.0833 27.926 57.0992 27.8345 57.1309L27.6946 57.2686L27.7199 57.3903L27.8219 57.618C27.8629 57.708 27.9292 57.8393 28.0144 58.0182C28.1007 58.195 28.1985 58.393 28.3026 58.6175C28.654 58.1241 28.8917 57.8107 28.9896 57.6593L29.1452 57.3554L29.0779 57.205C29.0274 57.1701 28.9075 57.1309 28.7171 57.1023L28.7297 56.8398C29.2494 56.8652 29.7712 56.9065 30.2877 56.9647L30.2593 57.2273L30.0846 57.2336L29.9205 57.2813L29.6102 57.4867L29.3314 57.7906C29.1831 57.9642 29.0432 58.1336 28.9138 58.303C28.7813 58.4703 28.6256 58.6747 28.4425 58.9182C28.635 59.3375 28.7897 59.6869 28.917 59.9718C29.0432 60.2608 29.1579 60.5266 29.262 60.7796L29.4198 61.1058L29.6323 61.3525L29.7554 61.4202L29.9458 61.4806L29.9174 61.7432L29.9205 61.7368ZM33.15 62.3583C32.6935 62.2366 32.2317 62.1254 31.7688 62.0322L31.8172 61.7919L31.9182 61.7855L32.0349 61.7538L32.1401 61.6574L32.2033 61.4647C32.3137 60.9459 32.4242 60.4302 32.5325 59.9114C32.0897 60.3538 31.6631 60.8122 31.2533 61.2858V61.2953L31.2428 61.4901L31.3007 61.6182L31.3859 61.6796L31.4974 61.7241L31.4522 61.9645C30.9891 61.8778 30.5236 61.805 30.0562 61.7463L30.0878 61.5028H30.2088L30.314 61.4816L30.4328 61.3811L30.4907 61.1862L30.7747 59.0887L30.7684 58.8833L30.6706 58.752L30.5475 58.7012L30.4265 58.6715L30.4549 58.428C30.9914 58.4915 31.5258 58.5762 32.057 58.6747L32.0129 58.9182H31.8929L31.772 58.9563L31.6647 59.0622L31.6079 59.2454L31.3417 60.8114C31.7562 60.3434 32.1875 59.8892 32.6398 59.4434V59.4339L32.6588 59.239L32.5956 59.1078L32.4883 59.0336L32.3768 58.9892L32.4242 58.7488C32.9565 58.8579 33.4845 58.9818 34.0105 59.1236L33.9474 59.3608L33.8138 59.3407H33.6907L33.554 59.4254L33.4698 59.616L32.9596 61.6701L32.9407 61.8745L33.0133 62.0089L33.1016 62.0672L33.2163 62.1148L33.1532 62.352L33.149 62.3583H33.15ZM36.7109 58.8155C36.5299 58.7488 36.35 58.681 36.1691 58.6175L34.9446 62.1826L34.9131 62.3943L34.9825 62.5606L35.115 62.6665L35.3086 62.7872L35.2202 63.0339C34.639 62.8123 34.0483 62.617 33.4498 62.4483L33.5203 62.1942L33.7065 62.2207H33.8748L34.0263 62.1339L34.121 61.9359L35.0993 58.7107L35.1245 58.5085L35.0267 58.3285L34.8458 58.1982L34.669 58.0987L34.7427 57.8446C35.8998 58.1749 37.0401 58.5858 38.1541 59.0792L37.5903 60.3953L37.3946 60.3085L37.4136 59.9855L37.3883 59.6043L37.3094 59.2486L37.1632 59.0368L36.9602 58.9278L36.7172 58.825L36.7109 58.8155ZM40.8103 62.4579L40.6041 62.3298C40.7619 61.8003 40.8166 61.3747 40.7693 61.0581C40.7219 60.7405 40.5662 60.5075 40.3127 60.3667C39.9971 60.1899 39.6637 60.2248 39.3344 60.4726C39.002 60.7182 38.6927 61.1481 38.3982 61.7495C38.2299 62.0926 38.1131 62.3933 38.0468 62.6622C37.9846 62.8845 37.9528 63.1143 37.9522 63.3452C37.9535 63.5175 37.9969 63.687 38.0784 63.8386L38.394 64.1488C38.5938 64.261 38.8126 64.2896 39.0535 64.2356C39.2934 64.1806 39.569 64.0461 39.8825 63.8354L39.9772 64.1001C39.8088 64.2293 39.6479 64.3341 39.4901 64.4178C39.3323 64.5046 39.1735 64.5618 39.0157 64.5978C38.8483 64.6353 38.6761 64.646 38.5055 64.6295C38.3215 64.607 38.144 64.5472 37.9837 64.4538C37.7691 64.3372 37.5838 64.1727 37.442 63.973C37.2953 63.7629 37.1919 63.5253 37.1379 63.2742C37.0811 62.9851 37.0726 62.6884 37.1127 62.3965C37.1506 62.0703 37.2421 61.74 37.3946 61.398C37.5429 61.0581 37.727 60.7627 37.9522 60.5192C38.1762 60.2756 38.4234 60.0903 38.7022 59.9654C38.9704 59.8447 39.2597 59.7896 39.5595 59.8066C39.8635 59.8182 40.1549 59.905 40.4369 60.0586C40.6388 60.1708 40.8071 60.3021 40.9365 60.4556L41.2416 60.8919L41.4909 60.8283L41.7087 60.9618C41.412 61.4615 41.1143 61.9581 40.8166 62.4579" fill="white"/>
<path d="M15.9707 61.7432C16.0306 61.5208 15.9833 61.2529 15.8287 60.9385C15.6709 60.6187 15.4994 60.4069 15.3132 60.3042C15.126 60.2058 14.8882 60.2301 14.6095 60.3815L14.398 60.5001C14.7336 61.1121 15.0692 61.7262 15.4016 62.3382L15.4994 62.2842C15.755 62.1434 15.9097 61.9666 15.9707 61.7432ZM18.5711 61.3355C18.8972 61.2074 19.2265 61.0856 19.5557 60.9734C19.2058 60.4825 18.8445 59.9999 18.4722 59.526C18.4922 60.1316 18.5269 60.7362 18.5711 61.3355Z" fill="white"/>
</svg>
