<svg width="200" height="200" viewBox="0 0 200 200" fill="none" xmlns="http://www.w3.org/2000/svg">
<path d="M40.1082 194.402C29.6799 194.402 20.7883 190.709 13.4333 183.324C6.07833 175.939 2.40084 167.011 2.40084 156.54C2.40084 155.281 2.81456 154.236 3.64199 153.405C4.46286 152.581 5.50044 152.169 6.75472 152.169C8.00901 152.169 9.05315 152.581 9.88715 153.405C10.7212 154.229 11.1349 155.274 11.1283 156.54C11.1283 164.585 13.9554 171.446 19.6095 177.123C25.2702 182.807 32.0998 185.649 40.0983 185.649C41.3592 185.649 42.4033 186.061 43.2308 186.885C44.0516 187.709 44.4621 188.751 44.4621 190.01C44.4621 191.27 44.0516 192.315 43.2308 193.146C42.4099 193.977 41.369 194.392 40.1082 194.392M195.636 39.2464C194.382 39.2464 193.341 38.831 192.514 38.0002C191.686 37.1759 191.273 36.1341 191.273 34.8747C191.273 27.6083 188.744 21.4365 183.688 16.3593C178.651 11.2887 172.514 8.75335 165.277 8.75335C164.016 8.75335 162.976 8.34124 162.155 7.51701C161.327 6.69279 160.914 5.65097 160.914 4.39155C160.914 3.13213 161.324 2.08372 162.145 1.24631C162.966 0.408892 164.007 -0.00651653 165.267 7.72712e-05C174.927 7.72712e-05 183.13 3.38599 189.874 10.1578C196.618 16.9297 199.993 25.1686 200 34.8747C200 36.1341 199.59 37.1759 198.769 38.0002C197.941 38.831 196.891 39.2464 195.636 39.2464ZM131.618 96.6125V19.2177C131.618 17.8132 132.088 16.6395 133.027 15.6966C133.973 14.7471 135.145 14.2724 136.544 14.2724C137.942 14.2724 139.111 14.7471 140.05 15.6966C140.989 16.6461 141.459 17.8198 141.459 19.2177V93.2298H167.592V33.4801C167.592 32.0756 168.065 30.9019 169.011 29.959C169.956 29.0161 171.128 28.5414 172.527 28.5348C173.926 28.5282 175.095 29.0029 176.034 29.959C176.973 30.9151 177.443 32.0888 177.443 33.4801V130.053C177.443 133.574 175.811 136.02 172.547 137.392C169.283 138.763 166.407 138.196 163.918 135.691L136.317 107.987C134.892 106.556 133.749 104.848 132.889 102.863C132.035 100.885 131.618 98.8016 131.618 96.6125ZM59.2377 29.5238V25.8445C59.2377 24.4598 59.7105 23.2927 60.6561 22.3432C61.6018 21.3937 62.774 20.9222 64.1727 20.9288C65.5715 20.9354 66.7404 21.4036 67.6795 22.3333C68.6186 23.2762 69.0881 24.4433 69.0881 25.8346V29.5139C69.0881 30.8986 68.6153 32.0657 67.6696 33.0152C66.724 33.9582 65.5518 34.4296 64.153 34.4296C62.7543 34.4296 61.5854 33.9615 60.6463 33.0251C59.7072 32.0888 59.2377 30.9217 59.2377 29.5238ZM95.4182 65.4271V9.3369C95.4182 7.93242 95.891 6.75872 96.8367 5.81581C97.7823 4.8729 98.9545 4.39814 100.353 4.39155C101.752 4.38496 102.921 4.85971 103.86 5.81581C104.799 6.77191 105.269 7.94561 105.269 9.3369V65.5062C105.269 66.9239 104.796 68.091 103.85 69.0075C102.905 69.9306 101.732 70.3922 100.334 70.3922C98.9348 70.3922 97.7659 69.9175 96.8268 68.968C95.8878 68.0184 95.4182 66.8448 95.4182 65.4469M90.4733 191.731C86.4675 191.731 82.7309 190.676 79.2636 188.566C75.7831 186.456 72.6999 183.921 70.014 180.96L16.9203 122.061C15.515 120.525 14.8321 118.751 14.8715 116.74C14.9109 114.736 15.7514 113.001 17.3932 111.538L19.8558 109.362C20.9393 108.34 22.2822 107.707 23.8846 107.463C25.4869 107.219 26.9907 107.482 28.3961 108.254L59.2377 125.444V72.2616L2.49935 15.2911C1.54057 14.335 1.04149 13.1943 1.00209 11.8689C0.962684 10.5436 1.48147 9.3336 2.55845 8.23903C3.63543 7.14446 4.80762 6.60047 6.07504 6.60707C7.34246 6.61366 8.51466 7.15765 9.59164 8.23903L191.923 191.375C192.881 192.338 193.39 193.472 193.449 194.778C193.509 196.083 192.996 197.28 191.913 198.368C190.829 199.456 189.66 200 188.406 200C187.152 200 185.98 199.456 184.889 198.368L167.494 180.96C164.342 184.198 160.697 186.802 156.56 188.774C152.423 190.746 147.891 191.731 142.966 191.731H90.4733Z" fill="white"/>
</svg>
