<svg width="92" height="92" viewBox="0 0 92 92" fill="none" xmlns="http://www.w3.org/2000/svg">
<path d="M17.7799 49.1559C20.1135 43.896 22.7935 38.8862 25.8198 34.1263C28.8461 29.3702 32.1669 24.8123 35.7821 20.4525L27.92 18.8134C26.4236 18.5171 24.9734 18.5745 23.5695 18.9856C22.1693 19.4005 20.9266 20.1487 19.8413 21.2303L4.36719 36.71C3.26336 37.8138 2.8559 39.1603 3.14482 40.7494C3.43375 42.3384 4.32645 43.4312 5.82293 44.0275L17.7799 49.1559ZM87.3828 0C78.8484 0.177799 70.8011 2.07618 63.241 5.69513C55.6808 9.31409 48.8892 14.1332 42.8663 20.1524C38.9918 24.027 35.5599 28.2367 32.5706 32.7817C29.5814 37.3267 26.9088 42.0792 24.553 47.039C24.0899 48.028 23.8584 49.0411 23.8584 50.0783C23.8584 51.1154 24.2511 52.0248 25.0364 52.8064L39.2992 66.9636C40.0845 67.7489 40.9772 68.1582 41.9773 68.1916C42.9774 68.2249 43.972 68.0119 44.961 67.5526C49.9208 65.2671 54.6733 62.5946 59.2183 59.535C63.7633 56.4753 67.973 53.0083 71.8476 49.1337C77.8668 43.1145 82.6859 36.3229 86.3049 28.759C89.9238 21.1951 91.8222 13.1479 92 4.61722C92 4.01715 91.8852 3.45412 91.6555 2.92813C91.4296 2.40214 91.074 1.89653 90.5887 1.41128C90.1035 0.926039 89.5979 0.570439 89.0719 0.344486C88.5422 0.114829 87.9792 0 87.3828 0ZM56.9069 35.0931C55.2771 33.4596 54.4621 31.4834 54.4621 29.1646C54.4621 26.8458 55.2771 24.8715 56.9069 23.2417C58.5367 21.6119 60.5129 20.797 62.8354 20.797C65.1579 20.797 67.1322 21.6119 68.7583 23.2417C70.3844 24.8715 71.1993 26.8458 71.203 29.1646C71.2068 31.4834 70.3918 33.4596 68.7583 35.0931C67.1248 36.7267 65.1505 37.5416 62.8354 37.5379C60.5203 37.5342 58.5441 36.7192 56.9069 35.0931ZM42.7385 74.2201L47.8669 86.1771C48.467 87.6735 49.5597 88.5699 51.1451 88.8663C52.7379 89.1663 54.0862 88.7644 55.19 87.6606L70.6585 72.192C71.7439 71.1067 72.4921 69.8399 72.9033 68.3916C73.3144 66.9433 73.37 65.469 73.0699 63.9688L71.4753 56.2179C67.0933 59.8331 62.5279 63.1539 57.7792 66.1802C53.0305 69.2028 48.0169 71.8828 42.7385 74.2201ZM7.74538 68.4694C9.91972 66.295 12.5552 65.2208 15.6519 65.2468C18.7486 65.2727 21.3841 66.371 23.5584 68.5416C25.7327 70.7122 26.8199 73.3496 26.8199 76.4537C26.8199 79.5578 25.7327 82.1933 23.5584 84.3602C20.4691 87.4494 16.8354 89.3941 12.6571 90.1942C8.4788 90.9906 4.25977 91.5925 0 92C0.407457 87.6661 1.03161 83.4286 1.87245 79.2874C2.71329 75.1461 4.67093 71.5401 7.74538 68.4694Z" fill="white"/>
</svg>
