<svg width="111" height="92" viewBox="0 0 111 92" fill="none" xmlns="http://www.w3.org/2000/svg">
<path d="M104.101 68.5809V33.8566L57.4845 59.1349C55.8928 60.0526 54.2097 60.5114 52.4354 60.5114C50.6653 60.5114 48.9692 60.0504 47.3471 59.1284L2.75941 34.7699C1.81569 34.2045 1.11986 33.5348 0.671913 32.7607C0.223971 31.9866 0 31.1298 0 30.1905C0 29.2511 0.223971 28.3943 0.671913 27.6202C1.11986 26.8461 1.81569 26.1764 2.75941 25.611L47.3406 1.31773C48.1321 0.874138 48.9475 0.543618 49.7869 0.32617C50.6219 0.108722 51.4982 0 52.4158 0C53.3334 0 54.2097 0.11307 55.0447 0.339216C55.8797 0.565361 56.693 0.911106 57.4845 1.37644L107.826 28.6444C108.717 29.0967 109.407 29.749 109.894 30.6014C110.381 31.4538 110.624 32.3715 110.624 33.3543V68.5809C110.624 69.5029 110.311 70.277 109.685 70.9032C109.059 71.5295 108.285 71.8426 107.363 71.8426C106.441 71.8426 105.664 71.5295 105.034 70.9032C104.403 70.277 104.092 69.5029 104.101 68.5809ZM47.3471 90.6236L18.7484 75.1369C17.074 74.1888 15.7432 72.8798 14.756 71.2098C13.7688 69.5529 13.2752 67.7589 13.2752 65.828V45.5531L47.3471 64.034C48.9388 64.9517 50.6218 65.4105 52.3962 65.4105C54.1662 65.4105 55.8623 64.9495 57.4845 64.0275L91.5564 45.5466V65.841C91.5564 67.7981 91.0628 69.6029 90.0756 71.2555C89.0884 72.8994 87.7598 74.1954 86.0898 75.1434L57.4845 90.6236C56.6843 91.0802 55.8623 91.4238 55.0186 91.6543C54.1749 91.8848 53.3073 92 52.4158 92C51.5243 92 50.6566 91.8848 49.8129 91.6543C48.9692 91.4238 48.1473 91.0802 47.3471 90.6236Z" fill="white"/>
</svg>
