<svg width="57" height="93" viewBox="0 0 57 93" fill="none" xmlns="http://www.w3.org/2000/svg">
<path d="M5.16748 0.309082H16.9033C18.3356 0.309082 19.6873 0.917806 20.9585 2.13525C22.2476 3.3348 22.8921 4.79395 22.8921 6.5127C22.8921 7.15723 22.6593 7.70329 22.1938 8.15088C21.7463 8.59847 21.245 8.82227 20.6899 8.82227C19.9201 8.82227 19.3919 8.65218 19.1055 8.31201C18.819 7.95394 18.5415 7.30046 18.2729 6.35156C18.0223 5.40267 17.4494 4.92822 16.5542 4.92822H5.40918C4.87207 4.92822 4.60352 5.09831 4.60352 5.43848C4.60352 5.65332 4.71989 5.90397 4.95264 6.19043L21.6836 27.5942C22.4893 28.6326 22.8921 29.7427 22.8921 30.9243C22.8921 32.2671 22.3997 33.4487 21.415 34.4692C20.4482 35.4897 19.3651 36 18.1655 36H6C4.38867 36 2.98324 35.3913 1.78369 34.1738C0.602051 32.9385 0.0112305 31.5868 0.0112305 30.1187C0.0112305 28.4357 0.798991 27.5942 2.37451 27.5942C2.98324 27.5942 3.50244 27.818 3.93213 28.2656C4.36182 28.6953 4.57666 29.2056 4.57666 29.7964C4.57666 30.2798 4.73779 30.6826 5.06006 31.0049C5.40023 31.3271 5.82096 31.4883 6.32227 31.4883H17.5479C18.0312 31.4883 18.2729 31.3003 18.2729 30.9243C18.2729 30.7453 18.1566 30.5125 17.9238 30.2261L1.21973 8.82227C0.431966 7.80176 0.0380859 6.69173 0.0380859 5.49219C0.0380859 4.0957 0.539388 2.88721 1.54199 1.8667C2.5446 0.828288 3.75309 0.309082 5.16748 0.309082ZM33.2583 6.45898V0.362793H56.0317V6.5127C56.0317 7.13932 55.8079 7.67643 55.3604 8.12402C54.9128 8.55371 54.3846 8.76855 53.7759 8.76855C53.1493 8.76855 52.6032 8.54476 52.1377 8.09717C51.6901 7.64958 51.4663 7.12142 51.4663 6.5127V4.87451H46.9009V33.7441C46.9009 34.3708 46.6771 34.9079 46.2295 35.3555C45.7819 35.7852 45.2537 36 44.645 36C44.0005 36 43.4544 35.7852 43.0068 35.3555C42.5592 34.9079 42.3354 34.3708 42.3354 33.7441V4.87451H37.77V6.45898C37.77 7.08561 37.5462 7.62272 37.0986 8.07031C36.6689 8.5 36.1408 8.71484 35.5142 8.71484C34.8875 8.71484 34.3504 8.5 33.9028 8.07031C33.4731 7.62272 33.2583 7.08561 33.2583 6.45898ZM20.5288 61.8745H4.57666V72.8584H11.4517C12.0604 72.8584 12.5885 73.0822 13.0361 73.5298C13.4837 73.9774 13.7075 74.5055 13.7075 75.1143C13.7075 75.7588 13.4837 76.3049 13.0361 76.7524C12.6064 77.2 12.0783 77.4238 11.4517 77.4238H4.57666V88.4883H20.5825C21.1912 88.4883 21.7194 88.7121 22.167 89.1597C22.6146 89.5894 22.8384 90.1175 22.8384 90.7441C22.8384 91.3708 22.6056 91.9079 22.1401 92.3555C21.6925 92.7852 21.1554 93 20.5288 93H0.0649414V57.3091H20.5288C21.1554 57.3091 21.6925 57.5418 22.1401 58.0073C22.6056 58.4549 22.8384 58.992 22.8384 59.6187C22.8384 60.2274 22.6056 60.7555 22.1401 61.2031C21.6925 61.6507 21.1554 61.8745 20.5288 61.8745ZM42.3892 71.3276V70.1729L37.7163 63.5127V90.7441C37.7163 91.3708 37.4925 91.9079 37.0449 92.3555C36.6152 92.7852 36.0871 93 35.4604 93C34.8338 93 34.2967 92.7762 33.8491 92.3286C33.4194 91.881 33.2046 91.3529 33.2046 90.7441V57.3091H39.0322L44.5913 65.3926L50.3115 57.3091H56.0317V90.7441C56.0317 91.3708 55.799 91.9079 55.3335 92.3555C54.8859 92.7852 54.3488 93 53.7222 93C53.1134 93 52.5853 92.7762 52.1377 92.3286C51.6901 91.881 51.4663 91.3529 51.4663 90.7441V63.6201L46.9009 70.0654V71.3276C46.9009 71.9364 46.6771 72.4645 46.2295 72.9121C45.7819 73.3597 45.2537 73.5835 44.645 73.5835C44.0184 73.5835 43.4813 73.3597 43.0337 72.9121C42.604 72.4645 42.3892 71.9364 42.3892 71.3276Z" fill="white"/>
</svg>
