<svg width="40" height="36" viewBox="0 0 40 36" fill="none" xmlns="http://www.w3.org/2000/svg">
<path d="M6.83778 31.5988L3.05111 35.4449C2.48963 36.0151 1.84074 36.146 1.10444 35.8376C0.368148 35.5291 0 34.9686 0 34.1561V3.64741C0 2.60766 0.342963 1.74019 1.02889 1.04502C1.71481 0.349844 2.56889 0.00150471 3.59111 0H36.4111C37.4333 0 38.2874 0.34834 38.9733 1.04502C39.6593 1.7417 40.0015 2.60916 40 3.64741V27.9537C40 28.9919 39.6578 29.8594 38.9733 30.5561C38.2889 31.2527 37.4348 31.6003 36.4111 31.5988H6.83778ZM11.1111 17.5373C11.5704 17.5373 11.9704 17.3643 12.3111 17.0182C12.6519 16.6721 12.8222 16.2659 12.8222 15.7994C12.8222 15.333 12.6519 14.9267 12.3111 14.5806C11.9704 14.2345 11.5704 14.0615 11.1111 14.0615C10.6519 14.0615 10.2519 14.2345 9.91111 14.5806C9.57037 14.9267 9.4 15.333 9.4 15.7994C9.4 16.2659 9.57037 16.6721 9.91111 17.0182C10.2519 17.3643 10.6519 17.5373 11.1111 17.5373ZM20 17.5373C20.4593 17.5373 20.8593 17.3643 21.2 17.0182C21.5407 16.6721 21.7111 16.2659 21.7111 15.7994C21.7111 15.333 21.5407 14.9267 21.2 14.5806C20.8593 14.2345 20.4593 14.0615 20 14.0615C19.5407 14.0615 19.1407 14.2345 18.8 14.5806C18.4593 14.9267 18.2889 15.333 18.2889 15.7994C18.2889 16.2659 18.4593 16.6721 18.8 17.0182C19.1407 17.3643 19.5407 17.5373 20 17.5373ZM28.8889 17.5373C29.3481 17.5373 29.7481 17.3643 30.0889 17.0182C30.4296 16.6721 30.6 16.2659 30.6 15.7994C30.6 15.333 30.4296 14.9267 30.0889 14.5806C29.7481 14.2345 29.3481 14.0615 28.8889 14.0615C28.4296 14.0615 28.0296 14.2345 27.6889 14.5806C27.3481 14.9267 27.1778 15.333 27.1778 15.7994C27.1778 16.2659 27.3481 16.6721 27.6889 17.0182C28.0296 17.3643 28.4296 17.5373 28.8889 17.5373Z" fill="white"/>
</svg>
