<svg width="59" height="59" viewBox="0 0 59 59" fill="none" xmlns="http://www.w3.org/2000/svg">
<path fill-rule="evenodd" clip-rule="evenodd" d="M31.4557 21.718C39.754 18.3107 41.4798 17.7207 42.6037 17.7001C42.8486 17.6971 43.4032 17.7561 43.7601 18.0452C43.9968 18.2478 44.1485 18.5322 44.1849 18.8417C44.2465 19.2249 44.2633 19.614 44.2351 20.0011C43.7867 24.668 41.8397 35.9901 40.8514 41.2116C40.4296 43.4241 39.6065 44.1645 38.8071 44.2383C37.4346 44.362 36.3225 43.5807 35.085 42.7113C34.7586 42.482 34.4234 42.2465 34.0723 42.0199C32.7409 41.1552 31.7023 40.4566 30.6687 39.7614C29.6642 39.0858 28.6645 38.4134 27.4053 37.5949C24.8658 35.9434 25.9303 34.9303 27.3496 33.5795C27.5097 33.4271 27.6744 33.2704 27.839 33.1079L28.0514 32.8955C28.1562 32.7878 28.6711 32.3151 29.3964 31.6492C31.7113 29.524 36.1696 25.431 36.2819 24.9571C36.3025 24.8774 36.3202 24.5883 36.1462 24.4349C35.9692 24.2815 35.7125 24.3346 35.5267 24.3759C35.2631 24.4329 31.0614 27.1755 22.9213 32.6035C21.7295 33.4098 20.6498 33.8031 19.6822 33.7835C18.6143 33.7599 16.5611 33.1876 15.036 32.6979C14.8089 32.6248 14.5874 32.5559 14.3739 32.4895C12.8285 32.009 11.6946 31.6565 11.8087 30.7597C11.8736 30.2287 12.614 29.6849 14.03 29.1284C19.8222 26.6198 25.6308 24.1496 31.4557 21.718Z" fill="white"/>
<path d="M29.5 0C45.7929 0 59 13.2072 59 29.5C59 45.7929 45.7929 59 29.5 59C13.2072 59 0 45.7929 0 29.5C0 13.2072 13.2072 0 29.5 0ZM42.6039 17.7C41.48 17.7207 39.7542 18.3107 31.4559 21.7179C25.631 24.1496 19.8223 26.6198 14.0302 29.1283C12.6142 29.6849 11.8737 30.2287 11.8088 30.7597C11.679 31.7804 13.1659 32.096 15.0362 32.6978C16.5613 33.1875 18.6145 33.7598 19.6824 33.7834C20.65 33.8031 21.7297 33.4097 22.9215 32.6034C31.0615 27.1754 35.2633 24.4329 35.5269 24.3758C35.7127 24.3345 35.9694 24.2815 36.1464 24.4349C36.3204 24.5883 36.3027 24.8774 36.282 24.957C36.1345 25.5795 28.4911 32.4441 28.0515 32.8955L27.8392 33.1078C26.2167 34.7097 24.5794 35.757 27.4055 37.5948C29.9602 39.2557 31.447 40.3147 34.0725 42.0198C35.754 43.1054 37.0726 44.3946 38.8072 44.2382C39.6067 44.1645 40.4297 43.424 40.8516 41.2115C41.8398 35.99 43.7869 24.6679 44.2353 20.001C44.2635 19.6139 44.2466 19.2249 44.1851 18.8417C44.1487 18.5322 43.997 18.2478 43.7603 18.0452C43.4033 17.7561 42.8488 17.6971 42.6039 17.7Z" fill="#28A8EA"/>
</svg>
