<svg width="40" height="40" viewBox="0 0 40 40" fill="none" xmlns="http://www.w3.org/2000/svg">
<path d="M20.0001 0C31.0461 0 40.0001 8.954 40.0001 20C40.0001 31.046 31.0461 40 20.0001 40C8.95412 40 0.00012207 31.046 0.00012207 20C0.00012207 8.954 8.95412 0 20.0001 0ZM28.8841 12C28.1221 12.014 26.9521 12.414 21.3261 14.724C17.3771 16.3726 13.439 18.0473 9.51212 19.748C8.55212 20.1253 8.05012 20.494 8.00612 20.854C7.91812 21.546 8.92612 21.76 10.1941 22.168C11.2281 22.5 12.6201 22.888 13.3441 22.904C14.0001 22.9173 14.7321 22.6507 15.5401 22.104C21.0588 18.424 23.9075 16.5647 24.0861 16.526C24.2121 16.498 24.3861 16.462 24.5061 16.566C24.6241 16.67 24.6121 16.866 24.5981 16.92C24.4981 17.342 19.3161 21.996 19.0181 22.302L18.8741 22.446C17.7741 23.532 16.6641 24.242 18.5801 25.488C20.3121 26.614 21.3201 27.332 23.1001 28.488C24.2401 29.224 25.1341 30.098 26.3101 29.992C26.8521 29.942 27.4101 29.44 27.6961 27.94C28.3661 24.4 29.6861 16.724 29.9901 13.56C30.0092 13.2976 29.9978 13.0338 29.9561 12.774C29.9314 12.5642 29.8286 12.3714 29.6681 12.234C29.4261 12.038 29.0501 11.998 28.8841 12Z" fill="white"/>
</svg>
