<svg width="261" height="58" viewBox="0 0 261 58" fill="none" xmlns="http://www.w3.org/2000/svg">
<path d="M62.1151 28.6607H73.6924V30.9459H69.1359V42.5894H66.6717V30.9459H62.1166V28.6607H62.1151ZM77.8422 33.4182C80.8269 33.4182 82.7589 35.4308 82.7589 38.1162C82.7589 40.8045 80.8371 42.8171 77.8422 42.8171C74.8472 42.8171 72.9255 40.8045 72.9255 38.1176C72.9255 35.4308 74.8472 33.4182 77.8422 33.4182ZM77.8422 40.6885C79.2653 40.6885 80.3064 39.6764 80.3064 38.1176C80.3064 36.5574 79.2449 35.5671 77.8422 35.5671C76.4409 35.5671 75.3998 36.5574 75.3998 38.1176C75.3998 39.6764 76.4409 40.6885 77.8422 40.6885ZM98.3781 42.588H96.0728V37.3303C96.0728 36.2138 95.6164 35.6236 94.5331 35.6236C93.6728 35.6236 92.9918 36.0456 92.6638 36.656C92.6638 36.7938 92.6842 37.1099 92.6842 37.3085V42.588H90.3804V37.1737C90.3804 36.2355 89.8598 35.6236 88.8712 35.6236C88.0547 35.6236 87.384 35.9818 86.9801 36.5835V42.5996H84.6763V33.6429H86.9801V34.6333C87.6173 33.917 88.6904 33.4733 89.8059 33.4733C91.1867 33.4733 92.1111 34.0968 92.4305 34.9088C93.0677 34.075 94.0752 33.4733 95.4779 33.4733C97.1241 33.4733 98.3664 34.2969 98.3664 36.7401V42.588H98.3781ZM100.381 36.1195C100.381 34.3694 101.825 33.3892 103.696 33.3892C105.437 33.3892 106.562 34.0112 107.127 34.5274L106.266 36.1601C105.724 35.7396 104.779 35.3075 103.823 35.3075C103.123 35.3075 102.697 35.686 102.697 36.0862C102.697 37.5826 107.573 36.7604 107.573 39.933C107.573 41.702 106.128 42.7982 103.919 42.7982C102.251 42.7982 100.572 41.9036 100.148 41.2714L101.274 39.775C101.815 40.355 103.174 40.8915 104.078 40.8915C104.737 40.8915 105.256 40.6174 105.256 40.0592C105.256 38.6048 100.381 39.4067 100.381 36.1398V36.1195ZM109.474 28.6607H111.779V42.5894H109.476L109.474 28.6607ZM114.572 37.7319L118.364 42.5894H115.39L111.822 37.9103L115.051 33.6328H117.96L114.572 37.7319ZM123.988 32.2799C123.988 30.1919 125.636 28.4331 128.365 28.4331C130.086 28.4331 131.529 29.0131 132.38 29.9295L131.053 31.7637C130.372 31.1098 129.692 30.7313 128.567 30.7313C127.346 30.7313 126.601 31.3519 126.601 32.2582C126.601 35.1451 132.964 34.2287 132.964 38.8644C132.964 41.2134 130.894 42.8055 128.269 42.8055C126.464 42.8055 124.361 42.0254 123.67 40.6131L125.072 38.9383C125.889 39.9925 127.218 40.5087 128.301 40.5087C129.468 40.5087 130.351 39.9287 130.351 38.8745C130.351 36.1253 123.988 36.8097 123.988 32.2683V32.2799ZM134.985 31.1417H137.289V33.627H140.201V35.7773H137.29V39.0427C137.29 40.0128 137.608 40.6551 138.374 40.6551C139.001 40.6551 139.437 40.3811 139.755 40.1389L140.454 41.9079C139.914 42.3516 138.947 42.7837 137.789 42.7837C135.74 42.7837 134.985 41.4671 134.985 39.1805V31.1417ZM142.327 34.2708C143.302 33.7297 144.396 33.4368 145.513 33.4182C148.179 33.4182 149.124 34.7768 149.124 37.1374V42.5952H147.118V41.5628C146.638 42.2371 145.673 42.7228 144.451 42.7228C142.805 42.7228 141.627 41.7107 141.627 39.9722C141.627 38.0002 143.092 37.0635 144.918 37.0635C145.726 37.0635 146.523 37.3274 146.969 37.6435C147.032 36.1471 146.628 35.3351 145.279 35.3351C144.238 35.3351 143.57 35.6512 142.911 35.947L142.328 34.2708H142.327ZM146.958 39.9606V39.0442C146.554 38.7498 146.035 38.6019 145.376 38.6019C144.612 38.6019 143.932 38.9601 143.932 39.7184C143.932 40.3927 144.493 40.7726 145.215 40.7726C146.182 40.7726 146.682 40.3521 146.958 39.9504V39.9606ZM151.316 31.1417H153.621V33.627H156.53V35.7773H153.621V39.0427C153.621 40.0128 153.939 40.6551 154.704 40.6551C155.33 40.6551 155.766 40.3811 156.084 40.1389L156.785 41.9079C156.244 42.3516 155.278 42.7837 154.12 42.7837C152.07 42.7837 151.316 41.4671 151.316 39.1805V31.1417ZM166.104 41.6991C165.201 42.4575 163.917 42.8156 162.653 42.8156C159.742 42.8156 157.799 40.9408 157.799 38.1176C157.799 35.5149 159.605 33.4182 162.578 33.4182C164.904 33.4182 166.848 35.0712 166.848 37.5797C166.848 38.1379 166.805 38.4758 166.71 38.8122H160.188C160.39 40.1723 161.473 40.8987 162.896 40.8987C164.001 40.8987 164.924 40.4985 165.446 40.0766L166.104 41.689V41.6991ZM160.104 37.2853H164.532C164.554 36.1891 163.788 35.3351 162.462 35.3351C161.133 35.3351 160.337 36.1152 160.092 37.2853H160.104ZM184.994 36.8155C184.994 41.0713 182.37 42.8098 179.418 42.8098C175.923 42.8098 173.438 40.7552 173.438 36.6778V28.6593H175.902V36.1616C175.902 38.7643 176.986 40.5246 179.418 40.5246C181.542 40.5246 182.551 39.0282 182.551 36.3196V28.6607H184.994V36.8155ZM187.805 33.6328H190.11V34.5289C190.651 33.9489 191.618 33.4747 192.701 33.4747C194.91 33.4747 196.408 34.5289 196.408 37.3419V42.5996H194.104V37.7421C194.104 36.3095 193.36 35.6352 192.076 35.6352C191.288 35.6352 190.651 35.9513 190.11 36.4878V42.5996H187.805V33.6328ZM200.072 29.0856C200.731 29.0856 201.4 29.6018 201.4 30.4225C201.4 31.3403 200.741 31.8565 200.072 31.8565C199.287 31.8565 198.628 31.3403 198.628 30.4225C198.628 29.6018 199.287 29.0856 200.072 29.0856ZM198.872 33.6473H201.177V42.6025H198.872V33.6473ZM208.489 42.6257H206.779L202.628 33.627H205.378L207.046 37.4622C207.289 38.0002 207.566 38.8006 207.725 39.4966C207.884 38.8223 208.15 38.0002 208.384 37.4318L209.945 33.627H212.377L208.479 42.6257H208.489ZM221.055 41.6991C220.151 42.4575 218.867 42.8156 217.603 42.8156C214.694 42.8156 212.75 40.9408 212.75 38.1176C212.75 35.5149 214.555 33.4182 217.528 33.4182C219.855 33.4182 221.799 35.0712 221.799 37.5797C221.799 38.1379 221.757 38.4758 221.66 38.8122H215.14C215.341 40.1723 216.424 40.8987 217.848 40.8987C218.953 40.8987 219.876 40.4985 220.396 40.0766L221.055 41.689V41.6991ZM215.054 37.2853H219.482C219.504 36.1891 218.74 35.3351 217.412 35.3351C216.085 35.3351 215.289 36.1152 215.044 37.2853H215.054ZM223.62 33.6328H225.924V34.5071C226.35 33.9271 226.901 33.4747 227.994 33.4747C228.74 33.4747 229.1 33.5907 229.397 33.8126L228.579 35.9615C228.133 35.6976 227.9 35.6236 227.411 35.6236C226.605 35.6236 226.191 36.0557 225.924 36.5835V42.5996H223.62V33.6328ZM230.311 36.1195C230.311 34.3694 231.755 33.3892 233.626 33.3892C235.367 33.3892 236.492 34.0112 237.055 34.5274L236.195 36.1601C235.652 35.7396 234.709 35.3075 233.753 35.3075C233.051 35.3075 232.627 35.686 232.627 36.0862C232.627 37.5826 237.501 36.7604 237.501 39.933C237.501 41.702 236.056 42.7982 233.849 42.7982C232.181 42.7982 230.502 41.9036 230.077 41.2714L231.204 39.775C231.745 40.355 233.105 40.8915 234.008 40.8915C234.667 40.8915 235.186 40.6174 235.186 40.0592C235.186 38.6048 230.311 39.4067 230.311 36.1398V36.1195ZM240.756 29.0856C241.415 29.0856 242.083 29.6018 242.083 30.4225C242.083 31.3403 241.425 31.8565 240.756 31.8565C239.97 31.8565 239.311 31.3403 239.311 30.4225C239.311 29.6018 239.97 29.0856 240.756 29.0856ZM239.556 33.6473H241.86V42.6025H239.556V33.6473ZM244.322 31.1417H246.628V33.627H249.538V35.7773H246.628V39.0427C246.628 40.0128 246.945 40.6551 247.711 40.6551C248.326 40.6551 248.772 40.3811 249.092 40.1389L249.792 41.9079C249.251 42.3516 248.284 42.7837 247.126 42.7837C245.076 42.7837 244.322 41.4671 244.322 39.1805V31.1417ZM257.075 42.5952C255.746 45.7997 254.908 46.5784 253.58 46.5784C252.752 46.5784 252.157 46.2623 251.636 45.8824L252.38 44.1554C252.625 44.2917 252.964 44.4715 253.326 44.4715C253.909 44.4715 254.323 44.0177 254.705 43.0795L254.908 42.6054L250.734 33.6502H253.507L255.609 38.5497C255.789 38.992 255.907 39.4023 256.056 39.846C256.14 39.4241 256.215 38.992 256.373 38.528L257.999 33.6502H260.622L257.075 42.6054V42.5952ZM68.8734 21.5398L63.9348 15.3773V21.5398H63.0308V13.7025H63.7963L68.7349 19.8868V13.7025H69.6389V21.5412H68.8734V21.5398ZM71.6919 16.8606C72.2048 16.5532 72.7932 16.3926 73.392 16.3966C74.8356 16.3966 75.3459 17.1463 75.3459 18.4629V21.5601H74.4856V20.9076C74.178 21.286 73.6982 21.634 72.8598 21.634C71.9354 21.634 71.2997 21.054 71.2997 20.0753C71.2997 19.0414 72.1279 18.473 73.2214 18.473C73.6151 18.473 74.1459 18.5455 74.4856 18.7993C74.4856 17.8626 74.3369 17.2086 73.3381 17.2086C72.7228 17.2086 72.3393 17.3681 71.9354 17.5769L71.7021 16.8606H71.6919ZM74.4856 20.1811V19.5373C74.1511 19.3097 73.7535 19.1916 73.3483 19.1995C72.8088 19.1995 72.2664 19.4431 72.2664 20.0332C72.2664 20.5175 72.5945 20.822 73.1792 20.822C73.8484 20.822 74.2305 20.474 74.4856 20.1695V20.1797V20.1811ZM76.7224 15.1163H77.6249V16.5184H79.4825V17.3609H77.6249V19.5518C77.6249 20.3421 77.8801 20.8061 78.5275 20.8061C78.8774 20.8061 79.1428 20.6582 79.3353 20.5219L79.621 21.2179C79.3557 21.4383 78.8891 21.6384 78.3248 21.6384C77.1889 21.6384 76.7326 20.9221 76.7326 19.6374V15.1061L76.7224 15.1163ZM81.5487 14.0868C81.6206 14.085 81.6922 14.0976 81.7591 14.1238C81.8261 14.15 81.8872 14.1892 81.9387 14.2392C81.9902 14.2892 82.0311 14.3489 82.059 14.4149C82.0869 14.4808 82.1013 14.5517 82.1013 14.6233C82.1013 14.993 81.8242 15.2033 81.5487 15.2033C81.2308 15.2033 80.9654 14.993 80.9654 14.6233C80.9654 14.297 81.2293 14.0868 81.5487 14.0868ZM81.0704 16.5199H81.9744V21.5659H81.0704V16.5199ZM86.2277 16.3981C87.852 16.3981 88.9354 17.5146 88.9354 19.0313C88.9354 20.548 87.852 21.6659 86.2277 21.6659C84.6019 21.6659 83.5186 20.5494 83.5186 19.0313C83.5186 17.5146 84.6019 16.3981 86.2277 16.3981ZM86.2277 20.822C87.2484 20.822 87.9803 20.1057 87.9803 19.0313C87.9803 17.9568 87.2469 17.2405 86.2277 17.2405C85.207 17.2405 84.4751 17.967 84.4751 19.0313C84.4751 20.0956 85.2085 20.822 86.2277 20.822ZM90.2302 16.5097H91.1328V17.1202C91.5703 16.6777 92.1652 16.424 92.7892 16.414C94.1058 16.414 94.9034 17.0578 94.9034 18.6383V21.5456H93.9994V18.7964C93.9994 17.7422 93.5109 17.2463 92.5661 17.2463C92.2948 17.251 92.0275 17.3114 91.7809 17.4236C91.5342 17.5359 91.3136 17.6977 91.1328 17.8988V21.5456H90.2287V16.4996L90.2302 16.5097ZM96.4679 16.8606C96.9805 16.5534 97.5683 16.3929 98.1666 16.3966C99.6102 16.3966 100.12 17.1463 100.12 18.4629V21.5601H99.2602V20.9076C98.9525 21.286 98.4728 21.634 97.6359 21.634C96.7114 21.634 96.0743 21.054 96.0743 20.0753C96.0743 19.0414 96.9025 18.473 97.996 18.473C98.3897 18.473 98.9205 18.5455 99.2602 18.7993C99.2602 17.8626 99.1115 17.2086 98.1127 17.2086C97.4974 17.2086 97.1153 17.3681 96.7115 17.5769L96.4782 16.8606H96.4665H96.4679ZM99.2602 20.1811V19.5373C98.9257 19.3097 98.5281 19.1916 98.1229 19.1995C97.5834 19.1995 97.041 19.4431 97.041 20.0332C97.041 20.5175 97.3691 20.822 97.9538 20.822C98.6245 20.822 99.005 20.474 99.2602 20.1695V20.1797V20.1811ZM101.619 13.7025H102.523V19.8012C102.523 20.4871 102.693 20.8017 103.117 20.8017C103.362 20.8017 103.595 20.6857 103.766 20.5813L103.967 21.2657C103.69 21.4774 103.298 21.6456 102.767 21.6456C102.001 21.6456 101.619 21.1816 101.619 20.213V13.7025ZM107.812 21.5499V13.7112C108.248 13.7112 109.713 13.6895 109.936 13.6895C112.093 13.6895 112.751 14.7538 112.751 16.0182C112.751 17.2826 111.902 18.0105 111.03 18.2425L113.665 21.5601H112.485L110.053 18.4208H108.768V21.5601H107.812V21.5499ZM108.768 14.6073V17.5146H109.936C110.851 17.5146 111.73 16.9563 111.73 16.0298C111.73 15.2178 111.275 14.5856 109.884 14.5856C109.639 14.5856 109.151 14.5957 108.779 14.6073H108.768ZM118.974 21.0018C118.475 21.4441 117.742 21.6659 117.064 21.6659C115.416 21.6659 114.343 20.6219 114.343 19.0313C114.343 17.5668 115.289 16.3981 116.967 16.3981C118.274 16.3981 119.325 17.3145 119.325 18.7036C119.325 18.9472 119.303 19.1473 119.271 19.3053H115.363C115.436 20.2536 116.139 20.822 117.137 20.822C117.796 20.822 118.369 20.6016 118.697 20.2957L118.984 21.0018H118.974ZM115.299 18.5789H118.379C118.337 17.7466 117.796 17.2304 116.913 17.2304C115.989 17.2304 115.394 17.7988 115.299 18.5789ZM120.387 17.8205C120.387 16.936 121.108 16.3981 122.117 16.3981C122.956 16.3981 123.561 16.7026 123.87 16.9882L123.444 17.6726C123.093 17.3603 122.641 17.1842 122.17 17.1767C121.639 17.1767 121.353 17.4725 121.353 17.8089C121.353 18.8732 124.095 18.3672 124.095 20.1376C124.095 21.2019 123.147 21.6659 122.128 21.6659C121.299 21.6659 120.493 21.2454 120.248 20.8858L120.758 20.2435C121.054 20.5799 121.713 20.8858 122.224 20.8858C122.702 20.8858 123.126 20.6538 123.126 20.1898C123.126 19.169 120.385 19.6736 120.385 17.8307V17.8191L120.387 17.8205ZM129.701 21.0018C129.201 21.4441 128.467 21.6659 127.788 21.6659C126.142 21.6659 125.069 20.6219 125.069 19.0313C125.069 17.5668 126.015 16.3981 127.693 16.3981C129 16.3981 130.051 17.3145 130.051 18.7036C130.051 18.9472 130.029 19.1473 129.997 19.3053H126.089C126.162 20.2536 126.865 20.822 127.862 20.822C128.521 20.822 129.094 20.6016 129.424 20.2957L129.711 21.0018H129.701ZM126.025 18.5789H129.105C129.064 17.7466 128.521 17.2304 127.639 17.2304C126.716 17.2304 126.121 17.7988 126.025 18.5789ZM131.317 16.8606C131.773 16.5764 132.38 16.3966 133.017 16.3966C134.46 16.3966 134.971 17.1463 134.971 18.4629V21.5601H134.11V20.9076C133.803 21.286 133.324 21.634 132.486 21.634C131.562 21.634 130.924 21.054 130.924 20.0753C130.924 19.0414 131.753 18.473 132.846 18.473C133.24 18.473 133.771 18.5455 134.11 18.7993C134.11 17.8626 133.962 17.2086 132.963 17.2086C132.347 17.2086 131.965 17.3681 131.562 17.5769L131.328 16.8606H131.317ZM134.11 20.1811V19.5373C133.776 19.3097 133.378 19.1916 132.973 19.1995C132.433 19.1995 131.891 19.4431 131.891 20.0332C131.891 20.5175 132.219 20.822 132.804 20.822C133.473 20.822 133.855 20.474 134.11 20.1695V20.1797V20.1811ZM136.478 16.5097H137.382V17.0999C137.515 16.8838 137.703 16.7065 137.926 16.586C138.15 16.4655 138.402 16.4062 138.657 16.414C139.071 16.414 139.272 16.4778 139.441 16.604L139.123 17.4464C138.921 17.3088 138.678 17.2424 138.434 17.2579C137.849 17.2579 137.562 17.6059 137.371 17.9742V21.5456H136.468V16.4996L136.478 16.5097ZM144.649 20.822C144.225 21.3701 143.471 21.6659 142.696 21.6659C141.081 21.6659 139.976 20.6219 139.976 19.0313C139.976 17.5668 141.06 16.3981 142.547 16.3981C143.363 16.3981 144.076 16.5866 144.544 17.0607L144.129 17.7669C143.706 17.3768 143.206 17.2405 142.674 17.2405C141.761 17.2405 140.931 17.967 140.931 19.0313C140.931 20.0956 141.762 20.822 142.76 20.822C143.365 20.822 143.874 20.5596 144.215 20.1695L144.638 20.822H144.649ZM145.82 13.7069H146.723V17.0897C147.169 16.664 147.761 16.4229 148.379 16.4155C149.696 16.4155 150.493 17.0781 150.493 18.6586V21.5456H149.589V18.7761C149.589 17.764 149.101 17.2478 148.168 17.2478C147.896 17.253 147.628 17.3125 147.38 17.4229C147.131 17.5332 146.908 17.6921 146.723 17.8901V21.5456H145.82V13.7069ZM12.5659 31.2954V13.7518H21.2752V31.8536C21.2752 34.5506 23.0599 37.3216 26.5856 37.3216C30.1127 37.3216 31.8537 34.5521 31.8537 31.8536V13.7518H40.5629V31.2533C40.5629 38.2496 36.1449 45.1298 26.5958 45.1298C17.0481 45.1298 12.5878 38.2496 12.5878 31.3055" fill="white"/>
<path d="M49.0943 3.13931H44.8264L41.9904 3.91941V4.93006H32.676V3.86576L29.8284 2.77101H27.5144L27.0376 2.50711C27.0376 2.50711 27.0682 2.41286 27.0682 2.35921C27.0687 2.26321 27.0396 2.16936 26.9849 2.0903C26.9301 2.01123 26.8523 1.95073 26.762 1.91696V0.220459H26.4004V1.90681C26.3107 1.94172 26.2335 2.00245 26.1787 2.08123C26.1239 2.16001 26.0939 2.25327 26.0927 2.34906C26.0927 2.40126 26.1029 2.45491 26.1233 2.49696L25.6363 2.76086H23.213L20.4951 3.89766V4.91991H11.1253V3.91941L8.29077 3.13931H3.99958L1.16357 3.91941V32.9252C1.16357 46.6857 12.442 57.8754 26.3246 57.8754H26.7911C40.6635 57.8754 51.9521 46.6857 51.9521 32.9252V3.91941L49.1161 3.13931H49.0957H49.0943ZM48.3215 32.9252C48.3215 44.705 38.6659 54.2823 26.7911 54.2823H26.3246C14.4498 54.2823 4.7957 44.705 4.7957 32.9252V8.35496H48.3302V32.9252H48.3215Z" fill="white"/>
<path d="M14.5081 42.775L16.1762 44.428L15.7388 44.8616L15.1351 44.2613L13.5531 45.8302L13.0952 45.3778L14.6787 43.8074L14.0736 43.2071L14.5081 42.775ZM17.8034 45.5199C18.5266 45.9839 18.7701 46.8046 18.27 47.5644C17.8034 48.2807 16.9213 48.4373 16.1995 47.9747C15.4675 47.5107 15.2328 46.6886 15.7329 45.9302C16.1791 45.2458 17.0394 45.0356 17.8034 45.5199ZM16.529 47.4687C16.9854 47.763 17.4316 47.5948 17.6868 47.1946C17.9726 46.7625 17.8574 46.2782 17.4637 46.0346C17.07 45.7823 16.5932 45.878 16.306 46.3101C16.0406 46.7205 16.1456 47.2265 16.529 47.4687ZM19.6363 46.6422L20.2516 46.8524L20.6978 48.2546L21.8657 47.3904L22.4504 47.5789L21.5464 50.2556L20.9325 50.0453L21.5055 48.3387L20.4003 49.1289L20.3157 49.097L19.922 47.8109L19.349 49.5074L18.7337 49.2971L19.6363 46.6204V46.6422ZM23.2057 48.4648C23.2582 48.0327 23.6519 47.6963 24.2264 47.7688C24.5865 47.8123 24.8621 47.9704 25.021 48.1806L24.6171 48.6127C24.5121 48.4866 24.4276 48.401 24.2147 48.3706C24.0339 48.3488 23.9172 48.4126 23.907 48.5388C23.8429 49.0028 25.0443 49.0332 24.9262 49.9511C24.8621 50.4354 24.3955 50.7196 23.8531 50.6558C23.4711 50.6036 23.057 50.3933 22.9505 50.0758L23.3748 49.6872C23.5133 49.909 23.7466 50.0352 23.9377 50.0555C24.1082 50.0772 24.2147 50.0033 24.2351 49.8771C24.2891 49.4566 23.0992 49.3609 23.2144 48.4547L23.2057 48.4648ZM26.049 47.9979H26.6964L26.7285 49.2101L27.6325 47.9559L28.4053 47.9356L27.3656 49.2623L28.5555 50.7587L27.7273 50.779L26.7285 49.4624L26.7605 50.8109H26.1131L26.049 47.9979ZM29.216 49.0724L30.2775 48.9042L30.3635 49.4624L29.3005 49.6306L29.216 49.0724ZM31.4031 47.3425L31.826 47.2265L32.6017 49.9453L32.0184 50.1135L31.476 48.2169L31.2529 48.4808L30.8082 48.0806L31.4031 47.3324V47.3425ZM33.5494 48.8708C33.3891 48.5228 33.4736 48.227 33.634 48.0385C33.499 48.0226 33.3708 47.9712 33.2624 47.8897C33.154 47.8081 33.0694 47.6994 33.0172 47.5745C32.8277 47.1743 33.0814 46.7205 33.5713 46.5001C34.0583 46.2782 34.5687 46.3725 34.7597 46.7741C34.8199 46.8971 34.844 47.0345 34.829 47.1705C34.814 47.3065 34.7607 47.4355 34.6751 47.5426C34.8226 47.5253 34.9717 47.5562 35.1 47.6304C35.2283 47.7047 35.3289 47.8184 35.3867 47.9544C35.6097 48.4387 35.3546 48.8911 34.8122 49.1333C34.2712 49.387 33.7507 49.2928 33.5494 48.8592V48.8708ZM34.07 47.5006C34.2391 47.4165 34.2595 47.2584 34.2071 47.1424C34.1429 46.9945 34.0058 46.9626 33.8134 47.0467C33.6238 47.1323 33.5917 47.2787 33.6442 47.3947C33.6967 47.5107 33.8352 47.5948 34.016 47.5107L34.07 47.4904V47.5006ZM34.2814 48.069C34.1123 48.1429 33.9956 48.3111 34.0802 48.4909C34.1429 48.6272 34.3033 48.7128 34.5468 48.6069C34.8238 48.4808 34.834 48.3227 34.7597 48.1864C34.6751 48.0066 34.4943 47.9747 34.3237 48.0588L34.2814 48.0806V48.069ZM35.0148 45.82L36.5342 44.747L36.7777 45.0834L37.4047 47.6006L36.8623 47.9805L36.2994 45.6518L35.3662 46.3043L35.0148 45.8113V45.82ZM38.5216 45.8157C38.4079 45.7175 38.3267 45.5874 38.2887 45.4425C38.2507 45.2975 38.2577 45.1446 38.3087 45.0037C38.1763 45.0368 38.0373 45.0338 37.9064 44.995C37.7756 44.9562 37.6576 44.8831 37.5651 44.7833C37.2472 44.4788 37.3201 43.9611 37.6919 43.5827C38.0652 43.2028 38.5843 43.1085 38.9021 43.4232C39.1063 43.6131 39.1894 43.9089 39.0946 44.183C39.2253 44.1138 39.3753 44.0897 39.5211 44.1144C39.667 44.139 39.8006 44.2111 39.9009 44.3193C40.2844 44.689 40.1998 45.2038 39.7843 45.6257C39.3702 46.0462 38.8511 46.1419 38.4997 45.8055L38.5216 45.8157ZM38.5216 44.3512C38.6586 44.2149 38.6163 44.0568 38.5216 43.9727C38.4049 43.8669 38.2664 43.877 38.1177 44.0148C37.969 44.1612 37.9894 44.3091 38.0856 44.4034C38.1702 44.4875 38.3291 44.531 38.4793 44.3831L38.5099 44.3396L38.5216 44.3512ZM38.9255 44.805C38.7972 44.9312 38.7447 45.1313 38.8919 45.269C39.0086 45.3734 39.1792 45.3937 39.3702 45.2052C39.5831 44.9834 39.5408 44.8355 39.4241 44.7311C39.2754 44.5933 39.1048 44.6252 38.9678 44.7615L38.9357 44.7934L38.9255 44.805Z" fill="white"/>
</svg>
