<svg width="50" height="92" viewBox="0 0 50 92" fill="none" xmlns="http://www.w3.org/2000/svg">
<path d="M24.7953 85.9242L17.5437 91.4838C16.677 92.1499 15.8265 92.1714 14.9921 91.5483C14.1578 90.9251 13.8963 90.0908 14.2079 89.0451L17.071 79.9939L9.95359 74.9715C9.08339 74.3949 8.82018 73.5999 9.16396 72.5865C9.50774 71.5766 10.2043 71.0717 11.2535 71.0717H19.7944L23.764 58.3034L5.51664 47.6408C3.76908 46.656 2.41364 45.3059 1.45033 43.5906C0.483444 41.8752 0 40.0238 0 38.0363V8.67514C0 6.27582 0.846923 4.22924 2.54077 2.5354C4.23103 0.845133 6.27762 0 8.68051 0H40.9101C43.313 0 45.3596 0.845133 47.0499 2.5354C48.7437 4.22566 49.5906 6.27224 49.5906 8.67514V38.0363C49.5906 39.9558 49.0732 41.7392 48.0383 43.3864C47.0069 45.0337 45.6157 46.3838 43.8645 47.4366L25.8267 58.3034L29.7963 71.0717H38.3371C39.3864 71.0717 40.0829 71.5784 40.4267 72.5919C40.7705 73.6017 40.5091 74.3949 39.6424 74.9715L32.5251 79.9939L35.3828 89.0451C35.6943 90.0908 35.4329 90.9251 34.5985 91.5483C33.7641 92.1714 32.9136 92.1499 32.047 91.4838L24.7953 85.9242ZM22.1095 5.3716V51.0893L24.7953 52.6632L27.4811 51.0893V5.3716H22.1095Z" fill="white"/>
</svg>
