<svg width="173" height="40" viewBox="0 0 173 40" fill="none" xmlns="http://www.w3.org/2000/svg">
<mask id="mask0_71_1367" style="mask-type:luminance" maskUnits="userSpaceOnUse" x="0" y="0" width="173" height="39">
<path d="M172.934 0.410645H0V38.9389H172.934V0.410645Z" fill="white"/>
</mask>
<g mask="url(#mask0_71_1367)">
<g opacity="0.7">
<path d="M15.1976 22.0754L16.6173 28.4227C15.8934 28.7326 15.114 29.0289 14.279 29.3114C13.4719 29.5651 12.637 29.7626 11.7743 29.9038C10.9394 30.0451 10.1183 30.1157 9.31112 30.1157C8.11422 30.1157 7.01476 29.9182 6.01269 29.5233C5.01067 29.0995 4.2035 28.4224 3.59117 27.4918C3.0066 26.5325 2.71431 25.2489 2.71431 23.6409V13.4436H0.000488281V7.39259H2.71431V0.410645H10.6467V7.39259H14.9478V13.4436H10.6467V20.8062C10.6467 21.5398 10.8 22.0616 11.1064 22.3717C11.4123 22.6535 11.8298 22.7944 12.3588 22.7944C12.7486 22.7944 13.1938 22.7241 13.6945 22.5835C14.1958 22.4423 14.6969 22.2729 15.1976 22.0754ZM18.6634 22.0332V7.39259H26.5958V20.2137C26.5958 21.1729 26.8045 21.9348 27.2219 22.4991C27.6679 23.0347 28.2662 23.3024 29.0173 23.3024C29.4348 23.3024 29.8522 23.2463 30.2697 23.1337C30.6878 23.0206 31.1056 22.7947 31.523 22.456C31.9682 22.1179 32.3997 21.6386 32.8171 21.018V7.39259H40.7494V20.764C40.7494 21.5257 40.8606 22.0616 41.0835 22.3717C41.3066 22.6535 41.6963 22.8228 42.2525 22.8797V29.6497C41.5569 29.791 40.9307 29.9038 40.3739 29.9882C39.817 30.0445 39.3299 30.0725 38.9123 30.0725C37.5768 30.0725 36.5194 29.8188 35.7398 29.3114C34.9605 28.8033 34.4595 28.0274 34.2368 26.9838L34.0696 26.1804C33.0397 27.5622 31.8011 28.5633 30.3539 29.1838C28.9343 29.7764 27.3201 30.0725 25.5109 30.0725C23.3118 30.0725 21.614 29.3817 20.4171 28C19.248 26.6176 18.6634 24.6286 18.6634 22.0332ZM59.3292 22.0754L60.7488 28.4227C60.0251 28.7326 59.2455 29.0289 58.4105 29.3114C57.6033 29.5651 56.7684 29.7626 55.9057 29.9038C55.0708 30.0451 54.2499 30.1157 53.4427 30.1157C52.246 30.1157 51.1463 29.9182 50.1441 29.5233C49.1424 29.0995 48.3349 28.4224 47.7228 27.4918C47.1381 26.5325 46.846 25.2489 46.846 23.6409V13.4436H44.1321V7.39259H46.846V0.410645H54.7782V7.39259H59.0784V13.4436H54.7782V20.8062C54.7782 21.5398 54.9317 22.0616 55.2379 22.3717C55.5438 22.6535 55.9613 22.7944 56.4904 22.7944C56.88 22.7944 57.3253 22.7241 57.8262 22.5835C58.3275 22.4423 58.8283 22.2729 59.3292 22.0754ZM73.5671 30.0725C71.6184 30.0725 69.8922 29.7623 68.3889 29.1417C66.8863 28.5212 65.6201 27.675 64.5902 26.6031C63.5883 25.5033 62.8227 24.2622 62.2937 22.8797C61.7928 21.4973 61.5425 20.0444 61.5425 18.5208C61.5425 16.9977 61.7928 15.5451 62.2937 14.1627C62.8227 12.7521 63.5883 11.511 64.5902 10.4392C65.6201 9.3674 66.8863 8.52123 68.3889 7.90064C69.8922 7.28008 71.6184 6.96977 73.5671 6.96977C75.5426 6.96977 77.2683 7.28008 78.7439 7.90064C80.2467 8.52123 81.499 9.3674 82.5012 10.4392C83.5308 11.511 84.2964 12.7521 84.798 14.1627C85.327 15.5451 85.5913 16.9977 85.5913 18.5208C85.5913 20.0444 85.327 21.4973 84.798 22.8797C84.2964 24.2622 83.5308 25.5033 82.5012 26.6031C81.499 27.675 80.2467 28.5212 78.7439 29.1417C77.2683 29.7623 75.5426 30.0725 73.5671 30.0725ZM69.6839 18.5208C69.6839 19.5081 69.8508 20.3686 70.1844 21.1023C70.5185 21.8073 70.9779 22.3572 71.5625 22.7522C72.1471 23.1191 72.8152 23.3024 73.5671 23.3024C74.318 23.3024 74.9857 23.1191 75.5703 22.7522C76.155 22.3572 76.6144 21.8073 76.9487 21.1023C77.2821 20.3686 77.449 19.5081 77.449 18.5208C77.449 17.5339 77.2821 16.6877 76.9487 15.9822C76.6144 15.2491 76.155 14.6991 75.5703 14.3324C74.9857 13.9373 74.318 13.7399 73.5671 13.7399C72.8152 13.7399 72.1471 13.9373 71.5625 14.3324C70.9779 14.6991 70.5185 15.2491 70.1844 15.9822C69.8508 16.6877 69.6839 17.5339 69.6839 18.5208ZM103.293 7.01197V14.247C101.763 14.247 100.371 14.4164 99.1189 14.7551C97.8658 15.0937 96.9334 15.6582 96.321 16.4481V29.6497H88.3887V7.39259H95.6532V11.6241C96.4325 10.1286 97.4068 8.9862 98.5762 8.19689C99.7452 7.37882 100.984 6.96977 102.292 6.96977C102.598 6.96977 102.807 6.96977 102.918 6.96977C103.057 6.96977 103.182 6.98385 103.293 7.01197ZM119.744 22.0754L121.163 28.4227C120.439 28.7326 119.66 29.0289 118.825 29.3114C118.018 29.5651 117.183 29.7626 116.32 29.9038C115.485 30.0451 114.664 30.1157 113.857 30.1157C112.66 30.1157 111.561 29.9182 110.559 29.5233C109.557 29.0995 108.75 28.4224 108.137 27.4918C107.553 26.5325 107.26 25.2489 107.26 23.6409V13.4436H104.547V7.39259H107.26V0.410645H115.193V7.39259H119.493V13.4436H115.193V20.8062C115.193 21.5398 115.346 22.0616 115.653 22.3717C115.958 22.6535 116.376 22.7944 116.905 22.7944C117.295 22.7944 117.74 22.7241 118.241 22.5835C118.742 22.4423 119.243 22.2729 119.744 22.0754ZM133.98 30.0725C132.033 30.0725 130.307 29.7623 128.804 29.1417C127.301 28.5212 126.035 27.675 125.005 26.6031C124.003 25.5033 123.237 24.2622 122.708 22.8797C122.207 21.4973 121.956 20.0444 121.956 18.5208C121.956 16.9977 122.207 15.5451 122.708 14.1627C123.237 12.7521 124.003 11.511 125.005 10.4392C126.035 9.3674 127.301 8.52123 128.804 7.90064C130.307 7.28008 132.033 6.96977 133.98 6.96977C135.957 6.96977 137.683 7.28008 139.159 7.90064C140.661 8.52123 141.913 9.3674 142.916 10.4392C143.945 11.511 144.712 12.7521 145.213 14.1627C145.741 15.5451 146.005 16.9977 146.005 18.5208C146.005 20.0444 145.741 21.4973 145.213 22.8797C144.712 24.2622 143.945 25.5033 142.916 26.6031C141.913 27.675 140.661 28.5212 139.159 29.1417C137.683 29.7623 135.957 30.0725 133.98 30.0725ZM130.098 18.5208C130.098 19.5081 130.265 20.3686 130.599 21.1023C130.933 21.8073 131.393 22.3572 131.977 22.7522C132.562 23.1191 133.23 23.3024 133.98 23.3024C134.732 23.3024 135.4 23.1191 135.985 22.7522C136.57 22.3572 137.029 21.8073 137.363 21.1023C137.697 20.3686 137.863 19.5081 137.863 18.5208C137.863 17.5339 137.697 16.6877 137.363 15.9822C137.029 15.2491 136.57 14.6991 135.985 14.3324C135.4 13.9373 134.732 13.7399 133.98 13.7399C133.23 13.7399 132.562 13.9373 131.977 14.3324C131.393 14.6991 130.933 15.2491 130.599 15.9822C130.265 16.6877 130.098 17.5339 130.098 18.5208ZM163.582 30.0725C161.996 30.0725 160.618 29.7623 159.45 29.1417C158.28 28.4931 157.375 27.5622 156.735 26.3492V38.6631H148.803V7.39259H155.692V10.7354C156.471 9.52238 157.431 8.59152 158.572 7.94282C159.742 7.29412 161.147 6.96977 162.789 6.96977C164.265 6.96977 165.614 7.25165 166.839 7.81536C168.064 8.37968 169.136 9.18366 170.053 10.2273C170.973 11.271 171.683 12.484 172.184 13.8664C172.685 15.2488 172.935 16.7721 172.935 18.4364C172.935 20.6649 172.532 22.6537 171.724 24.403C170.917 26.1517 169.803 27.5337 168.385 28.5493C166.993 29.5648 165.392 30.0725 163.582 30.0725ZM160.828 23.3024C161.412 23.3024 161.94 23.1757 162.414 22.9219C162.915 22.6682 163.346 22.3154 163.707 21.8635C164.07 21.4124 164.348 20.8906 164.543 20.298C164.738 19.7056 164.836 19.071 164.836 18.3942C164.836 17.6892 164.725 17.0546 164.501 16.4903C164.307 15.9259 164.015 15.4463 163.625 15.0513C163.235 14.6282 162.776 14.3038 162.248 14.0783C161.718 13.8526 161.134 13.7399 160.493 13.7399C160.132 13.7399 159.769 13.7961 159.407 13.9086C159.073 13.9936 158.753 14.1348 158.447 14.3324C158.141 14.5016 157.835 14.7273 157.529 15.0092C157.25 15.291 156.986 15.6293 156.735 16.0244V19.8753C156.986 20.524 157.32 21.1165 157.737 21.6526C158.184 22.1601 158.67 22.5692 159.198 22.8797C159.727 23.1616 160.271 23.3024 160.828 23.3024Z" fill="#181818"/>
</g>
</g>
</svg>
