<svg width="59" height="59" viewBox="0 0 59 59" fill="none" xmlns="http://www.w3.org/2000/svg">
<path fill-rule="evenodd" clip-rule="evenodd" d="M44.0963 37.0532C43.4541 35.8578 40.8452 33.2827 40.8452 33.2827C38.4391 31.0303 38.4391 30.8797 40.7038 27.9112L41.8193 26.4393C44.3176 23.056 44.4773 21.9406 44.3421 21.5749C44.2653 21.3444 43.8566 21.2553 43.2605 21.2553H37.7876C37.6557 21.2574 37.5257 21.2878 37.4066 21.3444C37.255 21.4348 37.1255 21.6607 37.0732 21.7519C37.0704 21.7568 37.0678 21.7613 37.0655 21.7654C36.5486 23.1117 35.9376 24.4199 35.2371 25.6803C32.957 29.5921 32.115 29.5921 31.8354 29.5921C31.711 29.5945 31.5889 29.5592 31.4851 29.4907C30.6819 28.9604 30.7166 27.6717 30.7473 26.5337L30.7476 26.5254L30.7568 25.9354C30.7568 25.0872 30.7844 24.3682 30.8121 23.7321C30.9012 21.4919 30.8797 20.8374 29.8656 20.5946C29.3647 20.4686 29.0083 20.3795 27.6255 20.3611H26.9156C25.6404 20.3611 24.3559 20.4133 23.643 20.7698C23.4004 20.8913 23.1907 21.0694 23.0315 21.2891C23.4248 21.3629 24.0732 21.5626 24.4542 22.0881C24.9858 22.8133 24.9889 24.3251 24.9889 24.4696C25.035 25.2378 25.2286 28.9407 24.1899 29.5184C24.0586 29.5893 23.912 29.6272 23.7628 29.629C22.9669 29.629 21.9744 28.4736 20.3549 25.6281C19.4669 24.0761 18.8875 22.6772 18.6533 22.1118C18.6241 22.0413 18.6003 21.9838 18.5819 21.9406C18.4405 21.6056 18.2377 21.2276 17.617 21.2276H12.9615C12.4422 21.2276 11.9659 21.5257 12.1964 22.0819C12.2271 22.1618 15.8839 30.7598 19.9462 35.0466C23.265 38.5466 27.0109 38.7986 27.7299 38.7986H29.841C30.2313 38.7986 30.7844 38.396 30.7844 37.6954C30.7844 35.4522 31.5404 34.6102 32.1304 34.4197C32.2246 34.3887 32.3231 34.3732 32.4223 34.3736C33.2028 34.3736 33.9772 35.2709 34.8714 36.3095L34.8748 36.3135C35.473 37.0098 36.0864 37.7239 36.709 38.1594C37.5203 38.7187 38.1902 38.8017 38.5097 38.8017H43.1191C43.3711 38.7832 44.1086 38.5743 44.3237 38.1502C44.4548 37.8962 44.3903 37.551 44.1301 37.1146C44.126 37.1003 44.1147 37.0798 44.0963 37.0532Z" fill="white"/>
<path d="M29.5 0C13.2074 0 0 13.2074 0 29.5C0 45.7926 13.2074 59 29.5 59C45.7926 59 59 45.7926 59 29.5C59 13.2074 45.7926 0 29.5 0ZM40.8452 33.2828C40.8452 33.2828 43.4541 35.8579 44.0964 37.0532C44.1148 37.0799 44.1261 37.1003 44.1302 37.1147C44.3903 37.551 44.4549 37.8962 44.3237 38.1503C44.1086 38.5743 43.3711 38.7833 43.1192 38.8017H38.5098C38.1902 38.8017 37.5203 38.7187 36.7091 38.1595C36.0853 37.7231 35.4707 37.0071 34.8715 36.3096C33.9772 35.2709 33.2029 34.3736 32.4223 34.3736C32.3232 34.3732 32.2246 34.3888 32.1304 34.4197C31.5404 34.6103 30.7845 35.4522 30.7845 37.6955C30.7845 38.3961 30.2314 38.7986 29.8411 38.7986H27.73C27.0109 38.7986 23.2651 38.5467 19.9463 35.0466C15.8839 30.7599 12.2271 22.1619 12.1964 22.082C11.9659 21.5258 12.4422 21.2277 12.9616 21.2277H17.617C18.2378 21.2277 18.4406 21.6057 18.5819 21.9406C18.7479 22.3309 19.3563 23.8827 20.355 25.6281C21.9744 28.4736 22.967 29.6291 23.7629 29.6291C23.9121 29.6273 24.0587 29.5893 24.19 29.5184C25.2286 28.9407 25.0351 25.2379 24.989 24.4696C24.989 24.3252 24.9859 22.8133 24.4543 22.0881C24.0732 21.5627 23.4248 21.3629 23.0315 21.2892C23.1907 21.0695 23.4005 20.8914 23.643 20.7698C24.3559 20.4134 25.6404 20.3611 26.9157 20.3611H27.6255C29.0083 20.3796 29.3648 20.4687 29.8657 20.5947C30.8797 20.8374 30.9012 21.492 30.8121 23.7321C30.7845 24.3682 30.7568 25.0873 30.7568 25.9354L30.7476 26.5254C30.7169 27.6655 30.68 28.9592 31.4851 29.4908C31.5889 29.5592 31.7111 29.5946 31.8354 29.5922C32.1151 29.5922 32.957 29.5922 35.2371 25.6804C35.9377 24.4199 36.5487 23.1117 37.0655 21.7655C37.1116 21.6856 37.2468 21.4397 37.4066 21.3445C37.5258 21.2878 37.6557 21.2575 37.7877 21.2554H43.2605C43.8567 21.2554 44.2654 21.3445 44.3422 21.5749C44.4774 21.9406 44.3176 23.0561 41.8193 26.4394L40.7039 27.9113C38.4391 30.8797 38.4391 31.0303 40.8452 33.2828Z" fill="#0077FF"/>
</svg>
