<svg width="40" height="40" viewBox="0 0 40 40" fill="none" xmlns="http://www.w3.org/2000/svg">
<path d="M20.0001 0C8.95429 0 0.00012207 8.95417 0.00012207 20C0.00012207 31.0458 8.95429 40 20.0001 40C31.046 40 40.0001 31.0458 40.0001 20C40.0001 8.95417 31.046 0 20.0001 0ZM27.6918 22.5646C27.6918 22.5646 29.4605 24.3104 29.896 25.1208C29.9085 25.1389 29.9161 25.1528 29.9189 25.1625C30.0953 25.4583 30.139 25.6924 30.0501 25.8646C29.9043 26.1521 29.4043 26.2938 29.2335 26.3063H26.1085C25.8918 26.3063 25.4376 26.25 24.8876 25.8708C24.4647 25.575 24.048 25.0896 23.6418 24.6167C23.0355 23.9125 22.5105 23.3042 21.9814 23.3042C21.9141 23.3039 21.8473 23.3144 21.7835 23.3354C21.3835 23.4646 20.871 24.0354 20.871 25.5562C20.871 26.0312 20.496 26.3042 20.2314 26.3042H18.8001C18.3126 26.3042 15.773 26.1333 13.523 23.7604C10.7689 20.8542 8.28971 15.025 8.26887 14.9708C8.11262 14.5937 8.43554 14.3917 8.78762 14.3917H11.9439C12.3647 14.3917 12.5022 14.6479 12.598 14.875C12.7105 15.1396 13.123 16.1917 13.8001 17.375C14.898 19.3042 15.571 20.0875 16.1105 20.0875C16.2117 20.0863 16.3111 20.0606 16.4001 20.0125C17.1043 19.6208 16.973 17.1104 16.9418 16.5896C16.9418 16.4917 16.9397 15.4667 16.5793 14.975C16.321 14.6187 15.8814 14.4833 15.6147 14.4333C15.7226 14.2844 15.8648 14.1636 16.0293 14.0812C16.5126 13.8396 17.3835 13.8042 18.248 13.8042H18.7293C19.6668 13.8167 19.9085 13.8771 20.248 13.9625C20.9355 14.1271 20.9501 14.5708 20.8897 16.0896C20.871 16.5208 20.8522 17.0083 20.8522 17.5833L20.846 17.9833C20.8251 18.7562 20.8001 19.6333 21.346 19.9937C21.4163 20.0402 21.4992 20.0641 21.5835 20.0625C21.773 20.0625 22.3439 20.0625 23.8897 17.4104C24.3647 16.5559 24.7789 15.669 25.1293 14.7562C25.1605 14.7021 25.2522 14.5354 25.3605 14.4708C25.4413 14.4324 25.5294 14.4118 25.6189 14.4104H29.3293C29.7335 14.4104 30.0105 14.4708 30.0626 14.6271C30.1543 14.875 30.046 15.6312 28.3522 17.925L27.596 18.9229C26.0605 20.9354 26.0605 21.0375 27.6918 22.5646Z" fill="white"/>
</svg>
