<svg width="104" height="92" viewBox="0 0 104 92" fill="none" xmlns="http://www.w3.org/2000/svg">
<path d="M46 86.25V74.75H9.292C6.64317 74.75 4.43325 73.8645 2.66225 72.0935C0.89125 70.3225 0.00383333 68.1126 0 65.4638V9.28625C0 6.64125 0.887417 4.43325 2.66225 2.66225C4.43708 0.891249 6.64508 0.00383333 9.28625 0H94.2138C96.8587 0 99.0668 0.887416 100.838 2.66225C102.609 4.43708 103.496 6.647 103.5 9.292V65.4638C103.5 68.1087 102.613 70.3187 100.838 72.0935C99.0629 73.8683 96.8549 74.7538 94.2138 74.75H57.5V86.25H66.125C66.9453 86.25 67.6296 86.5241 68.1777 87.0723C68.7259 87.6204 69 88.3047 69 89.125C69 89.9453 68.7259 90.6296 68.1777 91.1777C67.6296 91.7259 66.9453 92 66.125 92H37.375C36.5585 92 35.8742 91.7259 35.3222 91.1777C34.7702 90.6296 34.4962 89.9453 34.5 89.125C34.5038 88.3047 34.7779 87.6204 35.3222 87.0723C35.8666 86.5241 36.5508 86.25 37.375 86.25H46Z" fill="white"/>
</svg>
