<svg width="104" height="92" viewBox="0 0 104 92" fill="none" xmlns="http://www.w3.org/2000/svg">
<path d="M9.292 92C6.64317 92 4.43325 91.1145 2.66225 89.3435C0.89125 87.5725 0.00383333 85.3607 0 82.708V26.542C0 23.8932 0.887417 21.6833 2.66225 19.9123C4.43708 18.1413 6.64508 17.2538 9.28625 17.25H34.5V9.28626C34.5 6.64126 35.3874 4.43134 37.1622 2.65651C38.9371 0.881678 41.147 -0.00382094 43.792 1.23922e-05H59.7137C62.3587 1.23922e-05 64.5686 0.885512 66.3435 2.65651C68.1183 4.42751 69.0038 6.63743 69 9.28626V17.25H94.2137C96.8587 17.25 99.0667 18.1374 100.838 19.9123C102.609 21.6871 103.496 23.897 103.5 26.542V82.7137C103.5 85.3587 102.613 87.5687 100.838 89.3435C99.0629 91.1183 96.8549 92.0038 94.2137 92H9.292ZM40.25 17.25H63.25V9.28626C63.25 8.40459 62.882 7.59384 62.146 6.85401C61.41 6.11418 60.5992 5.74618 59.7137 5.75001H43.7862C42.9046 5.75001 42.0938 6.11801 41.354 6.85401C40.6142 7.59001 40.2462 8.40076 40.25 9.28626V17.25Z" fill="white"/>
</svg>
