<svg width="190" height="40" viewBox="0 0 190 40" fill="none" xmlns="http://www.w3.org/2000/svg">
<mask id="mask0_71_1356" style="mask-type:luminance" maskUnits="userSpaceOnUse" x="0" y="0" width="190" height="40">
<path d="M189.771 0H0V39.4125H189.771V0Z" fill="white"/>
</mask>
<g mask="url(#mask0_71_1356)">
<g opacity="0.7">
<path d="M11.7326 29.1693H15.896V5.25586H9.84023C3.75001 5.25586 0.550106 8.38697 0.550106 12.9977C0.550106 16.6793 2.30475 18.847 5.43588 21.0834L-0.000488281 29.1693H4.50692L10.5627 20.12L8.46374 18.7093C5.91769 16.989 4.67896 15.6471 4.67896 12.7568C4.67896 10.2106 6.46809 8.49021 9.87451 8.49021H11.7326V29.1693ZM66.4065 27.9993V24.6619C65.1334 25.5221 63 26.279 61.0044 26.279C58.011 26.279 56.8755 24.8684 56.7035 21.9781H66.5785V19.8104C66.5785 13.789 63.9292 11.5181 59.8346 11.5181C54.8454 11.5181 52.4714 15.3374 52.4714 20.5673C52.4714 26.5888 55.4305 29.5134 60.6603 29.5134C63.2753 29.5134 65.2022 28.8252 66.4065 27.9993ZM92.0059 29.5134C93.8983 29.5134 95.2403 29.1693 96.238 28.4467V25.1092C95.2058 25.8317 93.967 26.279 92.2467 26.279C89.3221 26.279 88.1178 24.008 88.1178 20.4298C88.1178 16.6793 89.5974 14.7524 92.2812 14.7524C93.8638 14.7524 95.4123 15.303 96.238 15.8191V12.3439C95.3778 11.8622 93.8638 11.5181 91.8338 11.5181C86.6038 11.5181 83.8855 15.2686 83.8855 20.533C83.8855 26.3135 86.535 29.5134 92.0059 29.5134ZM28.9021 11.8622V18.7093H23.4312V11.8622H19.3367V29.1693H23.4312V21.9436H28.9021V29.1693H32.9965V11.8622H28.9021ZM51.4734 25.9349H49.6498V11.8622H37.7104V13.3417C37.7104 17.5739 37.4351 23.0448 35.99 25.9349H34.717V33.1261H38.5018V29.1693H47.6887V33.1261H51.4734V25.9349ZM79.4814 29.1693H84.1265L77.5545 19.8447L83.3351 11.8622H79.2061L73.4256 19.8447V11.8622H69.3311V29.1693H73.4256V20.6706L79.4814 29.1693ZM59.7658 14.7524C61.7958 14.7524 62.4151 16.4384 62.4151 18.6061V18.9502H56.7035C56.8067 16.1976 57.8045 14.7524 59.7658 14.7524ZM45.5555 25.9349H39.7748C40.9103 23.3199 41.2201 18.6061 41.2201 15.6126V15.0965H45.5555V25.9349Z" fill="#181818"/>
<path d="M117.367 29.1693H122.218L113.685 16.5761L121.668 5.25586H117.539L109.797 16.2664V5.25586H105.634V29.1693H109.797V17.9524L117.367 29.1693Z" fill="#181818"/>
<path d="M136.024 17.3674C136.024 13.1697 133.891 11.5869 129.555 11.5869C126.837 11.5869 124.704 12.4471 123.465 13.1697V16.576C124.566 15.7502 126.975 14.8556 129.074 14.8556C131.035 14.8556 131.93 15.5438 131.93 17.4018V18.3652H131.276C125.014 18.3652 122.227 20.4297 122.227 23.9392C122.227 27.4489 124.36 29.4101 127.525 29.4101C129.934 29.4101 130.966 28.6187 131.757 27.793H131.93C131.964 28.2403 132.102 28.8252 132.239 29.1693H136.23C136.093 27.7585 136.024 26.3477 136.024 24.9372V17.3674ZM131.93 25.0404C131.413 25.7973 130.45 26.4167 129.005 26.4167C127.284 26.4167 126.424 25.3845 126.424 23.836C126.424 21.806 127.835 21.0834 131.345 21.0834H131.93V25.0404Z" fill="#181818"/>
<path d="M142.981 11.8627H139.196V34.1588H143.29V27.1397C144.323 28.6882 145.837 29.5139 147.591 29.5139C151.583 29.5139 154.336 26.314 154.336 20.4991C154.336 14.7185 151.652 11.5186 147.798 11.5186C145.871 11.5186 144.288 12.4132 143.187 14.0992L142.981 11.8627ZM146.559 26.2795C144.392 26.2795 143.29 24.5248 143.29 20.5335C143.29 16.5077 144.46 14.7529 146.766 14.7529C149.002 14.7529 150.103 16.5077 150.103 20.4991C150.103 24.5248 148.933 26.2795 146.559 26.2795Z" fill="#181818"/>
<path d="M168.607 15.0971V11.8628H154.877V15.0971H159.694V29.1699H163.788V15.0971H168.607Z" fill="#181818"/>
<path d="M170.908 11.8628V29.1699H177.137C181.163 29.1699 184.018 27.1055 184.018 23.0454C184.018 19.1917 181.472 17.1616 177.206 17.1616H175.003V11.8628H170.908ZM185.532 11.8628V29.1699H189.627V11.8628H185.532ZM176.895 25.9355H175.003V20.3959H176.999C178.753 20.3959 179.785 21.1873 179.785 23.183C179.785 25.1786 178.65 25.9355 176.895 25.9355Z" fill="#181818"/>
</g>
</g>
</svg>
