<svg width="40" height="40" viewBox="0 0 40 40" fill="none" xmlns="http://www.w3.org/2000/svg">
<path d="M23.3397 19.6521L18.6605 17.4688C18.2522 17.2792 17.9168 17.4917 17.9168 17.9437V22.0563C17.9168 22.5083 18.2522 22.7208 18.6605 22.5312L23.3376 20.3479C23.748 20.1562 23.748 19.8438 23.3397 19.6521ZM20.0001 0C8.95429 0 0.00012207 8.95417 0.00012207 20C0.00012207 31.0458 8.95429 40 20.0001 40C31.046 40 40.0001 31.0458 40.0001 20C40.0001 8.95417 31.046 0 20.0001 0ZM20.0001 28.125C9.76262 28.125 9.58346 27.2021 9.58346 20C9.58346 12.7979 9.76262 11.875 20.0001 11.875C30.2376 11.875 30.4168 12.7979 30.4168 20C30.4168 27.2021 30.2376 28.125 20.0001 28.125Z" fill="white"/>
</svg>
